<?xml version="1.0" encoding="utf-8"?>
<!-- Generator: Adobe Illustrator 27.5.0, SVG Export Plug-In . SVG Version: 6.00 Build 0)  -->
<svg version="1.1" xmlns="http://www.w3.org/2000/svg" xmlns:xlink="http://www.w3.org/1999/xlink" x="0px" y="0px"
	 viewBox="0 0 750 500" style="enable-background:new 0 0 750 500;" xml:space="preserve">
<g id="BACKGROUND">
	<rect y="0" style="fill:#FFFFFF;" width="750" height="500"/>
</g>
<g id="OBJECTS">
	<g>
		<path style="fill:#CCCCCC;" d="M702.934,453.391H47.066c-1.162,0-2.103-0.942-2.103-2.103l0,0c0-1.162,0.942-2.103,2.103-2.103
			h655.868c1.162,0,2.103,0.942,2.103,2.103l0,0C705.037,452.449,704.095,453.391,702.934,453.391z"/>
		<g>
			<g>
				<g>
					<g>
						<g>
							<path style="fill:#FCCCA6;" d="M299.719,448.77c0,0-17.612,0-28.155,0h-9.863c-1.963,0-3.799-1.057-4.755-2.793l-0.227-0.378
								c-1.107-1.988-0.881-4.428,0.554-6.164c0.805-0.981,1.233-2.214,1.233-3.472v-8.731h13.058v2.667
								c0,2.667,2.516,5.183,5.51,8.102c2.969,2.918,14.14,2.591,19.952,5.284C302.838,445.952,299.719,448.77,299.719,448.77z"/>
						</g>
						<path style="fill:#24160A;" d="M297.15,443.269c-3.754-1.739-9.727-2.224-14.307-3.13c-1.303,0.449-2.719,0.56-4.115,0.549
							c-2.837-0.023-5.721,0.033-8.55-0.177c-2.791-0.207-5.646-0.605-8.203-1.819c-1.627-0.772-2.564-1.556-3.478-2.58
							c-0.041,1.196-0.453,2.36-1.221,3.295c-1.438,1.741-1.666,4.189-0.555,6.183l0.227,0.379c0.959,1.741,2.801,2.801,4.77,2.801
							h9.893c10.574,0,28.239,0,28.239,0S302.979,445.944,297.15,443.269z"/>
						<path style="fill:#FCCCA6;" d="M275.017,314.811l-3.419,112.422H258.54c0,0-14.255-75.688-14.258-82.191
							c-0.003-6.343,4.668-23.251,7.883-31.87c1.648-4.418,7.371-5.307,10.59-5.413
							C266.553,307.632,275.094,308.975,275.017,314.811z"/>
						<path style="fill:#FCCCA6;" d="M240.906,236.722c-0.328,20.984,0.683,61.798,12.392,80.917c0,0,2.603,7.318,10.169,7.335
							c8.177,0.018,9.337-3.439,10.798-7.335l0,0c0,0,7.189-20.59,4.372-62.183c-1.092-16.118-5.51-18.093-9.521-22.786
							c-3.027-3.542-10.653-12.84-18.073-10.049C246.98,224.15,241.024,229.222,240.906,236.722z"/>
						<path style="fill:#36210F;" d="M278.766,289.924c0.496-8.724,0.72-21.95-0.128-34.468c-1.092-16.118-5.51-18.093-9.521-22.786
							c-3.027-3.542-10.653-12.84-18.073-10.049c-4.063,1.528-10.02,6.6-10.137,14.1c-0.229,14.621,0.198,38.863,4.435,58.692
							C251.278,297.513,274.126,294.788,278.766,289.924z"/>
						<path style="fill:#24160A;" d="M278.089,250.05c-11.16,7.266-23.953,11.011-36.799,11.212
							c-0.011-0.138-0.011-0.286-0.021-0.424c0.658-8.73,0.955-16.601,0.902-22.467c-0.011-1.782-0.255-3.596-0.7-5.346
							c1.581-5.463,6.216-9.144,9.579-10.406c7.415-2.79,15.042,6.513,18.065,10.056
							C272.626,236.779,276.455,238.805,278.089,250.05z"/>
					</g>
					<g>
						<path style="fill:#FCCCA6;" d="M219.455,307.755c13.209,0.28,13.366,16.792,13.209,24.183
							c-0.157,7.391-10.641,96.344-10.641,96.344h-12.685c0,0-7.181-92.098-7.181-97.445c0-5.347,3.145-17.455,6.447-20.286
							C211.907,307.72,219.455,307.755,219.455,307.755z"/>
						<path style="fill:#FCCCA6;" d="M215.329,428.281h6.605c0,0,1.782,8.387,3.669,12.895c1.141,2.725,1.438,4.93,1.496,6.248
							c0.032,0.74-0.58,1.346-1.321,1.346h-23.463c-0.72,0-1.305-0.568-1.322-1.287c-0.04-1.735,0.132-4.813,1.651-6.621
							c2.202-2.621,6.605-11.217,6.605-12.58H215.329z"/>
						<path style="fill:#24160A;" d="M225.587,441.181c-0.561-1.339-1.111-3.022-1.609-4.725c-2.249,2.022-4.996,3.5-8.102,3.527
							c-3.947,0.034-7.652-0.598-10.335-3.61c-1.046,1.858-2.113,3.558-2.898,4.494c-1.518,1.807-1.689,4.883-1.65,6.617
							c0.016,0.719,0.601,1.287,1.321,1.287h23.448c0.74,0,1.352-0.606,1.32-1.345C227.025,446.107,226.727,443.903,225.587,441.181
							z"/>
						<path style="fill:#FCCCA6;" d="M242.176,238.372c0.174,20.697-3.999,66.218-12.641,86.662
							c-3.317,7.847-18.816,4.422-20.966-0.156c-4.366-9.295-8.284-41.724-6.41-68.064c0.764-10.737,2.521-16.877,5.232-21.343
							c4.112-6.775,15.71-14.755,23.555-13.629h0C238.266,222.893,242.113,230.975,242.176,238.372z"/>
						<path style="fill:#36210F;" d="M236.669,298.181c3.798-21.102,5.623-45.988,5.507-59.809
							c-0.062-7.397-3.909-15.478-11.231-16.53l0,0c-7.845-1.126-19.443,6.853-23.555,13.629c-2.71,4.466-4.468,10.606-5.232,21.343
							c-0.901,12.667-0.461,26.736,0.723,38.969C213.114,300.546,225.402,299.546,236.669,298.181z"/>
						<path style="fill:#24160A;" d="M241.269,260.838c-0.011,0.138-0.021,0.286-0.032,0.424
							c-13.355,0.212-26.764-3.405-38.432-10.862c0.933-6.927,2.472-11.435,4.582-14.925c4.116-6.778,15.71-14.756,23.56-13.631
							c3.66,0.53,6.449,2.811,8.338,5.887c0.976,1.591,1.708,3.405,2.185,5.293c-0.339,1.156-0.541,2.397-0.562,3.702
							C240.802,243.26,240.834,251.715,241.269,260.838z"/>
					</g>
					<g>
						<path style="fill:#FCCCA6;" d="M267.376,137.828c1.969,0.739,5.505,5.145,6.391,7.052c5.563,11.978,20.04,48.831,17.99,57.119
							c-2.158,8.722-3.857,9.858-10.94,2.115c-7.083-7.743-16.684-31.831-20.476-42.352c-1.818-5.043-5.889-17.377-2.686-21.346
							C261.024,136.242,265.085,136.968,267.376,137.828z"/>
						<path style="fill:#ECA06E;" d="M271.9,187.758c-0.119,0.308-0.238,0.625-0.347,0.953c-4.625-9.577-8.952-20.672-11.215-26.945
							c-1.816-5.041-5.885-17.377-2.68-21.347c0.526-0.655,1.072-1.191,1.618-1.618c0.248,0.169,0.496,0.337,0.744,0.506
							c5.071,3.493,5.548,12.247,10.272,21.01C274.579,168.227,275.363,178.498,271.9,187.758z"/>
						<path style="fill:#FCCCA6;" d="M283.18,202.651c-0.696,2.88-0.696,2.88,0.486,4.335c3.361,4.138,8.352,2.754,17.495-4.549
							c11.377-9.087,28.562-37.263,28.562-37.263l-5.165-4.824c0,0-28.266,24.187-33.898,30.816
							C286.278,196.322,284.255,198.2,283.18,202.651z"/>
						<g>
							<g>
								<path style="fill:#FCCCA6;" d="M334.833,150.229c-1.935-0.232-3.984,0.234-5.851,0.694
									c-1.333,0.329-2.749,0.702-4.052,0.271c-0.518-0.171-1.019-0.469-1.564-0.433c-0.308,0.02-0.598,0.147-0.88,0.273
									c-0.734,0.326-1.518,0.696-1.91,1.397c-0.359,0.643-0.31,1.432-0.189,2.158c0.373,2.235,1.322,4.337,1.762,6.559
									c0.409,2.061-0.004,5.793,1.765,7.202c2.994,2.383,5.836,0.592,9.314,0.076c3.478-0.517,3.377-2.928,3.119-4.236
									c-0.259-1.307,1.63-2.353,1.234-3.997c-0.396-1.644,0.402-0.89,0.729-2.927c0.327-2.037-1.595-2.371-1.595-2.371
									s1.951-0.935,1.765-2.937C338.327,150.31,336.037,150.372,334.833,150.229z"/>
								<g>
									<path style="fill:#FCCCA6;" d="M325.37,155.623c0.445,1.484,1.353,8.498-2.204,7.056c-0.754-0.306-1.316-1.034-1.696-1.95
										c-1.576-2.268-2.421-5.175-1.505-7.846c0.414-1.208,1.581-1.684,2.748-1.355
										C324.31,151.977,324.957,154.245,325.37,155.623z"/>
									<path style="fill:#ECA06E;" d="M322.829,160.586c-1.738-2.09-2.645-5.255-2.621-8.196c-0.095,0.149-0.18,0.31-0.242,0.493
										c-0.916,2.672-0.071,5.578,1.505,7.846c0.38,0.916,0.942,1.644,1.696,1.95c1.024,0.415,1.669,0.117,2.071-0.535
										C324.277,162.026,323.439,161.32,322.829,160.586z"/>
								</g>
								<path style="fill:#ECA06E;" d="M325.642,162.936c-0.157-1.516,1.309-2.418,1.309-2.418s0.947,0.888,3.484,0.692
									c2.537-0.195,4.006-1.501,4.006-1.501s-1.955,0.474-4.661,0.479c-2.706,0.005-3.147-0.571-3.587-1.578
									c-0.44-1.007,0.24-2.482,1.902-2.165c1.662,0.318,5.096,0.006,6.532-0.923c0,0-3.09,0.29-5.475-0.072
									c-2.384-0.361-1.912-3.243-0.253-3.841c-1.771-0.069-2.361,3.33-3.946,1.102c-0.197-0.277-0.395-0.567-0.684-0.747
									c0.267,0.777,0.69,1.491,1.001,2.251c0.247,0.604,0.451,1.297,0.373,1.956c-0.064,0.541-0.357,0.988-0.346,1.548
									c0.04,1.898,0.878,2.389,0.878,2.389s-1.47,1.397-1.22,3.021c0.146,0.1,0.109-0.014,0.228,0.116s0.816,0.924,0.922,0.783
									C326.104,163.959,325.649,163.005,325.642,162.936z"/>
								<path style="fill:#ECA06E;" d="M327.698,165.478c4.078-0.153,4.759-1.78,4.759-1.78c-1.948,1.703-4.988,1.059-6.352,0.33
									c-0.455-0.243-0.662-1.029-0.662-1.029c-0.17,0.057-0.322,0.079-0.479,0.109c-0.214,0.041,0.435,1.792,0.534,1.945
									c0.114,0.177,0.254,0.343,0.32,0.543c0.16,0.479-0.137,0.986-0.149,1.491c-0.037,1.458,1.757,2.212,2.956,2.221
									c0.918-0.119,1.857-0.34,2.818-0.548c-2.757,0.364-4.029-0.329-4.34-1.86C326.791,165.366,327.698,165.478,327.698,165.478z
									"/>
							</g>
						</g>
					</g>
					<g>
						<g>
							<path style="fill:#3C56C2;" d="M203.059,244.205l0.658,0.456c22.245,15.403,51.767,15.222,73.821-0.456
								c0.849,0-11.722-29.904-12.305-42.538c-0.308-6.577,2.504-15.286,4.837-21.523c3.469-9.261,2.684-19.529-1.602-27.443
								c-4.731-8.762-1.392-14.841-2.018-15.223c-1.581-0.965-3.191-2.291-8.261-5.792c-0.35-0.233-0.7-0.477-1.05-0.7
								c-3.013-2.058-5.718-3.829-7.16-4.519c-0.276-0.127-0.499-0.212-0.668-0.265c-1.23-0.35-4.922-0.689-9.006-0.711
								c-4.095,0.021-7.797,0.912-9.017,1.262c-0.18,0.053-0.413,0.138-0.7,0.265c-0.382,0.17-0.838,0.403-1.358,0.69
								c-0.393,0.212-0.827,0.456-1.294,0.721c-0.148,0.085-0.308,0.18-0.477,0.276c-0.456,0.265-0.934,0.552-1.432,0.859
								c-0.382,0.233-0.785,0.477-1.188,0.732v0.011c-5.707,3.554-13.079,8.667-14.183,10.162
								c-1.008,1.337,6.025,33.022,4.72,61.197C214.802,214.301,202.21,244.205,203.059,244.205z"/>
						</g>
						<path style="fill:#132060;" d="M220.938,167.78c-1.439,3.096-3.513,7.394-5.935,12.088
							c-0.903-13.319-2.769-25.446-3.771-32.641c0.744-0.585,1.588-1.042,2.521-1.3c2.362-0.655,6.471-1.022,9.458,3.424
							C226.049,153.588,223.191,162.907,220.938,167.78z"/>
						<path style="fill:#132060;" d="M213.025,213.898c5.627,0.983,10.877,1.727,14.628,2.203c0.675,1.251,2.035,3.602,3.325,5.091
							c0.923,1.062,1.816,1.796,2.749,2.362c0.129,0.308,0.318,0.576,0.615,0.724c0.218,0.119,0.456,0.199,0.695,0.278
							c0,0.01,0.01,0.01,0.01,0.02c1.191,0.377,2.491,0.645,3.781,1.151c0.199,0.07,0.397,0.139,0.576,0.189
							c2.749,0.784,3.722-1.131,4.099-2.283c0.248-0.744,1.112-1.032,1.856-1.499c0.486-0.298,0.933-0.665,1.111-1.29
							c0,0,0,0,0-0.01c0.119-0.437,0.387-0.764,0.705-1.062c0.288-0.139,0.685-0.278,1.31-1.062
							c0.099-0.129,0.189-0.248,0.258-0.357c0.189-0.238,0.347-0.506,0.437-0.834c1.876,0.665,4.416,1.985,6.371,2.551
							c1.935,0.566,4.039,0.734,5.955,0.119c0.665-0.208,1.38-0.635,1.459-1.32c0.089-0.923-0.963-1.479-1.836-1.786
							c-2.372-0.844-5.548-1.995-7.781-3.136c-1.052-0.546-2.124-1.092-3.067-1.796c-0.566-0.437-1.27-0.685-1.836-1.092
							c0.119,0.069,0.546,0.298,1.211,0.199c0.02,0,0.04,0,0.059-0.01c0.099-0.01,0.199-0.04,0.308-0.07
							c0.03-0.01,0.06-0.02,0.089-0.03c0.119-0.04,0.238-0.079,0.367-0.139c0.02-0.01,0.03-0.02,0.059-0.03
							c0.139-0.069,0.298-0.159,0.457-0.258c0.02-0.02,0.05-0.04,0.079-0.06c0.129-0.089,0.258-0.189,0.397-0.298
							c0.05-0.05,0.099-0.089,0.149-0.129c0.129-0.119,0.258-0.238,0.387-0.377c0.05-0.05,0.089-0.089,0.139-0.139
							c0.189-0.199,0.367-0.407,0.556-0.645c2.551-3.225-0.447-5.448-3.156-4.128c-2.015,0.973-7.711-1.479-12.525,1.419
							c-0.774,0.466-3.493,0.268-4.694,0.754c-3.841-2.035-10.252-5.399-16.842-8.714c-0.02,1.092-0.059,2.183-0.109,3.265
							C215.228,204.887,214.305,209.224,213.025,213.898z"/>
						<g>
							<path style="fill:#FCCCA6;" d="M224.837,130.297v0.011c3.405,5.718,11.52,22.629,19.741,22.035
								c6.927-0.477,10.715-13.941,13.611-20.656c-0.35-0.233-0.7-0.477-1.05-0.7c-3.013-2.058-5.718-3.829-7.16-4.519
								c-0.276-0.127-0.499-0.212-0.668-0.265c-1.23-0.35-4.922-0.689-9.006-0.711c-4.095,0.021-7.797,0.912-9.017,1.262
								c-0.18,0.053-0.413,0.138-0.7,0.265c-0.382,0.17-0.838,0.403-1.358,0.69c-0.393,0.212-0.827,0.456-1.294,0.721
								c-0.148,0.085-0.308,0.18-0.477,0.276c-0.456,0.265-0.934,0.552-1.432,0.859C225.643,129.798,225.24,130.042,224.837,130.297
								z"/>
							<path style="fill:#5479DB;" d="M224.837,130.297v0.011c3.405,5.718,11.52,22.629,19.741,22.035
								c6.927-0.477,10.715-13.941,13.611-20.656c-0.35-0.233-0.7-0.477-1.05-0.7c-3.013,6.396-6.259,18.906-12.571,19.351
								c-7.447,0.552-15.211-14.801-18.542-20.773C225.643,129.798,225.24,130.042,224.837,130.297z"/>
						</g>
					</g>
					<g>
						<g>
							<g>
								<path style="fill:#FCCCA6;" d="M243.911,139.355h-6.088c-4.047,0-7.329-3.281-7.329-7.329v-23.744h20.745v23.744
									C251.239,136.074,247.958,139.355,243.911,139.355z"/>
							</g>
							<path style="fill:#24160A;" d="M249.707,67.766c5.318,2.216,6.137,9.663,9.504,15.849
								c3.367,6.185,13.21,19.026,11.066,31.118c-2.144,12.092-21.265,12.204-21.131,5.042c0.134-7.161-0.14-38.396-1.69-44.866
								C245.909,68.441,249.707,67.766,249.707,67.766z"/>
							<path style="fill:#ECA06E;" d="M251.236,108.283v20.915c-10.555,1.855-17.047-4.038-20.741-13.6v-7.315H251.236z"/>
						</g>
						<g>
							<path style="fill:#24160A;" d="M227.002,67.039c-4.848,3.112-7.83,11.659-10.064,18.337
								c-2.233,6.679-9.678,21.044-5.453,32.574c4.226,11.531,23.071,8.296,21.687,1.269c-1.385-7.027-6.578-37.829-6.184-44.469
								C227.381,68.11,227.002,67.039,227.002,67.039z"/>
							<g>
								<path style="fill:#ECA06E;" d="M261.153,94.804c0.382,3.932,1.147,9.818,5.479,7.637c4.085-2.057,5.915-6.373,5.005-11.367
									s-3.196-7.312-6.939-5.55C261.282,87.13,260.738,90.186,261.153,94.804z"/>
							</g>
							<path style="fill:#FCCCA6;" d="M253.738,120.916c11.137-2.076,13.124-12.79,12.647-20.103
								c-0.373-5.721-1.689-16.358-2.543-22.95c-0.884-6.82-5.733-12.72-12.462-14.14c-5.56-1.174-12.064-0.617-17.369,1.981
								c-10.792,5.285-13.539,14.425-9.627,30.485C226.179,103.549,228.35,124.219,253.738,120.916z"/>
							<path style="fill:#ECA06E;" d="M260.723,72.99l-12.609-4.901l-17.929,7.878l1.43,13.113h1.923
								c8.497-0.956,17.134-2.693,17.134-2.693v-7.939l2.209,7.691l11.506-0.817L260.723,72.99z"/>
							<path style="fill:#24160A;" d="M226.215,98.358c5.101,1.06,9.353-9.952,7.778-18.772c0,0,7.891-2.748,25.947-2.938
								c1.282-0.014,4.045,13.692,5.422,13.609c0,0,3.158,1.002-0.665-12.617c-1.197-4.265-3.565-8.557-5.329-10.559
								c-4.303-4.882-20.288-8.202-31.155-0.957C217.347,73.369,220.327,92.876,226.215,98.358z"/>
							<path style="fill:#24160A;" d="M260.524,72.307l-12.609-4.901l-17.93,7.878l1.43,13.113h1.923
								c8.497-0.956,17.134-2.693,17.134-2.693v-7.939l2.209,7.691l11.506-0.817L260.524,72.307z"/>
							<g>
								<path style="fill:#FCCCA6;" d="M227.035,101.004c0.849,3.87,3.202,8.894-2.744,8.68c-5.606-0.201-9.249-3.492-9.816-8.589
									c-0.566-5.096,1.416-8.256,6.512-8.187C225.322,92.968,225.997,96.474,227.035,101.004z"/>
								<g>
									<path style="fill:#ECA06E;" d="M223.922,105.955c0.168-1.78-1.169-1.349-2.181-2.214c-0.986-0.843-1.15-2.16-0.565-3.247
										c0.236-0.445,0.442-0.829,0.083-1.952c-0.446-1.392-2.413,0.002-3.322,0.351c-0.465-1.505,1.497-2.895,2.897-2.852
										c0.572,0.018,1.616,0.292,2.147,1.947c0.555,1.711,0.201,2.601-0.212,3.365c-0.212,0.401-0.23,0.434,0.106,0.941
										c0.165,0.248,0.448,0.363,0.891,0.519c0.495,0.177,1.174,0.419,1.445,1.135
										C225.549,104.84,225.117,106.112,223.922,105.955z"/>
								</g>
							</g>
							<g>
								<path style="fill:#F98495;" d="M240.409,105.543c0,1.262-1.023,2.285-2.285,2.285s-2.285-1.023-2.285-2.285
									s1.023-2.285,2.285-2.285S240.409,104.281,240.409,105.543z"/>
								<circle style="fill:#F98495;" cx="259.94" cy="105.858" r="2.285"/>
								<g>
									
										<path style="fill:none;stroke:#ECA06E;stroke-width:1.075;stroke-linecap:round;stroke-linejoin:round;stroke-dasharray:19.069;" d="
										M251.805,91.774c2.285,5.21,4.591,12.882,3.145,14.084c-1.23,1.023-3.327,0.978-3.967,0.12"/>
								</g>
								<path style="fill:#513217;" d="M243.781,100.479c0,1.573-0.74,2.848-1.654,2.848c-0.913,0-1.654-1.275-1.654-2.848
									s0.74-2.848,1.654-2.848C243.041,97.631,243.781,98.906,243.781,100.479z"/>
								<path style="fill:#513217;" d="M261.491,99.739c0,1.51-0.711,2.733-1.588,2.733c-0.877,0-1.588-1.224-1.588-2.733
									c0-1.51,0.711-2.734,1.588-2.734C260.78,97.006,261.491,98.23,261.491,99.739z"/>
								
									<path style="fill:none;stroke:#ECA06E;stroke-width:1.075;stroke-linecap:round;stroke-linejoin:round;stroke-miterlimit:10;stroke-dasharray:48.1501;" d="
									M240.867,111.748c2.077-1.475,8.181-2.359,9.691,3.244"/>
								
									<path style="fill:none;stroke:#513217;stroke-width:3.2008;stroke-linecap:round;stroke-linejoin:round;stroke-miterlimit:10;stroke-dasharray:97.2167;" d="
									M256.85,92.093c1.292,0.272,3.967,0.521,4.69-1.835"/>
								
									<path style="fill:none;stroke:#513217;stroke-width:3.2008;stroke-linecap:round;stroke-linejoin:round;stroke-miterlimit:10;stroke-dasharray:97.2167;" d="
									M245.747,92.043c0,0-4.758,2.751-6.751-1.116"/>
							</g>
						</g>
					</g>
					<g>
						<g>
							<path style="fill:#FCCCA6;" d="M196.679,253.319c0.78,0.111,1.408,0.712,1.685,1.452c0.911,2.427,2.951,5.72,3.746,6.681
								c0.909,1.099,1.404,2.195,0.75,3.096c-0.655,0.901-4.765-0.979-7.05-6.658C195.189,256.346,194.397,252.994,196.679,253.319z
								"/>
							<path style="fill:#ECA06E;" d="M203.103,264.039c0.223-0.79-0.249-1.687-0.993-2.583c-0.786-0.945-2.755-4.125-3.686-6.521
								c-0.042,1.116,0.41,2.583,0.797,3.481C200.329,261.004,201.764,262.852,203.103,264.039z"/>
						</g>
						<g>
							<g>
								<path style="fill:#FCCCA6;" d="M200.293,252.432c0.843,0.096,1.537,0.736,1.859,1.539c1.056,2.635,3.355,6.183,4.242,7.213
									c1.013,1.177,1.581,2.364,0.904,3.375c-0.676,1.01-5.159-0.918-7.797-7.079
									C198.784,255.806,197.827,252.151,200.293,252.432z"/>
							</g>
							<path style="fill:#ECA06E;" d="M203.301,258.564c1.341,2.251,2.867,3.835,4.274,4.844c-0.067-0.716-0.529-1.47-1.177-2.225
								c-0.878-1.015-3.099-4.453-4.185-7.067C201.679,255.216,202.624,257.405,203.301,258.564z"/>
						</g>
						<g>
							<g>
								<path style="fill:#FCCCA6;" d="M202.853,250.585c0.848-0.014,1.619,0.531,2.042,1.285c1.388,2.477,4.127,5.697,5.139,6.604
									c1.156,1.036,1.873,2.14,1.333,3.23c-0.54,1.089-5.234-0.243-8.647-6.011C201.793,254.126,200.372,250.625,202.853,250.585z
									"/>
							</g>
							<path style="fill:#ECA06E;" d="M211.534,260.728c-0.091-0.777-0.691-1.535-1.504-2.254c-1.008-0.9-3.749-4.128-5.135-6.6
								c-0.109-0.183-0.227-0.361-0.376-0.508c0.126,1.066,0.634,2.313,1.05,3.095C207.421,257.945,209.783,259.911,211.534,260.728
								z"/>
						</g>
						<g>
							<path style="fill:#FCCCA6;" d="M205.591,248.074c0.848-0.035,1.632,0.489,2.075,1.233c1.451,2.44,4.271,5.59,5.306,6.471
								c1.183,1.006,1.927,2.092,1.415,3.195c-0.512,1.103-5.239-0.109-8.798-5.789C204.622,251.64,203.111,248.177,205.591,248.074
								z"/>
						</g>
						<path style="fill:#FCCCA6;" d="M214.002,248.483c0.093,1.662-2.239,1.371-4.12,0.152c-1.733-1.124-3.724-2.301-3.724-2.301
							l-3.706-3.807l-5.763-3.146c0,0,4.397-2.851,9.03,1.028c2.731,2.287,4.506,3.374,5.597,4.582
							C212.681,246.504,213.948,247.519,214.002,248.483z"/>
						<path style="fill:#ECA06E;" d="M205.879,244.123c0.68,0.523,1.178,1.31,1.738,1.937c0.422,0.473,0.875,0.921,1.356,1.335
							c0.569,0.612,1.164,1.208,1.804,1.729c-0.302-0.14-0.604-0.3-0.896-0.489c-1.733-1.124-3.724-2.301-3.724-2.301l-0.426-0.437
							C205.785,245.305,205.728,244.692,205.879,244.123z"/>
						<path style="fill:#FCCCA6;" d="M192.948,250.779c-1.735-5.476-1.537-8.302,2.043-10.623s9.36-0.742,10.374,3.402
							c0.74,3.025,2.207,5.046,2.468,6.9c0.223,1.585-2.104,2.72-3.719,3.768c-2.758,1.788-7.698,5.29-8.418,3.365
							C195.298,256.526,193.243,251.713,192.948,250.779z"/>
					</g>
					<g>
						<path style="fill:#FCCCA6;" d="M212.879,139.537c-2.064,0.403-3.81,1.74-5,3.475c-7.472,10.89-27.858,44.833-27.21,53.346
							c0.682,8.96,2.17,10.361,10.438,3.9c8.268-6.462,21.73-28.624,27.214-38.372c2.628-4.672,6.217-13.739,3.716-18.185
							C219.407,139.025,215.282,139.068,212.879,139.537z"/>
						<path style="fill:#FCCCA6;" d="M179.761,191.328c0.925-2.815,0.925-2.815,2.696-3.429c5.037-1.747,8.55,2.058,12.476,13.082
							c4.885,13.716,5.289,45.051,5.289,45.051l-6.421,2.814c0,0-12.435-35.214-13.731-43.815
							C179.061,198.341,178.331,195.678,179.761,191.328z"/>
						<path style="fill:#ECA06E;" d="M179.868,203.706c0.883,0.347,1.707,0.585,2.471,0.724c1.26,0.794,2.699,1.598,4.387,2.422
							c2.799,1.36,6.49,2.59,10.559,3.672c-0.635-3.603-1.409-6.907-2.352-9.547c-3.93-11.016-7.443-14.827-12.475-13.08
							c-1.776,0.615-1.776,0.615-2.699,3.434C178.429,195.38,178.975,197.96,179.868,203.706z"/>
					</g>
				</g>
			</g>
			<g>
				<g>
					<g>
						<path style="fill:#E3B900;" d="M399.562,306.777c6.729,7.438,33.681,41.236,33.962,49.558
							c0.281,8.322-3.508,13.076-11.78,7.964c-8.272-5.113-22.921-24.16-28.961-32.582c-2.895-4.036-8.139-11.357-2.708-19.685
							C393.41,306.918,399.562,306.777,399.562,306.777z"/>
					</g>
					<path style="fill:#B58200;" d="M405.845,334.764c-2.87-9.207-5.828-18.382-8.5-27.648c-2.096,0.505-5.216,1.766-7.271,4.917
						c-5.431,8.328-0.187,15.648,2.708,19.685c4.208,5.867,12.594,16.888,20.092,24.765
						C410.344,349.308,408.11,342.03,405.845,334.764z"/>
					<path style="fill:#D47B3F;" d="M373.262,299.254c-0.824-0.456-1.618-0.953-2.402-1.508c0.01,0.01,0.03,0.01,0.04,0.01
						C371.674,298.292,372.458,298.788,373.262,299.254z"/>
					<path style="fill:#D47B3F;" d="M381.043,302.47c-0.198-0.069-0.387-0.129-0.576-0.198c0.07,0.02,0.139,0.03,0.208,0.05
						C380.805,302.371,380.924,302.42,381.043,302.47z"/>
					<g>
						<path style="fill:#2C2C0B;" d="M328.625,407.495c-0.299,3.844-1.074,12.394-0.753,15.502
							c1.382,13.349,7.171,25.321,21.351,24.496c4.962-0.289,11.869-0.563,18.326-0.108c33.341,2.348,31.383-34.292,31.491-40.784
							L328.625,407.495z"/>
						<g>
							<g>
								<path style="fill:#E3B900;" d="M399.036,406.606c0,0.496-0.486,0.893-1.072,0.893l-70.335,0.883
									c-0.586,0-1.062-0.387-1.082-0.883c-0.327-9.12-1.617-100.484,0.686-101.288c4.466-1.548,11.115-2.809,16.633-4.168
									c0.516-0.129,1.032-0.258,1.528-0.387c0.238-0.06,0.476-0.129,0.715-0.189c0.109-0.03,0.208-0.05,0.308-0.079
									c1.757-0.486,3.305-0.993,4.526-1.538c0.179-0.07,0.347-0.159,0.506-0.238c0.139-0.069,0.278-0.139,0.407-0.208
									c0.179-0.099,0.347-0.198,0.506-0.298c0.288-0.179,0.605-0.347,0.953-0.506c3.781-1.767,11.294-2.461,15.581-1.796
									c0.189,0.248,0.387,0.496,0.596,0.734c0.605,0.715,1.3,1.399,2.084,1.935c0.973,0.675,4.407,1.826,8.188,2.928
									c0.387,0.109,0.784,0.218,1.171,0.337c3.027,0.853,6.123,1.637,8.247,2.094c3.255,0.794,6.88,0.939,10.381,1.945
									C402.57,307.641,399.194,397.446,399.036,406.606z"/>
							</g>
						</g>
						<path style="fill:#B58200;" d="M394.361,379.314c0.03,0,0.06,0.01,0.079,0.01c0.139,0.01,0.278,0.03,0.407,0.05
							c0.01,0.01,0.03,0.01,0.04,0.01c0.139,0.03,0.278,0.069,0.407,0.129c0.02,0.01,0.05,0.02,0.07,0.03
							c0.089,0.05,0.179,0.089,0.258,0.149c0.05,0.03,0.099,0.069,0.139,0.109c0.03,0.03,0.05,0.04,0.079,0.069
							c0.149,0.149,0.288,0.308,0.377,0.516c0.536,1.131-3.533,4.178-10.381,3.374c-0.119-0.01-0.238-0.03-0.357-0.05
							c-1.27-0.179-7.136-0.754-8.217-0.963c-3.831-0.744-6.322-1.677-7.781-3.344c-6.868,0.834-31.688,3.354-42.943,1.667
							c-0.04-0.01-0.079-0.01-0.119-0.02c-0.913-22.558-0.05-53.552,0.149-67.505c1.479-0.804,3.235-1.34,5.339-1.489
							c4.962-0.347,7.463,1.092,9.19,2.908c1.578,1.647,2.243,3.98,1.955,6.252c-0.883,7.116-2.481,25.553-5.22,37.412
							c-0.258,0.04-2.68-0.395-2.938-0.355c-0.466,1.836-0.943,3.583-1.439,5.22c8.991,0.764,27.451,4.406,35.202,5.984
							c0.705-1.747,2.173-3.751,5.25-4.952c3.732-1.469,5.766-2.63,7.552-3.057c2.233-0.536,3.92-1.241,4.903-0.774
							c1.687,0.804,0.139,2.957-2.084,4.158c-0.248,0.139-0.506,0.278-0.764,0.417c-0.357,0.198-0.695,0.387-1.022,0.576
							c-0.397,0.228-0.784,0.447-1.121,0.635c-0.278,0.169-0.506,0.298-0.715,0.427c-0.189,0.109-0.337,0.189-0.447,0.258
							c1.151,0.119,2.193,0.179,3.116,0.308c0.139-0.03,0.278-0.06,0.427-0.069c3.196-0.119,7.83-1.201,9.259-1.747
							c1.628-0.625,3.106-0.774,3.92,0.328c0.635,0.863-1.548,3.513-6.153,4.833c1.459-0.278,2.69-0.586,3.315-0.804
							c0.248-0.089,0.486-0.159,0.725-0.228c0.089-0.02,0.179-0.04,0.268-0.06c0.149-0.04,0.298-0.06,0.447-0.089
							c0.089-0.01,0.179-0.03,0.268-0.04c0.218-0.02,0.417-0.02,0.615,0c0.05,0,0.099,0.01,0.159,0.02
							c0.169,0.02,0.327,0.06,0.476,0.109c0.03,0.01,0.05,0.01,0.079,0.02l-0.01,0.01c0.347,0.129,0.645,0.347,0.883,0.685
							c0.695,0.992-2.243,4.168-8.158,5.071c2.114-0.06,4.089-0.258,4.962-0.447c0.169-0.03,0.327-0.06,0.496-0.079
							c0.05-0.01,0.099-0.02,0.149-0.03c0.139-0.02,0.258-0.03,0.387-0.04c0.119-0.01,0.228-0.02,0.337-0.02
							c0.099-0.01,0.198-0.01,0.288-0.01c0.159,0.01,0.318,0.02,0.466,0.04c0.04,0,0.089,0.01,0.129,0.01
							c0.685,0.119,1.241,0.447,1.568,1.072C399.026,376.773,397.458,378.391,394.361,379.314z"/>
						<path style="fill:#D47B3F;" d="M379.763,302.401c0.387,0.109,0.784,0.218,1.171,0.337c-3.086,7.453-10.391,16.574-18.142,17.1
							c-8.793,0.615-14.966-11.502-18.817-17.685c-0.03-0.04-0.07-0.079-0.109-0.109c-0.03-0.03-0.07-0.06-0.109-0.089
							c0.278-0.05,0.556-0.099,0.824-0.159c0.258-0.05,0.506-0.099,0.754-0.149c0.02,0,0.03-0.01,0.05-0.01
							c0.248-0.06,0.486-0.109,0.724-0.169c0.109-0.03,0.208-0.05,0.308-0.079c1.747-0.447,3.315-0.973,4.526-1.538
							c0.179-0.07,0.347-0.159,0.506-0.238c0.139-0.069,0.278-0.139,0.407-0.208c0.179-0.099,0.347-0.198,0.506-0.298
							c0.288-0.179,0.605-0.347,0.953-0.506c3.99-1.757,11.869-1.628,16.177-1.062c0.605,0.715,1.3,1.399,2.084,1.935
							C372.548,300.148,375.981,301.299,379.763,302.401z"/>
						<path style="fill:#F2D865;" d="M379.763,302.401c0.387,0.109,0.784,0.218,1.171,0.337
							c-3.086,7.453-10.834,19.14-18.585,19.666c-8.793,0.615-14.523-14.069-18.373-20.251c-0.03-0.04-0.07-0.079-0.109-0.109
							c-0.03-0.03-0.07-0.06-0.109-0.089c0.278-0.05,0.556-0.099,0.824-0.159c0.258-0.05,0.506-0.099,0.754-0.149
							c0.02,0,0.03-0.01,0.05-0.01c0,0.01,0.01,0.01,0.01,0.02c3.88,6.461,9.617,15.909,17.397,15.353
							C369.689,316.543,376.239,309.258,379.763,302.401z"/>
					</g>
					<path style="fill:#B58200;" d="M381.043,302.47c-0.198-0.069-0.387-0.129-0.576-0.198c0.07,0.02,0.139,0.03,0.208,0.05
						C380.805,302.371,380.924,302.42,381.043,302.47z"/>
					<g>
						<g>
							<g>
								<path style="fill:#D47B3F;" d="M364.788,311.104h-5.641c-3.751,0-6.791-3.04-6.791-6.791V282.31h19.224v22.003
									C371.579,308.063,368.539,311.104,364.788,311.104z"/>
							</g>
							<path style="fill:#873621;" d="M371.577,282.31v19.381c-9.781,1.719-15.797-3.742-19.22-12.603v-6.778H371.577z"/>
						</g>
						<g>
							<g>
								<path style="fill:#873621;" d="M384.236,275.576c-0.685,3.617-1.537,9.084,2.908,8.263c4.192-0.774,6.957-4.158,7.446-8.864
									c0.489-4.706-0.951-7.377-4.76-6.778C386.355,268.744,385.07,271.336,384.236,275.576z"/>
							</g>
							<path style="fill:#D47B3F;" d="M370.784,297.003c10.507,1.05,15.082-8.017,16.565-14.685
								c1.16-5.216,2.76-15.077,3.717-21.198c0.99-6.332-1.808-12.878-7.458-15.905c-4.668-2.502-10.633-3.702-16.057-2.763
								c-11.036,1.911-15.88,9.371-16.573,24.762C350.66,274.269,347.206,293.329,370.784,297.003z"/>
							<path style="fill:#513217;" d="M389.319,271.895c-2.605-0.582-1.564-7.905-1.622-9.916c-0.004-1.995-0.85-3.24-14.894-5.637
								c-13.895-2.371-15.125,5.204-15.125,5.204s-1.966,9.594-5.63,8.086c-0.043,0.75-0.043,5.019-1.398,3.938
								c-3.654-3.354-6.858-24.933,5.425-29.442c2.092-0.738,3.867,0.014,3.867,0.014s3.593-6.282,13.271-4.279
								c9.679,2.004,21.098,5.277,18.796,21.203c-0.549,3.916-1.125,6.556-1.928,9.459
								C389.695,271.926,389.701,271.981,389.319,271.895z"/>
							<path style="fill:#513217;" d="M394.935,264.781c1.01-2.542,5.081-0.607,3.971-6.538c-0.215-1.149,1.75,0.025,1.669-3.977
								c-0.016-0.796-0.524-2.38-2.323-2.493c-2.342-0.148,2.977,0.046,2.03-5.314c-0.527-2.984-4.714-3.167-4.714-3.167
								s2.425-6.772-3.744-8.946c-6.169-2.174-7.84,2.273-7.84,2.273s2.216-5.671-4.843-7.357c-7.059-1.686-7.259,3.227-7.251,3.454
								c0.009,0.227-0.261-4.805-6.173-5.297c-5.912-0.492-6.038,4.936-5.44,5.574c0,0-2.361-5.552-9.34-1.813
								c-6.979,3.739-3.116,7.894-3.116,7.894s-4.073-3.432-6.147,1.178c-2.074,4.609,1.246,5.915,1.246,5.915
								s-2.672,0.51-2.997,3.162c-0.326,2.653,0.553,4.872,2.866,5.378c0,0-2.262,0.237-2.469,2.868
								c-0.207,2.631,1.823,3.899,1.823,3.899c2.398,1.426,10.403,3.201,12.91-3.469c2.507-6.67,21.098-6.515,29.278-2.109
								c8.18,4.406,5.58,5.85,5.149,8.864C389.048,267.774,394.935,264.781,394.935,264.781z"/>
							<g>
								<path style="fill:#D47B3F;" d="M352.091,272.215c-0.25,3.684,0.543,8.793-4.722,7.05c-4.964-1.644-7.364-5.539-6.54-10.247
									c0.824-4.708,3.422-7.017,7.964-5.624C352.657,264.578,352.345,267.89,352.091,272.215z"/>
								<g>
									<path style="fill:#873621;" d="M348.013,275.832c0.615-1.549-0.693-1.512-1.373-2.551
										c-0.662-1.012-0.465-2.233,0.342-3.053c0.327-0.337,0.612-0.626,0.584-1.725c-0.035-1.362-2.159-0.628-3.064-0.553
										c-0.023-1.468,2.095-2.2,3.337-1.795c0.507,0.165,1.37,0.683,1.413,2.302c0.049,1.675-0.5,2.38-1.069,2.956
										c-0.295,0.303-0.319,0.328-0.151,0.87c0.083,0.265,0.306,0.442,0.661,0.697c0.397,0.288,0.941,0.681,0.997,1.393
										C349.759,275.259,349.041,276.285,348.013,275.832z"/>
								</g>
							</g>
							<g>
								<path style="fill:#B03621;" d="M362.709,280.068c-0.343,1.176-1.574,1.85-2.75,1.507c-1.176-0.343-1.85-1.574-1.507-2.75
									c0.343-1.176,1.574-1.85,2.75-1.507C362.377,277.661,363.052,278.892,362.709,280.068z"/>
								<path style="fill:#B03621;" d="M382.944,286.292c-0.343,1.176-1.574,1.851-2.75,1.507c-1.176-0.343-1.85-1.574-1.507-2.75
									c0.343-1.176,1.574-1.85,2.75-1.507C382.612,283.885,383.287,285.116,382.944,286.292z"/>
								<g>
									
										<path style="fill:none;stroke:#873621;stroke-width:1.4886;stroke-linecap:round;stroke-linejoin:round;stroke-dasharray:18.5026;" d="
										M377.066,270.341c0.712,5.474,0.775,13.247-0.899,13.973c-1.424,0.618-3.365,0.007-3.728-0.967"/>
								</g>
								<path style="fill:#513217;" d="M367.238,273.94c-0.427,1.465-1.464,2.451-2.315,2.203c-0.851-0.248-1.194-1.637-0.766-3.102
									c0.427-1.465,1.464-2.451,2.315-2.203C367.323,271.086,367.666,272.475,367.238,273.94z"/>
								<path style="fill:#513217;" d="M383.935,278.065c-0.41,1.406-1.405,2.353-2.222,2.115c-0.817-0.238-1.146-1.571-0.736-2.978
									c0.41-1.406,1.405-2.353,2.222-2.115C384.016,275.325,384.345,276.658,383.935,278.065z"/>
								
									<path style="fill:none;stroke:#513217;stroke-width:3.2008;stroke-linecap:round;stroke-linejoin:round;stroke-miterlimit:10;stroke-dasharray:97.2167;" d="
									M362.981,267.673c0,0,4.613,0.015,6.855-3.309"/>
								
									<path style="fill:none;stroke:#513217;stroke-width:3.2008;stroke-linecap:round;stroke-linejoin:round;stroke-miterlimit:10;stroke-dasharray:97.2167;" d="
									M381.33,268.182c0,0,2.1,2.667,5.041,2.44"/>
								
									<path style="fill:none;stroke:#873621;stroke-width:1.4886;stroke-linecap:round;stroke-linejoin:round;stroke-miterlimit:10;stroke-dasharray:66.6791;" d="
									M362.338,284.93c1.547-0.413,5.547,0.237,5.62,3.541"/>
							</g>
						</g>
					</g>
					<g>
						<g>
							<g>
								<path style="fill:#2C2C0B;" d="M397.987,429.819c15.528-19.221,33.302-51.117,40.198-69.902
									c3.147-8.565-11.497-17.232-16.527-15.221c-10.227,4.08-31.902,21.583-51.325,52.28c-2.017,3.198-3.827,5.959-5.448,8.414
									c-3.333,5.058-5.899,8.787-8.002,12.256c-4.418,7.253-0.469,22.689,6.496,27.554c6.506,4.537,17.718,3.163,23.175-2.583
									C388.98,440.061,395.06,433.447,397.987,429.819z"/>
								<path style="fill:#2C2C0B;" d="M438.186,359.922c-3.404,9.269-10.182,21.724-18.042,34.299
									c-3.523-12.435-6.243-22.419-6.729-24.603c-1.241-5.558-3.414-16.862,2.729-22.062c0,0,0,0,0.01-0.01
									c1.191-0.724,2.302-1.35,3.335-1.866c0.476-0.169,0.992-0.318,1.528-0.437c0,0,2.293-0.466,4.903-0.486
									c3.235,0.844,7.116,3.106,9.736,6.034c1.022,1.667,2.015,3.573,2.858,5.439
									C438.722,357.441,438.643,358.681,438.186,359.922z"/>
							</g>
							<g>
								<g>
									<path style="fill:#D47B3F;" d="M417.927,346.216c-10.853,5.666-4.192,19.442-1.021,25.514
										c3.171,6.072,45.231,63.973,45.231,63.973l9.958-4.933c0,0-28.11-68.063-30.309-72.503
										c-2.199-4.44-9.792-13.201-13.698-14.192C424.181,343.082,417.927,346.216,417.927,346.216z"/>
									<path style="fill:#2C2C0B;" d="M454.039,426.864c-12.571-19.353-34.703-50.483-37.132-55.134
										c-3.171-6.073-9.832-19.848,1.021-25.514c0,0,6.254-3.133,10.16-2.141c3.906,0.992,11.499,9.753,13.698,14.193
										c1.694,3.419,18.671,39.227,27.463,61.063L454.039,426.864z"/>
								</g>
								<g>
									<path style="fill:#2C2C0B;" d="M498.409,448.77c0,0-16.477-0.08-26.34-0.128l-9.227-0.045
										c-1.836-0.009-3.55-1.006-4.436-2.634l-0.21-0.354c-1.027-1.865-0.804-4.147,0.546-5.765
										c0.758-0.914,1.163-2.066,1.169-3.243l-1.66-6.874l12.402-4.26l1.502,5.52c-0.012,2.495,2.33,4.861,5.118,7.605
										c2.764,2.744,13.217,2.489,18.642,5.034C501.34,446.148,498.409,448.77,498.409,448.77z"/>
								</g>
							</g>
						</g>
						<g>
							<g>
								<path style="fill:#4D441E;" d="M371.53,429.819c15.528-19.221,33.302-51.117,40.198-69.902
									c3.147-8.565-11.497-17.232-16.528-15.221c-10.227,4.08-31.901,21.583-51.325,52.28c-2.017,3.198-3.827,5.959-5.448,8.414
									c-3.333,5.058-5.899,8.787-8.002,12.256c-4.418,7.253-0.469,22.689,6.496,27.554c6.506,4.537,17.718,3.163,23.175-2.583
									C362.522,440.061,368.602,433.447,371.53,429.819z"/>
								<path style="fill:#2C2C0B;" d="M393.18,377.24c0.03,0,0.06,0.01,0.079,0.01c0.139,0.01,0.278,0.03,0.407,0.05
									c0.01,0.01,0.03,0.01,0.04,0.01c0.139,0.03,0.278,0.069,0.407,0.129c0.02,0.01,0.05,0.02,0.069,0.04
									c0.089,0.04,0.179,0.079,0.258,0.139c0.05,0.03,0.099,0.07,0.139,0.109c0.03,0.03,0.05,0.05,0.079,0.07
									c0.149,0.149,0.288,0.308,0.377,0.516c0.536,1.131-3.533,4.178-10.381,3.374c-0.119-0.01-0.238-0.03-0.357-0.05
									c-1.27-0.179-7.136-0.744-8.217-0.963c-3.831-0.744-6.322-1.677-7.781-3.344c-2.312,0.278-6.441,0.754-11.334,1.191
									c3.285-4.129,6.54-7.89,9.726-11.284c0.278,0.06,0.536,0.119,0.784,0.169c0.705-1.747,2.173-3.751,5.25-4.952
									c3.731-1.459,5.766-2.63,7.552-3.057c2.233-0.536,3.92-1.241,4.903-0.774c1.687,0.804,0.139,2.957-2.084,4.158
									c-1.677,0.913-3.483,1.965-4.069,2.312c1.151,0.119,2.193,0.179,3.116,0.308c0.139-0.03,0.278-0.06,0.427-0.069
									c3.196-0.109,7.83-1.201,9.259-1.747c1.628-0.625,3.106-0.774,3.92,0.327c0.635,0.863-1.548,3.513-6.153,4.843
									c1.459-0.288,2.689-0.595,3.315-0.814c0.248-0.089,0.486-0.159,0.724-0.218c0.089-0.03,0.179-0.05,0.268-0.069
									c0.149-0.03,0.298-0.06,0.447-0.079c0.089-0.02,0.179-0.04,0.268-0.04c0.218-0.02,0.417-0.03,0.615-0.01
									c0.05,0,0.099,0.01,0.159,0.02c0.169,0.02,0.328,0.059,0.476,0.119c0.03,0,0.05,0,0.079,0.01c0,0.01-0.01,0.01-0.01,0.01
									c0.347,0.139,0.645,0.347,0.883,0.685c0.695,0.992-2.243,4.178-8.158,5.071c2.114-0.06,4.089-0.248,4.962-0.437
									c0.169-0.04,0.327-0.06,0.496-0.089c0.05-0.01,0.099-0.02,0.149-0.03c0.139-0.02,0.258-0.03,0.387-0.04
									c0.119-0.01,0.228-0.02,0.337-0.02c0.099-0.01,0.198-0.01,0.288-0.01c0.159,0.01,0.318,0.02,0.466,0.04
									c0.04,0.01,0.089,0.01,0.129,0.01c0.685,0.119,1.241,0.447,1.568,1.072C397.845,374.699,396.276,376.327,393.18,377.24z"/>
								<path style="fill:#2C2C0B;" d="M412.676,361.038c-3.654,9.951-10.931,23.323-19.37,36.822
									c-3.782-13.35-6.702-24.069-7.224-26.412c-1.332-5.967-3.665-18.102,2.93-23.685c0,0,0,0,0.011-0.011
									c1.279-0.778,2.472-1.449,3.58-2.003c0.512-0.181,1.065-0.341,1.641-0.469c0,0,2.461-0.501,5.263-0.522
									c3.473,0.906,7.639,3.335,10.452,6.478c1.097,1.79,2.163,3.836,3.069,5.839
									C413.251,358.374,413.166,359.706,412.676,361.038z"/>
							</g>
							<g>
								<g>
									<path style="fill:#D47B3F;" d="M391.47,346.216c-10.853,5.666-4.192,19.442-1.021,25.514
										c3.171,6.072,45.231,63.973,45.231,63.973l9.958-4.933c0,0-28.11-68.063-30.309-72.503
										c-2.199-4.44-9.792-13.201-13.698-14.192C397.723,343.082,391.47,346.216,391.47,346.216z"/>
									<path style="fill:#4D441E;" d="M427.581,426.864c-12.571-19.353-34.703-50.483-37.132-55.134
										c-3.171-6.073-9.832-19.848,1.021-25.514c0,0,6.254-3.133,10.16-2.141c3.906,0.992,11.499,9.753,13.698,14.193
										c1.694,3.419,18.671,39.227,27.463,61.063L427.581,426.864z"/>
								</g>
								<g>
									<path style="fill:#4D441E;" d="M471.951,448.77c0,0-16.477-0.08-26.34-0.128l-9.227-0.045
										c-1.836-0.009-3.55-1.006-4.436-2.634l-0.21-0.354c-1.027-1.865-0.804-4.147,0.546-5.765
										c0.758-0.914,1.163-2.066,1.169-3.243l-1.66-6.874l12.402-4.26l1.502,5.52c-0.012,2.495,2.33,4.861,5.118,7.605
										c2.764,2.744,13.217,2.489,18.642,5.034C474.883,446.148,471.951,448.77,471.951,448.77z"/>
								</g>
							</g>
						</g>
					</g>
					<g>
						<path style="fill:#E3B900;" d="M342.028,312.083c-0.855,9.994-7.426,49.743-13.323,55.621
							c-5.897,5.879-11.958,6.347-13.856-3.19c-1.898-9.537,2.052-33.24,4.096-43.4c0.98-4.87,1.901-14.423,11.726-15.943
							C340.495,303.651,342.028,312.083,342.028,312.083z"/>
						<path style="fill:#D47B3F;" d="M317.534,358.944c-2.396,1.342-3.315,2.751-3.019,5.481c0.532,4.912,3.29,8.453,14.013,10.065
							c13.343,2.006,42.957-1.912,42.957-1.912l0.731-8.945c0,0-34.112-7.193-42.165-6.843
							C323.787,357.062,321.236,356.871,317.534,358.944z"/>
						<path style="fill:#873621;" d="M358.31,360.859c-0.977,2.442-1.571,5.017-2.092,7.613c-0.387,1.926-0.799,3.858-1.078,5.803
							c2.06-0.166,4.034-0.345,5.851-0.522v-11.879c0-0.212,0.093-0.36,0.224-0.456C360.279,361.236,359.306,361.049,358.31,360.859
							z"/>
						<path style="fill:#E3B900;" d="M360.401,365.205c0.139-1.258,0.309-2.569,0.63-3.823c-10.703-2.077-25.941-4.811-30.979-4.592
							c-6.264,0.272-8.815,0.081-12.517,2.154c-2.396,1.342-3.315,2.751-3.019,5.481c0.532,4.912,3.29,8.453,14.013,10.065
							c7.881,1.185,21.435,0.303,31.214-0.618C359.749,370.964,360.093,367.999,360.401,365.205z"/>
						<g>
							<path style="fill:#B58200;" d="M361.031,361.879c-0.031,0-0.063-0.003-0.095-0.009c-16.081-3.122-27.038-4.744-30.864-4.584
								c-0.807,0.035-1.554,0.062-2.249,0.088c-1.392,0.051-2.595,0.096-3.658,0.179c-0.281,0.024-0.512-0.181-0.534-0.456
								c-0.021-0.272,0.182-0.512,0.456-0.533c1.084-0.086,2.296-0.131,3.7-0.183c0.693-0.025,1.437-0.052,2.242-0.088
								c5.009-0.194,19.669,2.383,31.096,4.602c0.269,0.052,0.445,0.313,0.393,0.582
								C361.471,361.714,361.264,361.879,361.031,361.879z"/>
						</g>
						<g>
							<g>
								<path style="fill:#D47B3F;" d="M381.785,373.856c0.531-0.711,1.464-1.007,2.345-0.882c2.891,0.41,7.247,0.171,8.627-0.096
									c1.577-0.305,2.928-0.203,3.465,0.93c0.537,1.134-3.54,4.182-10.388,3.374C383.973,376.964,380.231,375.936,381.785,373.856
									z"/>
								<path style="fill:#873621;" d="M395.849,373.293c-0.66-0.647-1.802-0.665-3.089-0.413c-1.359,0.267-5.564,0.496-8.436,0.123
									c1.081,0.644,2.775,0.989,3.871,1.092C391.352,374.398,393.954,373.977,395.849,373.293z"/>
							</g>
							<g>
								<g>
									<path style="fill:#D47B3F;" d="M382.86,369.805c0.55-0.781,1.557-1.122,2.525-1.007c3.175,0.379,7.924,0.022,9.42-0.298
										c1.71-0.366,3.191-0.286,3.824,0.928c0.634,1.214-3.693,4.604-11.207,3.885C385.38,373.118,381.25,372.091,382.86,369.805z
										"/>
								</g>
								<path style="fill:#873621;" d="M390.545,370.142c2.949-0.11,5.338-0.764,7.096-1.61c-0.744-0.32-1.739-0.271-2.835-0.038
									c-1.477,0.319-6.075,0.659-9.245,0.321C386.359,369.938,389.034,370.186,390.545,370.142z"/>
							</g>
							<g>
								<g>
									<path style="fill:#D47B3F;" d="M382.416,366.277c0.445-0.846,1.399-1.314,2.373-1.325c3.197-0.035,7.86-1.003,9.302-1.514
										c1.648-0.584,3.127-0.696,3.912,0.426c0.785,1.122-3.066,5.043-10.611,5.302
										C385.343,369.237,381.115,368.751,382.416,366.277z"/>
								</g>
								<path style="fill:#873621;" d="M397.129,363.172c-0.817-0.33-1.891-0.146-3.04,0.269c-1.434,0.51-6.104,1.477-9.297,1.512
									c-0.24,0.009-0.479,0.03-0.705,0.098c1.122,0.45,2.629,0.622,3.626,0.633C392.157,365.735,395.376,364.462,397.129,363.172z
									"/>
							</g>
							<g>
								<path style="fill:#D47B3F;" d="M381.412,362.215c0.423-0.857,1.365-1.349,2.339-1.385c3.196-0.117,7.832-1.203,9.261-1.751
									c1.633-0.626,3.108-0.776,3.922,0.326c0.814,1.102-2.936,5.12-10.472,5.571
									C384.414,365.098,380.174,364.721,381.412,362.215z"/>
							</g>
							<path style="fill:#D47B3F;" d="M386.357,354.121c1.694,0.805,0.147,2.954-2.074,4.155c-2.046,1.106-4.285,2.439-4.285,2.439
								l-5.764,1.607l-6.221,3.999c0,0-0.444-5.886,5.891-8.371c3.735-1.465,5.767-2.632,7.551-3.059
								C383.688,354.358,385.375,353.654,386.357,354.121z"/>
							<path style="fill:#873621;" d="M377.662,359.797c0.884-0.389,1.931-0.457,2.853-0.673c0.695-0.162,1.382-0.368,2.052-0.62
								c0.911-0.232,1.823-0.498,2.683-0.85c-0.302,0.223-0.622,0.435-0.967,0.622c-2.046,1.106-4.285,2.439-4.285,2.439
								l-0.662,0.185C378.78,360.528,378.142,360.254,377.662,359.797z"/>
							<path style="fill:#D47B3F;" d="M377.259,376.173c-6.35-1.242-9.036-2.963-9.397-7.755c-0.362-4.792,4.32-9.653,8.964-8.418
								c3.389,0.902,6.18,0.543,8.153,1.286c1.687,0.636,1.553,3.548,1.716,5.711c0.279,3.692,1.073,10.466-1.219,10.137
								C384.21,376.953,378.342,376.385,377.259,376.173z"/>
						</g>
					</g>
					<g>
						<g>
							<path style="fill:#D47B3F;" d="M443,367.269c1.795-0.19,6.093-0.878,4.145-3.808c-0.818-1.23-2.269-1.256-3.715-0.836
								c-0.811,0.041-1.613,0.194-2.394,0.414c-0.852,0.24-2.666,0.74-3.068,1.715C436.749,367.711,441.52,367.426,443,367.269z"/>
							<path style="fill:#873621;" d="M442.654,364.048c-0.951,0.298-3.165,0.887-4.617,0.578c0.482-0.897,2.191-1.362,2.995-1.58
								c0.785-0.228,1.595-0.378,2.392-0.419c0.913-0.269,1.824-0.346,2.563-0.074C444.957,363.292,443.534,363.773,442.654,364.048
								z"/>
						</g>
						<g>
							<path style="fill:#D47B3F;" d="M442.514,363.23c1.93-0.598,6.51-2.288,3.852-5.147c-1.116-1.2-2.708-0.919-4.216-0.139
								c-0.88,0.22-1.73,0.563-2.545,0.976c-0.889,0.451-2.785,1.399-3.05,2.576C435.752,365.063,440.922,363.723,442.514,363.23z"
								/>
							<path style="fill:#873621;" d="M441.018,358.974c-0.544,0.153-1.467,0.39-2.443,0.505c0.391-0.244,0.754-0.427,1.023-0.563
								c0.821-0.413,1.667-0.747,2.547-0.971c0.887-0.451,1.795-0.736,2.613-0.662C443.686,358.139,442.007,358.699,441.018,358.974
								z"/>
						</g>
						<g>
							<path style="fill:#D47B3F;" d="M440.923,358.467c1.944-0.548,6.565-2.122,3.964-5.042c-1.092-1.226-2.692-0.985-4.217-0.244
								c-0.886,0.198-1.744,0.519-2.568,0.911c-0.899,0.428-2.817,1.328-3.107,2.495
								C434.115,360.129,439.318,358.92,440.923,358.467z"/>
							<path style="fill:#873621;" d="M436.203,355.138c0.65-0.463,1.409-0.823,1.9-1.046c0.826-0.397,1.676-0.716,2.567-0.908
								c0.703-0.341,1.441-0.572,2.115-0.61c-0.968,0.841-1.855,1.62-2.72,1.943C439.38,354.766,437.456,355.059,436.203,355.138z"
								/>
						</g>
						<path style="fill:#D47B3F;" d="M439.423,353.988c1.817-0.679,6.113-2.561,3.408-5.303c-1.135-1.151-2.647-0.803-4.048,0.04
							c-0.831,0.257-1.628,0.635-2.385,1.083c-0.827,0.488-2.592,1.516-2.781,2.702
							C433.043,356.106,437.924,354.548,439.423,353.988z"/>
					</g>
				</g>
			</g>
			<g>
				<g>
					<g>
						<path style="fill:#FCCCA6;" d="M153.181,312.804l-3.47,114.106h-13.254c0,0-14.468-76.822-14.471-83.422
							c-0.003-6.438,4.738-23.6,8.001-32.347c1.673-4.484,7.481-5.386,10.749-5.495C144.59,305.518,153.259,306.881,153.181,312.804
							z"/>
						<path style="fill:#ECA06E;" d="M150.143,412.489l-0.089,3.096h-15.71c-0.179-0.983-0.377-2.015-0.576-3.096H150.143z"/>
						<path style="fill:#24160A;" d="M118.559,233.545c-0.333,21.299,0.694,62.724,12.578,82.13c0,0,2.642,7.428,10.321,7.445
							c8.3,0.018,9.477-3.49,10.96-7.445l0,0c0,0,7.448-20.068,3.046-59.989c-1.797-16.298-2.141-19.794-3.259-25.463
							c-1.577-7.998-12.508-12.78-20.479-11.68l0,0C124.286,219.568,118.678,225.933,118.559,233.545z"/>
						<path style="fill:#24160A;" d="M151.142,412.484l2.039-99.681c0.078-5.923-8.59-7.286-12.444-7.158
							c-3.268,0.108-9.077,1.011-10.749,5.495c-3.263,8.747-8.005,25.91-8.001,32.347c0.002,4.782,5.611,46.415,9.795,68.997
							H151.142z"/>
						<path style="fill:#24160A;" d="M178.287,448.77c0,0-17.876,0-28.576,0H139.7c-1.992,0-3.856-1.072-4.827-2.835l-0.23-0.383
							c-1.124-2.017-0.894-4.495,0.562-6.257c0.817-0.996,1.251-2.247,1.251-3.524v-8.861h13.254v2.707
							c0,2.707,2.554,5.261,5.593,8.223c3.013,2.962,14.352,2.63,20.251,5.363C181.454,445.91,178.287,448.77,178.287,448.77z"/>
					</g>
					<g>
						<path style="fill:#FCCCA6;" d="M93.841,305.642c13.407,0.284,13.567,17.043,13.407,24.545
							c-0.16,7.502-10.8,97.787-10.8,97.787H83.573c0,0-7.289-93.478-7.289-98.904s3.192-17.716,6.544-20.59
							C86.18,305.607,93.841,305.642,93.841,305.642z"/>
						<path style="fill:#ECA06E;" d="M97.899,415.586c2.917-25.004,9.227-79.635,9.349-85.399c0.16-7.502,0-24.261-13.407-24.545
							c0,0-7.661-0.035-11.013,2.838c-3.352,2.873-6.544,15.163-6.544,20.59c0,4.192,4.349,60.917,6.328,86.516H97.899z"/>
						<path style="fill:#24160A;" d="M119.858,235.22c0.177,21.007-7.015,67.21-15.786,87.96
							c-3.367,7.965-19.098,4.489-21.281-0.158c-4.431-9.434-8.101-35.551-1.678-69.341c2.04-10.733,2.897-17.402,4.056-22.984
							c1.636-7.876,12.371-13.398,20.333-12.255l0,0C112.934,219.51,119.794,227.712,119.858,235.22z"/>
						<path style="fill:#24160A;" d="M100.246,412.484c3.045-26.148,6.885-76.762,7.003-82.297c0.16-7.502,0-24.261-13.407-24.545
							c0,0-7.661-0.035-11.013,2.838c-3.352,2.873-6.544,15.163-6.544,20.59c0,4.03,2.034,56.612,4.104,83.415H100.246z"/>
						<path style="fill:#24160A;" d="M89.745,427.974h6.704c0,0,1.809,8.513,3.724,13.088c1.158,2.765,1.46,5.004,1.518,6.342
							c0.033,0.751-0.589,1.366-1.34,1.366H76.536c-0.731,0-1.325-0.576-1.342-1.307c-0.04-1.761,0.134-4.885,1.676-6.72
							c2.235-2.66,6.704-11.385,6.704-12.769H89.745z"/>
					</g>
					<g>
						<path style="fill:#FCCCA6;" d="M150.052,135.783c7.661,7.874,35.859,41.818,36.497,50.915
							c0.638,9.098-3.32,14.452-12.577,9.185c-9.257-5.267-26.049-25.534-32.995-34.512c-3.33-4.303-9.534-12.214-3.747-21.438
							C143.017,130.709,150.052,135.783,150.052,135.783z"/>
						<path style="fill:#ECA06E;" d="M164.222,187.941c1.329-1.772,2.639-3.558,3.886-5.389c2.944-4.321,6.938-9.434,8.02-14.743
							c-9.045-12.665-21.393-27.213-26.076-32.026c0,0-7.035-5.075-12.822,4.15c-5.787,9.225,0.417,17.135,3.747,21.439
							C145.868,167.692,155.636,179.603,164.222,187.941z"/>
						<path style="fill:#132A80;" d="M161.572,188.624c4.655-7.402,9.688-15.693,14.256-23.154
							c-8.888-12.201-20.3-26.099-24.757-30.68c0,0-8.053-4.082-13.84,5.142c-5.787,9.225,2.873,22.664,2.873,22.664
							C141.839,167.689,152.376,180.141,161.572,188.624z"/>
						<path style="fill:#132060;" d="M142.684,134.8c-1.839,0.851-3.745,2.409-5.454,5.133c-5.787,9.225,2.873,22.665,2.873,22.665
							c1.736,5.091,12.272,17.544,21.468,26.027c1.966-3.127,4.001-6.415,6.039-9.729
							C158.087,164.925,149.691,150.192,142.684,134.8z"/>
						<path style="fill:#FCCCA6;" d="M176.962,180.405c-2.943,0.618-4.365,1.79-4.95,4.74c-1.052,5.308,0.671,9.913,11.352,15.108
							c13.29,6.464,46.608,9.927,46.608,9.927l2.61-7.725c0,0-33.3-17.933-41.832-20.204
							C184.115,180.484,181.511,179.45,176.962,180.405z"/>
						<g>
							<path style="fill:#FCCCA6;" d="M233.661,199.768c4.811-2.893,10.509-0.443,12.521-1.42c2.708-1.317,5.709,0.909,3.159,4.132
								c-2.564,3.24-4.293,1.965-4.299,1.96c0.571,0.423,1.299,0.672,1.88,1.112c0.937,0.71,2.006,1.258,3.064,1.8
								c2.234,1.145,5.411,2.295,7.776,3.137c0.871,0.31,1.932,0.865,1.836,1.784c-0.072,0.69-0.792,1.109-1.453,1.322
								c-1.92,0.617-4.023,0.446-5.959-0.12c-1.951-0.57-4.493-1.884-6.372-2.553c-0.437,1.598-2.297,1.862-2.712,3.322
								c-0.453,1.582-2.554,1.561-2.962,2.792c-0.408,1.231-1.479,3.322-4.673,2.091c-3.193-1.231-5.408-1.721-7.851-4.532
								c-1.82-2.094-3.783-5.941-3.783-5.941s1.621-5.123,4.74-7.912C229.436,199.972,232.781,200.297,233.661,199.768z"/>
							<path style="fill:#ECA06E;" d="M249.34,202.479c-1.646,2.082-2.951,2.301-3.674,2.186c-0.934-0.288-1.807-0.878-2.803-0.95
								c-1.18-0.085-2.387-0.015-3.567,0.025c-0.402,0.014-2.557,0.11-2.605-0.546c-0.027-0.365,0.625-0.417,0.869-0.451
								c0.982-0.139,1.999-0.061,2.981-0.02c0.771,0.032,1.54,0.096,2.305,0.194c0.54,0.069,1.044,0.291,1.581,0.3
								c2.326,0.04,4.499-1.026,5.765-2.998C250.251,200.862,250.017,201.625,249.34,202.479z"/>
							<g>
								<path style="fill:#FCCCA6;" d="M236.679,206.403c0.104,0.032,0.21,0.072,0.321,0.119c1.916,0.817,3.831,1.635,5.747,2.452
									c1.464,0.625,3.968,1.151,2.376,3.143c-1.254,1.568-1.568,0.547-2.021,2.129c-0.453,1.582-2.554,1.561-2.962,2.792
									c-0.408,1.231-1.479,3.322-4.673,2.091c-1.294-0.499-2.597-0.772-3.785-1.149c-0.614-1.51-0.89-2.919-0.304-4.854
									c0.528-1.745-0.027-1.826,1.793-3.351c0.619-0.519,0.605-0.52,0.812-1.299C234.374,206.997,235.168,205.931,236.679,206.403
									z"/>
								<path style="fill:#ECA06E;" d="M231.776,210.867c0.082-0.328,0.221-0.626,0.645-0.927c0.438-0.311,0.989-0.482,1.523-0.518
									c0,0,0.376,1.206,2.618,2.257c2.242,1.051,4.112,0.65,4.112,0.65s-1.883-0.536-4.177-1.83
									c-2.294-1.294-2.391-1.993-2.281-3.057c0.11-1.064,1.394-1.987,2.648-0.921c1.255,1.066,8.916,4.284,8.536,3.638
									c-0.196-0.332-3.721-1.849-4.045-2.02c-1.011-0.534-2.112-1.097-2.973-1.856c-1.155-1.019-3.493-1.886-4.497-0.025
									c-0.875,1.623-0.404,2.442-0.402,2.445c0.053,0.092-2.509,0.9-2.71,0.933c-1.253,0.203-2.541,0.194-3.791-0.034
									c-0.117,0.146-0.066,0.375,0.064,0.51c0.13,0.135,0.316,0.197,0.496,0.25c0.538,0.157,1.09,0.268,1.648,0.329
									c0.446,0.049,1.182-0.098,1.582,0.072c0.436,0.186,0.523,0.715,0.764,1.067
									C231.676,211.469,231.703,211.156,231.776,210.867z"/>
								<path style="fill:#ECA06E;" d="M231.011,214.899c-0.471,1.446,0.274,2.643,2.783,3.657
									c-0.892-0.361-1.963-0.431-2.817-0.869c-0.852-0.438-0.888-1.811-0.902-2.656c-0.017-1.081,0.747-2.027,0.728-3.11
									c-0.01-0.584-0.018-1.023,0.376-1.503c0.114,0.725,0.221,1.436,0.693,2.027c0.381,0.477,0.833,0.902,1.324,1.263
									c0.553,0.407,1.169,0.742,1.829,0.938c0.447,0.133,1.638,0.432,2.055,0.11c-0.003,0.002-1.361,1.049-4.884-0.776
									C232.197,213.98,231.483,213.45,231.011,214.899z"/>
							</g>
						</g>
					</g>
					<path style="fill:#132A80;" d="M81.414,240.297h73.844c0.64,0,1.145-0.508,1.121-1.154
						c-0.431-11.617-3.812-101.681-5.308-103.928c-1.587-2.384-22.167-13.068-24.784-13.884c-2.614-0.815-16.964-1.527-21.008,1.02
						c-4.058,2.555-20.289,10.437-21.87,12.407c-1.49,1.856-2.872,92.833-3.115,104.403C80.28,239.8,80.781,240.297,81.414,240.297z
						"/>
					<path style="fill:#132060;" d="M99.142,166.583c0.119,5.379-5.508,20.692-11.234,31.818c-0.625-0.496-1.28-0.943-1.945-1.38
						c-0.208,0.447-0.417,0.893-0.625,1.33c-0.03,0.07-0.069,0.149-0.099,0.218c-0.328,0.675-0.655,1.34-0.973,1.975
						c-1.132,2.243-2.263,4.268-3.364,5.984c0.437-22.895,1.082-51.279,1.796-64.449c0.754-0.476,1.509-0.834,2.193-1.052
						c2.62-0.834,7.622-1.499,11.949,1.856C105.444,149.553,99.142,166.583,99.142,166.583z"/>
					<g>
						<g>
							<path style="fill:#FCCCA6;" d="M99.537,126.066c3.436,5.779,9.029,17.419,17.406,16.818
								c7.91-0.568,15.134-10.605,17.411-17.787c-3.861-1.932-7.129-3.454-8.069-3.737c-2.614-0.788-16.964-1.477-21.008,0.986
								c-1.21,0.737-3.63,1.919-6.223,3.327C99.165,125.775,99.449,125.917,99.537,126.066z"/>
							<g>
								<path style="fill:#FCCCA6;" d="M118.922,134.719h-6.179c-4.108,0-7.438-3.33-7.438-7.438v-24.1h21.056v24.1
									C126.36,131.389,123.03,134.719,118.922,134.719z"/>
							</g>
							<path style="fill:#ECA06E;" d="M126.357,103.182v21.228c-10.713,1.882-17.302-4.098-21.052-13.804v-7.424H126.357z"/>
						</g>
						<g>
							<g>
								<path style="fill:#ECA06E;" d="M136.854,89.42c0.388,4.001,1.167,9.99,5.575,7.77c4.156-2.093,6.019-6.485,5.092-11.567
									c-0.926-5.082-3.252-7.44-7.061-5.647C136.986,81.612,136.432,84.722,136.854,89.42z"/>
							</g>
							<path style="fill:#FCCCA6;" d="M129.309,115.99c11.332-2.113,13.354-13.015,12.869-20.455
								c-0.38-5.821-1.718-16.645-2.587-23.352c-0.899-6.939-5.833-12.943-12.68-14.388c-5.657-1.194-12.276-0.628-17.673,2.015
								c-10.981,5.378-13.776,14.678-9.796,31.019C101.267,98.319,103.476,119.351,129.309,115.99z"/>
							<path style="fill:#8B5417;" d="M136.322,74.113c0.162,0.502,1.66,6.258,2.337,6.545c0.828,0.35,1.595,0.424,2.355,0.374
								c-0.134-1.761-0.123-6.938-0.451-9.193c-2.458-17.394-15.427-17.332-26.183-16.472c-10.756,0.861-12.6,8.543-12.6,8.543
								s-2.089-0.246-4.056,1.168c-11.493,8.482-1.537,30.117,3.319,32.514c1.751,0.718,0.445-3.756,0.261-4.555
								c4.3,0.46,3.427-10.196,3.427-10.196s-1.028-8.315,14.259-10.08C134.441,70.978,135.708,72.023,136.322,74.113z"/>
							<g>
								<path style="fill:#FCCCA6;" d="M102.139,95.729c0.864,3.937,3.258,9.049-2.792,8.832c-5.704-0.205-9.411-3.553-9.988-8.739
									c-0.576-5.186,1.441-8.401,6.626-8.33C100.396,87.553,101.082,91.119,102.139,95.729z"/>
								<g>
									<path style="fill:#ECA06E;" d="M98.971,100.767c0.171-1.812-1.189-1.372-2.219-2.253c-1.003-0.858-1.17-2.198-0.575-3.304
										c0.24-0.453,0.45-0.843,0.084-1.987c-0.453-1.416-2.455,0.002-3.38,0.357c-0.473-1.531,1.523-2.946,2.948-2.902
										c0.582,0.018,1.645,0.297,2.185,1.981c0.564,1.741,0.204,2.647-0.216,3.424c-0.216,0.408-0.234,0.441,0.108,0.957
										c0.168,0.252,0.456,0.369,0.906,0.528c0.504,0.18,1.194,0.426,1.471,1.155C100.626,99.632,100.186,100.927,98.971,100.767z
										"/>
								</g>
							</g>
							<g>
								<path style="fill:#F98495;" d="M115.063,100.924c0,1.337-1.084,2.42-2.42,2.42c-1.337,0-2.42-1.083-2.42-2.42
									s1.084-2.42,2.42-2.42C113.98,98.504,115.063,99.588,115.063,100.924z"/>
								<path style="fill:#F98495;" d="M138.168,101.258c0,1.337-1.083,2.42-2.42,2.42c-1.337,0-2.42-1.083-2.42-2.42
									s1.084-2.42,2.42-2.42C137.084,98.838,138.168,99.922,138.168,101.258z"/>
								<g>
									
										<path style="fill:none;stroke:#ECA06E;stroke-width:1.4886;stroke-linecap:round;stroke-linejoin:round;stroke-dasharray:20.1951;" d="
										M127.132,86.343c2.42,5.518,4.862,13.643,3.33,14.916c-1.303,1.083-3.524,1.036-4.202,0.127"/>
								</g>
								<path style="fill:#513217;" d="M117.935,93.119c0,1.666-0.784,3.016-1.752,3.016s-1.752-1.35-1.752-3.016
									c0-1.666,0.784-3.016,1.752-3.016S117.935,91.453,117.935,93.119z"/>
								<ellipse style="fill:#513217;" cx="135.009" cy="92.336" rx="1.681" ry="2.895"/>
								
									<path style="fill:none;stroke:#ECA06E;stroke-width:1.4886;stroke-linecap:round;stroke-linejoin:round;stroke-miterlimit:10;stroke-dasharray:66.6791;" d="
									M116.161,106.132c1.494-0.905,5.884-1.448,6.97,1.991"/>
								
									<path style="fill:none;stroke:#513217;stroke-width:3.2008;stroke-linecap:round;stroke-linejoin:round;stroke-miterlimit:10;stroke-dasharray:97.2167;" d="
									M113.571,84.003c1.254-0.226,2.956,0.109,3.906,1.025c0.874,0.844,1.147,2.122,2.674,1.971"/>
								
									<path style="fill:none;stroke:#513217;stroke-width:3.2008;stroke-linecap:round;stroke-linejoin:round;stroke-miterlimit:10;stroke-dasharray:97.2167;" d="
									M137.189,84.295c-1.11-0.169-2.601,0.168-3.416,0.999c-0.75,0.765-0.959,1.897-2.308,1.802"/>
							</g>
						</g>
					</g>
					<g>
						<path style="fill:#FCCCA6;" d="M86.621,134.448c-2.106,0.348-3.916,1.655-5.174,3.38
							c-7.897,10.831-29.566,44.677-29.156,53.333c0.432,9.11,4.99,13.963,13.567,7.648c8.576-6.316,22.878-28.41,28.725-38.14
							c2.803-4.664,8.037-13.247,1.209-21.73C92.377,134.697,89.072,134.042,86.621,134.448z"/>
						<path style="fill:#ECA06E;" d="M95.791,138.939c-3.414-4.242-6.719-4.896-9.17-4.491c-2.106,0.348-3.916,1.655-5.174,3.38
							c-5.379,7.378-17.144,25.43-23.972,38.929c3.046,3.021,9.413,8.768,9.413,8.768s3.659,3.589,5.61,5.25
							c0.25,0.212,0.515,0.415,0.775,0.62c7.884-9.337,16.948-23.47,21.309-30.727C97.385,156.005,102.619,147.422,95.791,138.939z"
							/>
						<path style="fill:#132A80;" d="M77.323,190.146c-5.49-6.806-13.734-10.445-19.144-17.319
							c6.513-11.586,17.089-28.712,21.635-35.145c1.453-2.055,5.307-3.871,7.817-4.055c2.739-0.201,7.767,0.302,11.198,4.565
							c6.828,8.483-3.236,23.591-3.236,23.591C94.467,167.043,85.461,180.644,77.323,190.146z"/>
						<path style="fill:#FCCCA6;" d="M63.903,185.969c-2.432-1.77-4.255-2.038-6.836-0.494c-4.643,2.779-6.904,7.144-3.598,18.552
							c4.114,14.194,23.884,41.236,23.884,41.236l6.924-2.739c0,0-8.464-37.234-12.5-45.087
							C68.639,191.329,67.661,188.704,63.903,185.969z"/>
						<g>
							<g>
								<path style="fill:#FCCCA6;" d="M76.899,249.856c0.917,0.248,1.58,1.059,1.803,1.985c0.733,3.039,2.692,7.279,3.503,8.547
									c0.927,1.449,1.359,2.834,0.442,3.816c-0.916,0.982-5.56-1.871-7.461-9.005C74.67,253.261,74.216,249.132,76.899,249.856z"
									/>
								<path style="fill:#ECA06E;" d="M83.014,263.631c0.383-0.913-0.05-2.056-0.809-3.237c-0.802-1.247-2.691-5.342-3.454-8.347
									c-0.214,1.33,0.112,3.152,0.442,4.283C80.138,259.592,81.585,262.015,83.014,263.631z"/>
							</g>
							<g>
								<g>
									<path style="fill:#FCCCA6;" d="M81.355,249.326c0.995,0.239,1.732,1.106,1.999,2.115c0.877,3.309,3.108,7.894,4.017,9.257
										c1.04,1.557,1.545,3.062,0.586,4.172c-0.958,1.11-6.04-1.856-8.293-9.619C79.053,253.143,78.445,248.627,81.355,249.326z"
										/>
								</g>
								<path style="fill:#ECA06E;" d="M84.055,257.108c1.274,2.892,2.869,5.011,4.404,6.426c0.025-0.867-0.417-1.838-1.081-2.836
									c-0.901-1.344-3.055-5.785-3.971-9.074C82.605,252.861,83.414,255.621,84.055,257.108z"/>
							</g>
							<g>
								<g>
									<path style="fill:#FCCCA6;" d="M84.691,247.491c1.018,0.109,1.86,0.873,2.256,1.839c1.298,3.168,4.103,7.426,5.181,8.659
										c1.232,1.41,1.928,2.837,1.121,4.062c-0.807,1.225-6.23-1.06-9.467-8.466C82.902,251.573,81.715,247.174,84.691,247.491z"
										/>
								</g>
								<path style="fill:#ECA06E;" d="M93.591,260.907c0.006-0.943-0.602-1.939-1.469-2.919c-1.074-1.225-3.881-5.492-5.177-8.655
									c-0.104-0.235-0.219-0.465-0.376-0.663c-0.005,1.294,0.419,2.862,0.802,3.858C89.077,256.972,91.615,259.672,93.591,260.907
									z"/>
							</g>
							<g>
								<path style="fill:#FCCCA6;" d="M88.337,244.888c1.02,0.082,1.882,0.826,2.302,1.781c1.378,3.134,4.291,7.319,5.4,8.524
									c1.268,1.378,1.999,2.787,1.224,4.032c-0.775,1.245-6.255-0.9-9.68-8.221C86.653,249.014,85.354,244.646,88.337,244.888z"/>
							</g>
							<path style="fill:#FCCCA6;" d="M98.345,246.613c-0.133,2.003-2.882,1.313-4.954-0.424c-1.909-1.599-4.12-3.301-4.12-3.301
								l-3.876-5.101l-6.437-4.612c0,0,5.682-2.767,10.657,2.557c2.933,3.139,4.897,4.7,6.026,6.306
								C97.054,244.05,98.422,245.451,98.345,246.613z"/>
							<path style="fill:#ECA06E;" d="M89.262,240.201c0.736,0.726,1.218,1.742,1.796,2.574c0.436,0.628,0.912,1.231,1.427,1.797
								c0.591,0.816,1.216,1.617,1.905,2.335c-0.341-0.212-0.679-0.448-1-0.717c-1.909-1.599-4.12-3.301-4.12-3.301l-0.445-0.586
								C88.976,241.602,88.997,240.86,89.262,240.201z"/>
							<path style="fill:#FCCCA6;" d="M72.806,246.268c-1.272-6.81-0.62-10.162,4.006-12.415c4.626-2.252,11.313,0.486,11.917,5.596
								c0.441,3.729,1.901,6.365,1.94,8.622c0.034,1.93-2.917,2.947-5.005,3.963c-3.564,1.736-9.992,5.201-10.57,2.79
								C74.775,253.493,73.023,247.429,72.806,246.268z"/>
						</g>
					</g>
				</g>
			</g>
			<g>
				<g>
					<path style="fill:#DBA930;" d="M487.126,153.584c-2.745-4.028-0.287-11.012,0.284-15.394c0.429-3.293,0.877-6.65,2.317-9.642
						c0.986-2.048,2.445-3.967,2.65-6.231c0.193-2.13-0.767-4.186-1.007-6.311c-0.367-3.262,0.965-6.439,2.014-9.55
						c1.376-4.082,0.614-7.321,0.61-11.382c-0.004-3.487,0.405-7.005,0.516-10.495c0.549-17.317,8.683-24.042,24.84-23.591
						c9.818,0.274,19.199,3.762,22.938,13.508c1.837,4.789,1.51,9.366,1.988,14.281c0.561,5.762,6.598,9.478,6.681,15.364
						c0.06,4.206-3.344,7.94-3.048,12.136c0.34,4.817,5.323,8.079,6.522,12.757c0.79,3.081-0.172,6.298-0.582,9.452
						c-0.57,4.382-0.027,8.865,1.497,13.007c1.707,4.642,0.154,2.997-3.611,4.046c-4.299,1.198-8.416,4.07-12.659,5.618
						c-11.806,4.306-25.186,6.225-37.25,1.795c-4.599-1.034-11.286-5.261-14.342-8.896
						C487.356,153.905,487.237,153.747,487.126,153.584z"/>
					<g>
						<g>
							<path style="fill:#FCCCA6;" d="M459.407,448.77c0,0,17.612,0,28.155,0h9.863c1.963,0,3.799-1.057,4.755-2.793l0.227-0.378
								c1.107-1.988,0.88-4.428-0.554-6.164c-0.805-0.981-1.233-2.214-1.233-3.472v-8.731h-13.058v2.667
								c0,2.667-2.516,5.183-5.51,8.102c-2.969,2.918-14.14,2.591-19.952,5.284C456.287,445.952,459.407,448.77,459.407,448.77z"/>
						</g>
						<path style="fill:#24160A;" d="M461.976,443.269c3.754-1.739,9.727-2.224,14.307-3.13c1.303,0.449,2.719,0.56,4.115,0.549
							c2.837-0.023,5.721,0.033,8.55-0.177c2.791-0.207,5.646-0.605,8.203-1.819c1.627-0.772,2.564-1.556,3.478-2.58
							c0.041,1.196,0.453,2.36,1.221,3.295c1.439,1.741,1.666,4.189,0.555,6.183l-0.227,0.379c-0.959,1.741-2.801,2.801-4.77,2.801
							h-9.893c-10.574,0-28.239,0-28.239,0S456.147,445.944,461.976,443.269z"/>
						<path style="fill:#36210F;" d="M484.108,314.811l3.419,112.422h13.058c0,0,14.255-75.688,14.258-82.191
							c0.003-6.343-4.668-23.251-7.883-31.87c-1.648-4.418-7.371-5.307-10.59-5.413
							C492.572,307.632,484.031,308.975,484.108,314.811z"/>
						<path style="fill:#36210F;" d="M518.219,236.722c0.328,20.984-0.683,61.798-12.392,80.917c0,0-2.603,7.318-10.169,7.335
							c-8.177,0.018-9.337-3.439-10.798-7.335l0,0c0,0-7.189-20.59-4.372-62.183c1.092-16.118,5.509-18.093,9.521-22.786
							c3.027-3.542,10.653-12.84,18.073-10.049C512.145,224.15,518.102,229.222,518.219,236.722z"/>
						<path style="fill:#24160A;" d="M481.037,250.05c11.159,7.266,23.953,11.011,36.799,11.212
							c0.011-0.138,0.011-0.286,0.021-0.424c-0.658-8.73-0.955-16.601-0.902-22.467c0.011-1.782,0.255-3.596,0.7-5.346
							c-1.581-5.463-6.216-9.144-9.579-10.406c-7.415-2.79-15.042,6.513-18.065,10.056C486.5,236.779,482.67,238.805,481.037,250.05
							z"/>
					</g>
					<g>
						<path style="fill:#36210F;" d="M539.67,307.755c-13.209,0.28-13.367,16.792-13.209,24.183
							c0.157,7.391,10.641,96.344,10.641,96.344h12.685c0,0,7.181-92.098,7.181-97.445c0-5.347-3.145-17.455-6.447-20.286
							C547.218,307.72,539.67,307.755,539.67,307.755z"/>
						<path style="fill:#FCCCA6;" d="M543.796,428.281h-6.605c0,0-1.782,8.387-3.669,12.895c-1.141,2.725-1.438,4.93-1.496,6.248
							c-0.032,0.74,0.58,1.346,1.321,1.346h23.463c0.72,0,1.305-0.568,1.322-1.287c0.04-1.735-0.132-4.813-1.651-6.621
							c-2.202-2.621-6.605-11.217-6.605-12.58H543.796z"/>
						<path style="fill:#24160A;" d="M533.538,441.181c0.561-1.339,1.111-3.022,1.609-4.725c2.249,2.022,4.996,3.5,8.102,3.527
							c3.947,0.034,7.652-0.598,10.335-3.61c1.046,1.858,2.113,3.558,2.898,4.494c1.518,1.807,1.689,4.883,1.65,6.617
							c-0.016,0.719-0.601,1.287-1.321,1.287h-23.448c-0.74,0-1.352-0.606-1.32-1.345
							C532.1,446.107,532.398,443.903,533.538,441.181z"/>
						<path style="fill:#36210F;" d="M516.95,238.372c-0.174,20.697,4,66.218,12.641,86.662c3.317,7.847,18.816,4.422,20.966-0.156
							c4.366-9.295,8.284-41.724,6.41-68.064c-0.764-10.737-2.521-16.877-5.232-21.343c-4.112-6.775-15.71-14.755-23.555-13.629l0,0
							C520.859,222.893,517.012,230.975,516.95,238.372z"/>
						<path style="fill:#24160A;" d="M517.857,260.838c0.011,0.138,0.021,0.286,0.032,0.424
							c13.355,0.212,26.764-3.405,38.432-10.862c-0.933-6.927-2.472-11.435-4.582-14.925c-4.116-6.778-15.71-14.756-23.56-13.631
							c-3.66,0.53-6.45,2.811-8.338,5.887c-0.976,1.591-1.708,3.405-2.185,5.293c0.34,1.156,0.541,2.397,0.562,3.702
							C518.324,243.26,518.292,251.715,517.857,260.838z"/>
					</g>
					<g>
						<path style="fill:#FCCCA6;" d="M489.713,140.625c-1.969,0.739-3.469,2.348-4.355,4.255
							c-5.563,11.978-20.04,48.831-17.99,57.119c2.158,8.722,3.857,9.858,10.94,2.115c7.083-7.743,16.684-31.831,20.476-42.352
							c1.818-5.043,3.854-14.58,0.65-18.549C496.066,139.039,492.005,139.765,489.713,140.625z"/>
						<path style="fill:#ECA06E;" d="M499.435,143.213c-3.369-4.174-7.43-3.449-9.722-2.588c-1.969,0.739-3.469,2.348-4.355,4.255
							c-3.594,7.737-10.902,25.849-15.077,39.941c2.44,2.041,4.515,4.471,7.137,6.342c2.153,1.537,4.474,2.815,6.809,4.063
							c5.784-10.521,11.756-25.691,14.557-33.464C500.602,156.719,502.638,147.182,499.435,143.213z"/>
						<path style="fill:#3C56C2;" d="M486.56,192.857c-6.207-4.308-10.487-5.206-16.875-10.991
							c4.417-12.327,11.868-30.706,15.224-37.704c1.072-2.236,3.013-3.989,5.421-4.582c2.627-0.646,7.014-1.1,10.306,3.169
							c2.897,3.756,0.61,14.926-1.002,19.546C497.887,167.299,492.899,182.285,486.56,192.857z"/>
						<path style="fill:#132060;" d="M499.633,162.29c-1.687,4.816-6.365,18.882-12.348,29.341
							c-0.478-4.264-1.422-8.614-2.302-12.188c-2.355-9.611-0.382-19.71,4.795-27.071c4.519-6.428,1.008-10.799-0.35-12.507
							c0.286-0.117,0.594-0.212,0.902-0.286c2.631-0.647,7.012-1.103,10.311,3.172C503.536,146.506,501.245,157.676,499.633,162.29z
							"/>
						<path style="fill:#5479DB;" d="M470.757,178.918c-0.372,1.012-0.732,1.999-1.072,2.948
							c6.388,5.786,10.668,6.684,16.875,10.991c0.476-0.793,0.941-1.617,1.401-2.454
							C481.594,187.285,475.731,183.934,470.757,178.918z"/>
						<path style="fill:#FCCCA6;" d="M469.91,192.085c2.513-1.571,2.513-1.571,4.266-0.909c4.988,1.882,5.251,7.054,1.211,18.036
							c-5.027,13.665-26.33,38.872-26.33,38.872l-6.209-3.376c0,0,14.017-34.46,18.527-41.898
							C464.883,197.024,466.026,194.512,469.91,192.085z"/>
						<g>
							<path style="fill:#FCCCA6;" d="M441.071,241.255c-4.982,0.111-8.095,4.651-10.067,4.871c-2.656,0.297-3.853,3.389-0.41,4.598
								c3.46,1.215,4.153-0.561,4.155-0.568c-0.228,0.588-0.656,1.12-0.883,1.726c-0.366,0.977-0.909,1.895-1.445,2.803
								c-1.133,1.918-2.971,4.288-4.346,6.041c-0.507,0.646-1.04,1.565-0.532,2.209c0.382,0.484,1.12,0.457,1.717,0.303
								c1.733-0.448,3.23-1.573,4.414-2.915c1.193-1.353,2.477-3.544,3.57-4.937c1.085,0.992,2.606,0.308,3.61,1.207
								c1.09,0.972,2.656-0.04,3.546,0.69c0.89,0.73,2.685,1.791,4.497-0.647c1.812-2.437,3.241-3.855,3.741-7.123
								c0.373-2.434,0.022-6.251,0.022-6.251s-3.645-3.075-7.307-3.689C444.337,239.405,441.981,241.235,441.071,241.255z"/>
							<path style="fill:#ECA06E;" d="M430.593,250.724c2.222,0.781,3.305,0.327,3.794-0.102c0.564-0.659,0.94-1.515,1.652-2.041
								c0.845-0.623,1.784-1.143,2.688-1.673c0.308-0.181,1.97-1.13,1.695-1.645c-0.153-0.287-0.666-0.016-0.866,0.073
								c-0.803,0.361-1.528,0.902-2.247,1.398c-0.563,0.389-1.11,0.803-1.638,1.239c-0.373,0.308-0.645,0.713-1.044,0.975
								c-1.726,1.133-3.862,1.363-5.746,0.484C429.143,249.943,429.68,250.404,430.593,250.724z"/>
							<g>
								<path style="fill:#FCCCA6;" d="M441.953,247.664c-0.062,0.073-0.124,0.153-0.184,0.241c-1.05,1.522-2.099,3.043-3.149,4.565
									c-0.802,1.163-2.431,2.745-0.293,3.484c1.684,0.582,1.436-0.333,2.526,0.639c1.09,0.972,2.656-0.04,3.546,0.69
									c0.89,0.73,2.685,1.791,4.497-0.647c0.734-0.988,1.582-1.811,2.296-2.657c-0.255-1.424-0.716-2.612-2.073-3.786
									c-1.224-1.058-0.846-1.383-2.934-1.664c-0.71-0.096-0.701-0.103-1.225-0.589
									C443.964,247.017,442.863,246.594,441.953,247.664z"/>
								<path style="fill:#ECA06E;" d="M447.748,248.689c-0.217-0.207-0.462-0.365-0.924-0.39c-0.476-0.026-0.971,0.108-1.388,0.333
									c0,0,0.289,1.083-0.894,2.935c-1.184,1.852-2.777,2.437-2.777,2.437s1.158-1.295,2.266-3.354
									c1.107-2.058,0.849-2.628,0.262-3.375c-0.587-0.746-1.988-0.83-2.424,0.565c-0.436,1.395-4.658,7.441-4.679,6.777
									c-0.011-0.342,1.915-3.151,2.077-3.434c0.505-0.88,1.064-1.824,1.351-2.802c0.384-1.312,1.726-3.072,3.362-2.151
									c1.426,0.803,1.461,1.64,1.461,1.643c0.004,0.094,2.309-0.514,2.475-0.585c1.037-0.442,1.999-1.06,2.828-1.823
									c0.157,0.054,0.228,0.25,0.194,0.413c-0.033,0.163-0.143,0.298-0.253,0.423c-0.329,0.373-0.691,0.718-1.08,1.028
									c-0.311,0.249-0.933,0.487-1.153,0.804c-0.239,0.346-0.054,0.785-0.068,1.163
									C448.108,249.093,447.939,248.871,447.748,248.689z"/>
								<path style="fill:#ECA06E;" d="M450.233,251.351c1.039,0.861,1.048,2.113-0.354,4.063c0.499-0.694,1.269-1.254,1.701-1.988
									c0.432-0.732-0.192-1.78-0.583-2.42c-0.5-0.82-1.521-1.167-2.021-1.988c-0.27-0.443-0.471-0.776-0.995-0.949
									c0.258,0.598,0.515,1.182,0.441,1.85c-0.06,0.538-0.198,1.071-0.395,1.576c-0.222,0.568-0.525,1.11-0.927,1.571
									c-0.272,0.312-1.024,1.101-1.49,1.057c0.003,0,1.519,0.142,3.296-2.898C448.908,251.224,449.193,250.488,450.233,251.351z"
									/>
							</g>
						</g>
					</g>
					<g>
						<g>
							<path style="fill:#3C56C2;" d="M556.067,244.205l-0.658,0.456c-22.245,15.403-51.767,15.222-73.82-0.456
								c-0.849,0,11.722-29.904,12.305-42.538c0.308-6.577-2.504-15.286-4.837-21.523c-3.469-9.261-2.684-19.529,1.602-27.443
								c4.731-8.762-2.567-12.135-1.941-12.517c1.581-0.965,7.15-4.996,12.22-8.497c0.35-0.233,0.7-0.477,1.05-0.7
								c3.013-2.058,5.718-3.829,7.16-4.519c0.276-0.127,0.499-0.212,0.668-0.265c1.23-0.35,4.922-0.689,9.006-0.711
								c4.095,0.021,7.797,0.912,9.017,1.262c0.18,0.053,0.414,0.138,0.7,0.265c0.382,0.17,0.838,0.403,1.358,0.69
								c0.393,0.212,0.828,0.456,1.294,0.721c0.148,0.085,0.308,0.18,0.477,0.276c0.456,0.265,0.934,0.552,1.432,0.859
								c0.382,0.233,0.785,0.477,1.188,0.732v0.011c5.707,3.554,13.079,8.667,14.183,10.162c1.008,1.337-6.025,33.022-4.721,61.197
								C544.324,214.301,556.915,244.205,556.067,244.205z"/>
						</g>
						<path style="fill:#132060;" d="M546.1,213.898c-5.627,0.983-10.877,1.727-14.628,2.203c-0.675,1.251-2.034,3.602-3.325,5.091
							c-0.923,1.062-1.816,1.796-2.749,2.362c-0.129,0.308-0.318,0.576-0.615,0.724c-0.218,0.119-0.456,0.199-0.695,0.278
							c0,0.01-0.01,0.01-0.01,0.02c-1.191,0.377-2.491,0.645-3.781,1.151c-0.198,0.07-0.397,0.139-0.576,0.189
							c-2.749,0.784-3.722-1.131-4.099-2.283c-0.248-0.744-1.112-1.032-1.856-1.499c-0.486-0.298-0.933-0.665-1.112-1.29
							c0,0,0,0,0-0.01c-0.119-0.437-0.387-0.764-0.705-1.062c-0.288-0.139-0.685-0.278-1.31-1.062
							c-0.099-0.129-0.188-0.248-0.258-0.357c-0.189-0.238-0.347-0.506-0.437-0.834c-1.876,0.665-4.416,1.985-6.371,2.551
							c-1.935,0.566-4.039,0.734-5.955,0.119c-0.665-0.208-1.379-0.635-1.459-1.32c-0.089-0.923,0.963-1.479,1.836-1.786
							c2.372-0.844,5.548-1.995,7.781-3.136c1.052-0.546,2.124-1.092,3.067-1.796c0.566-0.437,1.27-0.685,1.836-1.092
							c-0.119,0.069-0.546,0.298-1.211,0.199c-0.02,0-0.04,0-0.06-0.01c-0.099-0.01-0.198-0.04-0.308-0.07
							c-0.03-0.01-0.06-0.02-0.089-0.03c-0.119-0.04-0.238-0.079-0.367-0.139c-0.02-0.01-0.03-0.02-0.06-0.03
							c-0.139-0.069-0.298-0.159-0.456-0.258c-0.02-0.02-0.05-0.04-0.079-0.06c-0.129-0.089-0.258-0.189-0.397-0.298
							c-0.05-0.05-0.099-0.089-0.149-0.129c-0.129-0.119-0.258-0.238-0.387-0.377c-0.05-0.05-0.089-0.089-0.139-0.139
							c-0.189-0.199-0.367-0.407-0.556-0.645c-2.551-3.225,0.447-5.448,3.156-4.128c2.015,0.973,7.711-1.479,12.524,1.419
							c0.774,0.466,3.493,0.268,4.694,0.754c3.841-2.035,10.252-5.399,16.842-8.714c0.02,1.092,0.06,2.183,0.109,3.265
							C543.897,204.887,544.82,209.224,546.1,213.898z"/>
						<path style="fill:#FCCCA6;" d="M534.289,130.297v0.011c-3.405,5.718-8.9,17.089-17.121,16.495
							c-6.927-0.477-13.334-8.401-16.23-15.116c0.35-0.233,0.7-0.477,1.05-0.7c3.013-2.058,5.718-3.829,7.16-4.519
							c0.276-0.127,0.499-0.212,0.668-0.265c1.23-0.35,4.922-0.689,9.006-0.711c4.095,0.021,7.797,0.912,9.017,1.262
							c0.18,0.053,0.414,0.138,0.7,0.265c0.382,0.17,0.838,0.403,1.358,0.69c0.393,0.212,0.828,0.456,1.294,0.721
							c0.148,0.085,0.308,0.18,0.477,0.276c0.456,0.265,0.934,0.552,1.432,0.859C533.482,129.798,533.885,130.042,534.289,130.297z"
							/>
						<path style="fill:#5479DB;" d="M534.289,130.297v0.011c-3.405,5.718-8.9,17.089-17.121,16.495
							c-6.927-0.477-13.334-8.401-16.23-15.116c0.35-0.233,0.7-0.477,1.05-0.7c3.013,6.396,8.879,13.366,15.191,13.811
							c7.447,0.552,12.591-9.261,15.922-15.233C533.482,129.798,533.885,130.042,534.289,130.297z"/>
					</g>
					<g>
						<g>
							<g>
								<path style="fill:#FCCCA6;" d="M515.215,139.355h6.088c4.047,0,7.329-3.281,7.329-7.329v-23.744h-20.745v23.744
									C507.887,136.074,511.168,139.355,515.215,139.355z"/>
							</g>
							<path style="fill:#ECA06E;" d="M507.89,108.283v20.915c10.555,1.855,17.047-4.038,20.741-13.6v-7.315H507.89z"/>
						</g>
						<g>
							<g>
								<path style="fill:#ECA06E;" d="M497.973,94.804c-0.382,3.932-1.147,9.818-5.479,7.637
									c-4.085-2.057-5.915-6.373-5.005-11.367c0.91-4.994,3.196-7.312,6.939-5.55C497.843,87.13,498.388,90.186,497.973,94.804z"
									/>
							</g>
							<path style="fill:#FCCCA6;" d="M505.387,120.916c-11.137-2.076-13.124-12.79-12.647-20.103
								c0.373-5.721,1.689-16.358,2.543-22.95c0.884-6.82,5.733-12.72,12.462-14.14c5.56-1.174,12.064-0.617,17.369,1.981
								c10.792,5.285,13.539,14.425,9.627,30.485C532.947,103.549,530.776,124.219,505.387,120.916z"/>
							<path style="fill:#DBA930;" d="M532.911,98.358c-5.101,1.06-9.353-9.952-7.778-18.772c0,0-10.901,6.605-31.673,5.35
								c0,0,1.995-12.972,6.298-17.855c4.303-4.882,19.351-7.245,30.218,0C540.843,74.327,538.799,92.876,532.911,98.358z"/>
							<g>
								<path style="fill:#FCCCA6;" d="M532.09,101.004c-0.849,3.87-3.202,8.894,2.744,8.68c5.606-0.201,9.249-3.492,9.816-8.589
									c0.566-5.096-1.416-8.256-6.512-8.187C533.803,92.968,533.128,96.474,532.09,101.004z"/>
								<g>
									<path style="fill:#ECA06E;" d="M535.203,105.955c-0.168-1.78,1.169-1.349,2.181-2.214c0.986-0.843,1.15-2.16,0.565-3.247
										c-0.236-0.445-0.442-0.829-0.083-1.952c0.446-1.392,2.413,0.002,3.322,0.351c0.465-1.505-1.497-2.895-2.897-2.852
										c-0.572,0.018-1.616,0.292-2.147,1.947c-0.555,1.711-0.201,2.601,0.212,3.365c0.212,0.401,0.23,0.434-0.106,0.941
										c-0.165,0.248-0.448,0.363-0.891,0.519c-0.495,0.177-1.174,0.419-1.445,1.135
										C533.577,104.84,534.009,106.112,535.203,105.955z"/>
								</g>
							</g>
							<g>
								<circle style="fill:#F98495;" cx="521.002" cy="105.543" r="2.285"/>
								<circle style="fill:#F98495;" cx="499.185" cy="105.858" r="2.285"/>
								<g>
									
										<path style="fill:none;stroke:#ECA06E;stroke-width:1.075;stroke-linecap:round;stroke-linejoin:round;stroke-dasharray:19.0691;" d="
										M507.321,91.774c-2.285,5.21-4.591,12.882-3.145,14.084c1.23,1.023,3.328,0.978,3.967,0.12"/>
								</g>
								<path style="fill:#513217;" d="M515.344,100.479c0,1.573,0.74,2.848,1.654,2.848c0.913,0,1.654-1.275,1.654-2.848
									s-0.741-2.848-1.654-2.848C516.084,97.631,515.344,98.906,515.344,100.479z"/>
								<ellipse style="fill:#513217;" cx="499.223" cy="99.739" rx="1.588" ry="2.734"/>
								<path style="fill:#FFFFFF;" d="M508.568,114.992l9.691-3.244C516.182,110.273,510.078,109.388,508.568,114.992z"/>
								
									<path style="fill:none;stroke:#DBA930;stroke-width:2.3114;stroke-linecap:round;stroke-linejoin:round;stroke-miterlimit:10;stroke-dasharray:70.2018;" d="
									M502.276,92.093c-1.292,0.272-3.967,0.521-4.69-1.835"/>
								
									<path style="fill:none;stroke:#DBA930;stroke-width:2.3114;stroke-linecap:round;stroke-linejoin:round;stroke-miterlimit:10;stroke-dasharray:70.2018;" d="
									M513.378,92.043c0,0,4.758,2.751,6.751-1.116"/>
							</g>
						</g>
					</g>
					<g>
						<g>
							<path style="fill:#FCCCA6;" d="M562.446,253.319c-0.78,0.111-1.407,0.712-1.685,1.452c-0.911,2.427-2.951,5.72-3.746,6.681
								c-0.909,1.099-1.405,2.195-0.75,3.096s4.765-0.979,7.05-6.658C563.937,256.346,564.728,252.994,562.446,253.319z"/>
							<path style="fill:#ECA06E;" d="M556.022,264.039c-0.223-0.79,0.249-1.687,0.993-2.583c0.786-0.945,2.755-4.125,3.686-6.521
								c0.042,1.116-0.41,2.583-0.797,3.481C558.797,261.004,557.361,262.852,556.022,264.039z"/>
						</g>
						<g>
							<g>
								<path style="fill:#FCCCA6;" d="M558.833,252.432c-0.843,0.096-1.537,0.736-1.859,1.539
									c-1.056,2.635-3.355,6.183-4.242,7.213c-1.013,1.177-1.581,2.364-0.904,3.375c0.677,1.01,5.159-0.918,7.797-7.079
									C560.342,255.806,561.299,252.151,558.833,252.432z"/>
							</g>
							<path style="fill:#ECA06E;" d="M555.824,258.564c-1.341,2.251-2.867,3.835-4.274,4.844c0.067-0.716,0.529-1.47,1.177-2.225
								c0.878-1.015,3.099-4.453,4.185-7.067C557.447,255.216,556.502,257.405,555.824,258.564z"/>
						</g>
						<g>
							<g>
								<path style="fill:#FCCCA6;" d="M556.272,250.585c-0.848-0.014-1.619,0.531-2.042,1.285
									c-1.388,2.477-4.127,5.697-5.139,6.604c-1.156,1.036-1.873,2.14-1.333,3.23c0.54,1.089,5.234-0.243,8.647-6.011
									C557.333,254.126,558.754,250.625,556.272,250.585z"/>
							</g>
							<path style="fill:#ECA06E;" d="M547.591,260.728c0.091-0.777,0.691-1.535,1.504-2.254c1.008-0.9,3.749-4.128,5.135-6.6
								c0.109-0.183,0.227-0.361,0.376-0.508c-0.127,1.066-0.634,2.313-1.05,3.095C551.704,257.945,549.343,259.911,547.591,260.728
								z"/>
						</g>
						<g>
							<path style="fill:#FCCCA6;" d="M553.534,248.074c-0.848-0.035-1.632,0.489-2.075,1.233c-1.451,2.44-4.271,5.59-5.306,6.471
								c-1.183,1.006-1.927,2.092-1.415,3.195c0.512,1.103,5.239-0.109,8.798-5.789C554.504,251.64,556.014,248.177,553.534,248.074
								z"/>
						</g>
						<path style="fill:#FCCCA6;" d="M545.123,248.483c-0.093,1.662,2.239,1.371,4.12,0.152c1.733-1.124,3.724-2.301,3.724-2.301
							l3.706-3.807l5.764-3.146c0,0-4.397-2.851-9.03,1.028c-2.731,2.287-4.506,3.374-5.597,4.582
							C546.444,246.504,545.177,247.519,545.123,248.483z"/>
						<path style="fill:#ECA06E;" d="M553.246,244.123c-0.68,0.523-1.178,1.31-1.738,1.937c-0.422,0.473-0.875,0.921-1.356,1.335
							c-0.569,0.612-1.164,1.208-1.804,1.729c0.302-0.14,0.604-0.3,0.896-0.489c1.733-1.124,3.724-2.301,3.724-2.301l0.426-0.437
							C553.34,245.305,553.398,244.692,553.246,244.123z"/>
						<path style="fill:#FCCCA6;" d="M566.178,250.779c1.735-5.476,1.537-8.302-2.043-10.623s-9.36-0.742-10.374,3.402
							c-0.74,3.025-2.207,5.046-2.468,6.9c-0.223,1.585,2.104,2.72,3.719,3.768c2.758,1.788,7.698,5.29,8.418,3.365
							C563.827,256.526,565.882,251.713,566.178,250.779z"/>
					</g>
					<g>
						<path style="fill:#FCCCA6;" d="M546.247,139.537c2.064,0.403,3.81,1.74,5,3.475c7.472,10.89,27.858,44.833,27.21,53.346
							c-0.682,8.96-2.17,10.361-10.438,3.9s-21.73-28.624-27.214-38.372c-2.628-4.672-6.217-13.739-3.716-18.185
							C539.719,139.025,543.844,139.068,546.247,139.537z"/>
						<path style="fill:#ECA06E;" d="M566.868,186.857c2.246-2.394,3.714-5.033,5.508-7.692
							c-6.468-13.082-16.392-29.25-21.129-36.154c-1.19-1.734-2.936-3.072-5-3.474c-2.403-0.469-6.528-0.511-9.158,4.164
							c-2.501,4.445,1.088,13.513,3.716,18.185c4.11,7.306,12.703,21.586,20.23,31.003
							C563.017,190.916,564.966,188.885,566.868,186.857z"/>
						<path style="fill:#3C56C2;" d="M558.016,190.523c4.507-4.154,9.479-6.872,14.819-13.637
							c-6.4-11.425-16.794-28.314-21.264-34.658c-1.428-2.027-3.632-3.435-6.105-3.62c-2.698-0.202-7.099,0.078-9.638,4.834
							c-2.234,4.184,1.873,14.821,4.229,19.11C542.608,167.197,550.011,181.149,558.016,190.523z"/>
						<path style="fill:#5479DB;" d="M556.394,188.549c0.537,0.675,1.078,1.337,1.622,1.974c4.507-4.154,9.479-6.872,14.819-13.637
							c-0.327-0.583-0.666-1.184-1.013-1.794C567.616,180.531,561.507,183.979,556.394,188.549z"/>
						<path style="fill:#FCCCA6;" d="M579.364,191.328c-0.925-2.815-0.925-2.815-2.696-3.429c-5.037-1.747-8.55,2.058-12.476,13.082
							c-4.885,13.716-5.289,45.051-5.289,45.051l6.421,2.814c0,0,12.435-35.214,13.731-43.815
							C580.064,198.341,580.794,195.678,579.364,191.328z"/>
						<path style="fill:#ECA06E;" d="M579.258,203.706c-0.883,0.347-1.707,0.585-2.471,0.724c-1.26,0.794-2.7,1.598-4.387,2.422
							c-2.799,1.36-6.491,2.59-10.56,3.672c0.635-3.603,1.409-6.907,2.352-9.547c3.93-11.016,7.443-14.827,12.475-13.08
							c1.776,0.615,1.776,0.615,2.699,3.434C580.697,195.38,580.151,197.96,579.258,203.706z"/>
					</g>
				</g>
			</g>
			<g>
				<g>
					<g>
						<path style="fill:#24160A;" d="M598.695,312.804l3.47,114.106h13.254c0,0,14.468-76.822,14.471-83.422
							c0.003-6.438-4.738-23.6-8.001-32.347c-1.673-4.484-7.481-5.386-10.749-5.495
							C607.286,305.518,598.617,306.881,598.695,312.804z"/>
						<path style="fill:#24160A;" d="M635.302,233.545c0.333,21.299-2.678,62.724-14.563,82.13c0,0-2.642,7.428-10.321,7.445
							c-8.3,0.018-9.477-3.49-10.96-7.445l0,0c0,0-7.448-20.068-3.046-59.989c1.797-16.298,2.141-19.794,3.259-25.463
							c1.577-7.998,12.508-12.78,20.479-11.68l0,0C627.59,219.568,635.183,225.933,635.302,233.545z"/>
						<path style="fill:#24160A;" d="M573.589,448.77c0,0,17.876,0,28.576,0h10.011c1.992,0,3.856-1.072,4.827-2.835l0.23-0.383
							c1.124-2.017,0.894-4.495-0.562-6.257c-0.817-0.996-1.251-2.247-1.251-3.524v-8.861h-13.254v2.707
							c0,2.707-2.554,5.261-5.593,8.223c-3.013,2.962-14.352,2.63-20.251,5.363C570.422,445.91,573.589,448.77,573.589,448.77z"/>
					</g>
					<g>
						<path style="fill:#24160A;" d="M658.035,305.642c-13.407,0.284-13.567,17.043-13.407,24.545
							c0.16,7.502,10.8,97.787,10.8,97.787h12.875c0,0,7.289-93.478,7.289-98.904s-3.192-17.716-6.544-20.59
							C665.696,305.607,658.035,305.642,658.035,305.642z"/>
						<path style="fill:#24160A;" d="M630.034,235.22c-0.177,21.007,9,67.21,17.771,87.96c3.367,7.965,19.098,4.489,21.281-0.158
							c4.431-9.434,8.101-35.551,1.678-69.341c-2.04-10.733-2.897-17.402-4.057-22.984c-1.636-7.876-12.37-13.398-20.333-12.255l0,0
							C638.942,219.51,630.097,227.712,630.034,235.22z"/>
						<path style="fill:#24160A;" d="M662.131,427.974h-6.704c0,0-1.809,8.513-3.724,13.088c-1.158,2.765-1.46,5.004-1.518,6.342
							c-0.033,0.751,0.589,1.366,1.341,1.366h23.815c0.731,0,1.325-0.576,1.342-1.307c0.04-1.761-0.134-4.885-1.676-6.72
							c-2.234-2.66-6.704-11.385-6.704-12.769H662.131z"/>
					</g>
					<g>
						<path style="fill:#FCCCA6;" d="M601.824,135.783c-7.661,7.874-35.859,41.818-36.497,50.915
							c-0.638,9.098,3.32,14.452,12.577,9.185c9.257-5.267,26.049-25.534,32.995-34.512c3.33-4.303,9.534-12.214,3.747-21.438
							C608.859,130.709,601.824,135.783,601.824,135.783z"/>
						<path style="fill:#ECA06E;" d="M587.655,187.941c-1.329-1.772-2.64-3.558-3.887-5.389c-2.943-4.321-6.938-9.434-8.02-14.743
							c9.045-12.665,21.393-27.213,26.076-32.026c0,0,7.035-5.075,12.822,4.15c5.787,9.225-0.417,17.135-3.747,21.439
							C606.009,167.692,596.24,179.603,587.655,187.941z"/>
						<path style="fill:#132A80;" d="M590.305,188.624c-4.655-7.402-9.688-15.693-14.256-23.154
							c8.888-12.201,20.3-26.099,24.757-30.68c0,0,8.053-4.082,13.84,5.142c5.787,9.225-2.873,22.664-2.873,22.664
							C610.037,167.689,599.5,180.141,590.305,188.624z"/>
						<path style="fill:#132060;" d="M609.192,134.8c1.839,0.851,3.745,2.409,5.454,5.133c5.787,9.225-2.873,22.665-2.873,22.665
							c-1.735,5.091-12.272,17.544-21.468,26.027c-1.966-3.127-4.001-6.415-6.039-9.729
							C593.789,164.925,602.185,150.192,609.192,134.8z"/>
						<path style="fill:#FCCCA6;" d="M574.914,180.405c2.943,0.618,4.365,1.79,4.95,4.74c1.052,5.308-0.671,9.913-11.352,15.108
							c-13.29,6.464-46.608,9.927-46.608,9.927l-2.61-7.725c0,0,33.3-17.933,41.832-20.204
							C567.761,180.484,570.365,179.45,574.914,180.405z"/>
						<g>
							<path style="fill:#FCCCA6;" d="M518.216,199.768c-4.811-2.893-10.509-0.443-12.521-1.42
								c-2.708-1.317-5.709,0.909-3.159,4.132c2.564,3.24,4.293,1.965,4.299,1.96c-0.571,0.423-1.299,0.672-1.88,1.112
								c-0.937,0.71-2.006,1.258-3.064,1.8c-2.234,1.145-5.411,2.295-7.776,3.137c-0.871,0.31-1.932,0.865-1.836,1.784
								c0.072,0.69,0.792,1.109,1.453,1.322c1.92,0.617,4.023,0.446,5.959-0.12c1.951-0.57,4.493-1.884,6.372-2.553
								c0.436,1.598,2.297,1.862,2.712,3.322c0.453,1.582,2.554,1.561,2.962,2.792c0.408,1.231,1.479,3.322,4.673,2.091
								c3.193-1.231,5.408-1.721,7.851-4.532c1.82-2.094,3.783-5.941,3.783-5.941s-1.621-5.123-4.74-7.912
								C522.441,199.972,519.095,200.297,518.216,199.768z"/>
							<path style="fill:#ECA06E;" d="M502.536,202.479c1.646,2.082,2.951,2.301,3.674,2.186c0.934-0.288,1.807-0.878,2.803-0.95
								c1.18-0.085,2.387-0.015,3.567,0.025c0.402,0.014,2.557,0.11,2.605-0.546c0.027-0.365-0.625-0.417-0.869-0.451
								c-0.982-0.139-1.999-0.061-2.982-0.02c-0.771,0.032-1.54,0.096-2.305,0.194c-0.54,0.069-1.044,0.291-1.581,0.3
								c-2.326,0.04-4.499-1.026-5.764-2.998C501.625,200.862,501.859,201.625,502.536,202.479z"/>
							<g>
								<path style="fill:#FCCCA6;" d="M515.198,206.403c-0.103,0.032-0.21,0.072-0.321,0.119c-1.916,0.817-3.831,1.635-5.747,2.452
									c-1.464,0.625-3.968,1.151-2.376,3.143c1.254,1.568,1.568,0.547,2.021,2.129c0.453,1.582,2.554,1.561,2.962,2.792
									c0.408,1.231,1.479,3.322,4.672,2.091c1.294-0.499,2.597-0.772,3.786-1.149c0.614-1.51,0.89-2.919,0.304-4.854
									c-0.528-1.745,0.027-1.826-1.793-3.351c-0.619-0.519-0.605-0.52-0.812-1.299
									C517.502,206.997,516.709,205.931,515.198,206.403z"/>
								<path style="fill:#ECA06E;" d="M520.101,210.867c-0.082-0.328-0.221-0.626-0.645-0.927
									c-0.438-0.311-0.989-0.482-1.523-0.518c0,0-0.376,1.206-2.618,2.257c-2.242,1.051-4.112,0.65-4.112,0.65
									s1.883-0.536,4.177-1.83c2.294-1.294,2.391-1.993,2.281-3.057c-0.11-1.064-1.394-1.987-2.648-0.921
									c-1.255,1.066-8.916,4.284-8.536,3.638c0.195-0.332,3.72-1.849,4.045-2.02c1.011-0.534,2.112-1.097,2.973-1.856
									c1.155-1.019,3.493-1.886,4.497-0.025c0.875,1.623,0.404,2.442,0.402,2.445c-0.053,0.092,2.509,0.9,2.71,0.933
									c1.253,0.203,2.541,0.194,3.791-0.034c0.117,0.146,0.066,0.375-0.064,0.51c-0.13,0.135-0.316,0.197-0.496,0.25
									c-0.538,0.157-1.09,0.268-1.647,0.329c-0.446,0.049-1.182-0.098-1.582,0.072c-0.436,0.186-0.523,0.715-0.765,1.067
									C520.201,211.469,520.173,211.156,520.101,210.867z"/>
								<path style="fill:#ECA06E;" d="M520.866,214.899c0.471,1.446-0.274,2.643-2.783,3.657c0.892-0.361,1.963-0.431,2.817-0.869
									c0.852-0.438,0.888-1.811,0.901-2.656c0.017-1.081-0.746-2.027-0.728-3.11c0.01-0.584,0.018-1.023-0.376-1.503
									c-0.114,0.725-0.221,1.436-0.693,2.027c-0.381,0.477-0.833,0.902-1.324,1.263c-0.553,0.407-1.169,0.742-1.829,0.938
									c-0.447,0.133-1.638,0.432-2.055,0.11c0.003,0.002,1.361,1.049,4.884-0.776C519.679,213.98,520.394,213.45,520.866,214.899z
									"/>
							</g>
						</g>
					</g>
					<path style="fill:#5479DB;" d="M670.462,240.297h-73.844c-0.64,0-1.145-0.508-1.121-1.154
						c0.431-11.617,3.812-101.681,5.308-103.928c1.587-2.384,22.167-13.068,24.784-13.884c2.614-0.815,16.964-1.527,21.008,1.02
						c4.058,2.555,20.289,10.437,21.87,12.407c1.49,1.856,2.872,92.833,3.115,104.403
						C671.597,239.8,671.095,240.297,670.462,240.297z"/>
					<path style="fill:#3C56C2;" d="M618.471,240.292h-20.375c0.744-20.782,3.583-99.879,5.022-106.955h0.01
						c3.106-2.084,8.684-5.171,13.527-7.701L618.471,240.292z"/>
					<path style="fill:#3C56C2;" d="M671.487,239.627c-0.169,0.397-0.566,0.665-1.022,0.665h-27.232l5.31-116.81
						c1.677,0.933,3.94,2.124,6.342,3.394c0.963,0.516,1.955,1.032,2.938,1.558c0.784,0.417,1.568,0.834,2.342,1.251
						c0.169,0.089,0.328,0.179,0.486,0.258c0.149,0.079,0.288,0.159,0.437,0.238c0.427,0.238,0.844,0.466,1.251,0.685
						c0.02,0.01,0.03,0.02,0.05,0.03c0.387,0.209,0.764,0.427,1.131,0.625c1.518,0.863,2.828,1.637,3.732,2.243
						c0.149,0.109,0.288,0.208,0.417,0.298c0.377,0.278,0.655,0.516,0.804,0.695c0.07,0.089,0.139,0.377,0.208,0.863
						C669.949,144.542,671.11,217.644,671.487,239.627z"/>
					<g>
						<g>
							<g>
								<path style="fill:#FCCCA6;" d="M632.954,134.719h6.179c4.108,0,7.438-3.33,7.438-7.438v-24.1h-21.056v24.1
									C625.516,131.389,628.846,134.719,632.954,134.719z"/>
							</g>
							<path style="fill:#ECA06E;" d="M625.519,103.182v21.228c10.713,1.882,17.302-4.098,21.052-13.804v-7.424H625.519z"/>
						</g>
						<g>
							<g>
								<path style="fill:#ECA06E;" d="M615.023,89.42c-0.388,4.001-1.167,9.99-5.575,7.77c-4.156-2.093-6.019-6.485-5.092-11.567
									c0.927-5.082,3.252-7.44,7.061-5.647C614.891,81.612,615.445,84.722,615.023,89.42z"/>
							</g>
							<path style="fill:#FCCCA6;" d="M622.567,115.99c-11.332-2.113-13.354-13.015-12.869-20.455
								c0.38-5.821,1.718-16.645,2.587-23.352c0.899-6.939,5.834-12.943,12.68-14.388c5.657-1.194,12.276-0.628,17.673,2.015
								c10.981,5.378,13.776,14.678,9.795,31.019C650.609,98.319,648.4,119.351,622.567,115.99z"/>
							<path style="fill:#ECA06E;" d="M611.221,80.738c5.042-0.754,14.083-6.362,14.281-6.431
								c5.329,7.562,23.709,11.482,25.883,10.708c1.241-0.447,2.015-1.042,2.451-1.677c0.099-0.804,0.179-1.588,0.228-2.352
								c-0.179-0.397-0.466-0.734-0.804-0.982c-1.389-0.992-1.002-1.489-0.705-1.598c0.308-0.099,1.737-1.945,0.794-2.084
								c-2.342-0.367-1.568-14.748-16.832-17.517c-1.439-0.258-5.299,0.586-5.736,0.417c-4.228-1.677-8.019-0.913-11.234,0.883
								c-3.95,2.69-6.62,7.146-7.265,12.078C611.965,74.634,611.588,77.632,611.221,80.738z"/>
							<path style="fill:#24160A;" d="M615.554,74.113c-0.162,0.502-0.353,1.348-0.588,2.336c-0.661,0.283-1.292,0.626-1.97,0.913
								c-0.828,0.35-1.595,0.424-2.355,0.374c0.134-1.761,0.343-3.642,0.672-5.897c2.458-17.394,15.427-17.332,26.183-16.472
								c10.756,0.861,12.6,8.543,12.6,8.543s2.089-0.246,4.056,1.168c11.493,8.482,1.537,30.117-3.319,32.514
								c-1.751,0.718-0.445-3.756-0.261-4.555c-4.3,0.46-3.427-10.196-3.427-10.196s1.028-8.315-14.259-10.08
								C617.436,70.978,616.169,72.023,615.554,74.113z"/>
							<path style="fill:#24160A;" d="M608.268,78.611c3.355,2.17,16.767-5.359,17.009-5.428
								c4.983,7.793,23.169,12.542,25.372,11.862c3.767-1.158,3.446-3.869,2.106-4.922c-1.341-1.047-0.935-1.532-0.628-1.622
								c0.307-0.09,1.818-1.865,0.883-2.052c-2.321-0.465-0.902-14.802-16.021-18.255c-1.432-0.326-5.325,0.35-5.748,0.159
								c-12.415-5.595-21.873,10.936-23.247,11.391c-0.906,0.3,0.29,1.858,0.464,2.142c0.213,0.347,0.549,0.749-1.007,1.394
								C605.894,73.917,604.913,76.448,608.268,78.611z"/>
							<g>
								<path style="fill:#FCCCA6;" d="M649.738,95.729c-0.864,3.937-3.258,9.049,2.792,8.832c5.704-0.205,9.411-3.553,9.988-8.739
									c0.576-5.186-1.441-8.401-6.626-8.33C651.481,87.553,650.794,91.119,649.738,95.729z"/>
								<g>
									<path style="fill:#ECA06E;" d="M652.905,100.767c-0.171-1.812,1.189-1.372,2.219-2.253c1.003-0.858,1.17-2.198,0.575-3.304
										c-0.24-0.453-0.45-0.843-0.084-1.987c0.453-1.416,2.455,0.002,3.38,0.357c0.473-1.531-1.523-2.946-2.948-2.902
										c-0.582,0.018-1.645,0.297-2.185,1.981c-0.564,1.741-0.204,2.647,0.216,3.424c0.216,0.408,0.234,0.441-0.108,0.957
										c-0.168,0.252-0.456,0.369-0.906,0.528c-0.504,0.18-1.194,0.426-1.471,1.155C651.25,99.632,651.69,100.927,652.905,100.767
										z"/>
								</g>
							</g>
							<g>
								<path style="fill:#F98495;" d="M636.813,100.924c0,1.337,1.083,2.42,2.42,2.42c1.337,0,2.42-1.083,2.42-2.42
									s-1.083-2.42-2.42-2.42C637.896,98.504,636.813,99.588,636.813,100.924z"/>
								<path style="fill:#F98495;" d="M613.709,101.258c0,1.337,1.083,2.42,2.42,2.42c1.337,0,2.42-1.083,2.42-2.42
									s-1.084-2.42-2.42-2.42C614.792,98.838,613.709,99.922,613.709,101.258z"/>
								<g>
									
										<path style="fill:none;stroke:#ECA06E;stroke-width:1.4886;stroke-linecap:round;stroke-linejoin:round;stroke-dasharray:20.1951;" d="
										M624.744,86.343c-2.42,5.518-4.862,13.643-3.33,14.916c1.303,1.083,3.524,1.036,4.202,0.127"/>
								</g>
								<path style="fill:#513217;" d="M633.442,93.45c0,1.666,0.784,3.016,1.752,3.016s1.752-1.35,1.752-3.016
									c0-1.666-0.784-3.016-1.752-3.016S633.442,91.785,633.442,93.45z"/>
								<ellipse style="fill:#513217;" cx="616.369" cy="92.667" rx="1.681" ry="2.895"/>
								
									<path style="fill:none;stroke:#ECA06E;stroke-width:1.4886;stroke-linecap:round;stroke-linejoin:round;stroke-miterlimit:10;stroke-dasharray:66.6791;" d="
									M635.715,106.132c-1.494-0.905-5.884-1.448-6.97,1.991"/>
								
									<path style="fill:none;stroke:#24160A;stroke-width:2.7427;stroke-linecap:round;stroke-linejoin:round;stroke-miterlimit:10;stroke-dasharray:83.3034;" d="
									M638.306,84.003c-1.254-0.226-2.956,0.109-3.906,1.025c-0.875,0.844-1.147,2.122-2.674,1.971"/>
								
									<path style="fill:none;stroke:#24160A;stroke-width:2.7427;stroke-linecap:round;stroke-linejoin:round;stroke-miterlimit:10;stroke-dasharray:83.3034;" d="
									M614.688,84.295c1.11-0.169,2.601,0.168,3.416,0.999c0.75,0.765,0.959,1.897,2.308,1.802"/>
							</g>
						</g>
					</g>
					<path style="fill:#7CA6F6;" d="M646.599,122.346c-0.045-0.027-0.099-0.052-0.146-0.079c-2.334,1.406-4.45,3.193-6.124,5.172
						c-2.226,2.629-4.229,5.67-7.522,7.019c-0.262,0.108-4.971-5.417-7.489-7.566c0.065,0.056,0.135,0.107,0.2,0.163v-5.697
						c-0.695,0.218-2.402,1.012-4.625,2.124c0.044,0.03,0.084,0.063,0.128,0.094c-0.054-0.038-0.107-0.078-0.161-0.116
						c-1.027,0.493-2.148,1.042-3.338,1.638c2.277,7.182,9.502,17.219,17.411,17.787c8.378,0.601,13.971-11.039,17.406-16.818
						c0.089-0.149,0.372-0.291,0.482-0.393C650.229,124.266,647.808,123.083,646.599,122.346z M623.515,125.425
						c-0.184-0.143-0.369-0.286-0.555-0.427C623.146,125.14,623.331,125.282,623.515,125.425z"/>
					<g>
						<path style="fill:#132A80;" d="M616.085,125.94c-6.621,3.474-14.332,7.852-15.279,9.275
							c-1.496,2.246-4.877,101.242-5.308,112.859c-0.024,0.647,0.481,1.154,1.121,1.154h19.466V125.94z"/>
						<path style="fill:#132A80;" d="M671.587,248.698c0.01,0.635-0.496,1.131-1.121,1.131h-21.923V123.482
							c5.796,3.225,18.539,9.547,19.928,11.274C669.959,136.612,671.339,237.126,671.587,248.698z"/>
					</g>
					<path style="fill:#132060;" d="M652.734,166.583c-0.119,5.379,5.508,20.692,11.234,31.818c0.625-0.496,1.28-0.943,1.945-1.38
						c0.208,0.447,0.417,0.893,0.625,1.33c0.03,0.07,0.069,0.149,0.099,0.218c0.328,0.675,0.655,1.34,0.973,1.975
						c1.131,2.243,2.263,4.268,3.365,5.984c-0.437-22.895-1.082-51.279-1.796-64.449c-0.754-0.476-1.508-0.834-2.193-1.052
						c-2.62-0.834-7.622-1.499-11.949,1.856C646.432,149.553,652.734,166.583,652.734,166.583z"/>
					<g>
						<path style="fill:#FCCCA6;" d="M667.781,134.627c1.969,0.825,3.428,2.515,4.253,4.483
							c5.182,12.362,18.449,50.297,16.051,58.624c-2.524,8.764-8.08,12.434-14.966,4.308c-6.886-8.125-15.698-32.926-19.14-43.743
							c-1.65-5.185-4.76-14.745,3.842-21.422C662.122,133.54,665.489,133.667,667.781,134.627z"/>
						<path style="fill:#ECA06E;" d="M657.821,136.879c4.301-3.338,7.668-3.212,9.959-2.251c1.969,0.825,3.428,2.515,4.253,4.483
							c3.53,8.421,10.807,28.702,14.333,43.413c-3.662,2.236-11.184,6.357-11.184,6.357s-4.388,2.647-6.671,3.812
							c-0.292,0.149-0.596,0.285-0.897,0.424c-5.515-10.905-11.069-26.749-13.637-34.817
							C652.329,153.116,649.219,143.556,657.821,136.879z"/>
						<path style="fill:#132A80;" d="M663.964,190.967c6.913-5.354,15.775-6.991,22.626-12.43
							c-3.661-12.777-9.996-31.883-12.934-39.191c-0.939-2.335-4.27-4.992-6.67-5.751c-2.618-0.828-7.627-1.5-11.95,1.855
							c-8.602,6.677-2.299,23.701-2.299,23.701C652.62,164.529,658.24,179.843,663.964,190.967z"/>
						<path style="fill:#FCCCA6;" d="M675.053,191.477c1.594-2.55,3.184-3.481,6.155-3.014c5.345,0.841,9.075,4.044,10.274,15.861
							c1.492,14.703-6.733,47.175-6.733,47.175l-7.446,0.049c0,0-6.072-37.698-5.266-46.49
							C672.664,198.22,672.59,195.419,675.053,191.477z"/>
						<g>
							<g>
								<path style="fill:#FCCCA6;" d="M689.468,254.315c-0.758,0.573-1.069,1.573-0.93,2.516c0.456,3.093,0.226,7.758-0.052,9.237
									c-0.318,1.69-0.2,3.137,1.016,3.704c1.217,0.568,4.456-3.814,3.552-11.142C692.809,256.64,691.686,252.64,689.468,254.315z"
									/>
								<path style="fill:#ECA06E;" d="M688.948,269.377c-0.697-0.704-0.722-1.925-0.46-3.305c0.278-1.456,0.499-5.961,0.083-9.033
									c0.696,1.153,1.075,2.965,1.192,4.138C690.105,264.555,689.669,267.343,688.948,269.377z"/>
							</g>
							<g>
								<g>
									<path style="fill:#FCCCA6;" d="M685.138,255.49c-0.833,0.594-1.192,1.674-1.063,2.709
										c0.424,3.397,0.069,8.483-0.265,10.087c-0.382,1.833-0.288,3.418,1.016,4.089c1.304,0.671,4.908-3.98,4.095-12.022
										C688.7,258.168,687.575,253.753,685.138,255.49z"/>
								</g>
								<path style="fill:#ECA06E;" d="M685.543,263.716c-0.101,3.159-0.787,5.72-1.682,7.607c-0.347-0.795-0.301-1.86-0.058-3.035
									c0.333-1.583,0.67-6.508,0.29-9.9C685.3,259.235,685.581,262.098,685.543,263.716z"/>
							</g>
							<g>
								<g>
									<path style="fill:#FCCCA6;" d="M681.358,255.035c-0.903,0.481-1.399,1.505-1.405,2.549
										c-0.019,3.424-1.028,8.421-1.567,9.968c-0.616,1.768-0.727,3.352,0.479,4.186c1.206,0.834,5.381-3.312,5.615-11.391
										C684.543,258.152,683.999,253.628,681.358,255.035z"/>
								</g>
								<path style="fill:#ECA06E;" d="M678.119,270.805c-0.358-0.873-0.167-2.023,0.271-3.256c0.538-1.538,1.545-6.544,1.565-9.963
									c0.008-0.257,0.029-0.513,0.101-0.755c0.489,1.198,0.682,2.811,0.699,3.878C680.834,265.468,679.49,268.921,678.119,270.805
									z"/>
							</g>
							<g>
								<path style="fill:#FCCCA6;" d="M677.002,253.983c-0.915,0.458-1.437,1.469-1.469,2.512
									c-0.106,3.422-1.243,8.392-1.821,9.925c-0.66,1.752-0.812,3.332,0.372,4.197c1.184,0.865,5.464-3.174,5.904-11.244
									C680.107,257.181,679.679,252.644,677.002,253.983z"/>
							</g>
							<path style="fill:#FCCCA6;" d="M668.366,259.326c0.872,1.809,3.164,0.14,4.436-2.245c1.172-2.197,2.587-4.602,2.587-4.602
								l1.688-6.181l4.245-6.684c0,0-6.304-0.441-8.928,6.356c-1.547,4.008-2.785,6.19-3.231,8.102
								C668.604,256.466,667.86,258.277,668.366,259.326z"/>
							<path style="fill:#ECA06E;" d="M674.392,249.983c-0.411,0.949-0.478,2.071-0.703,3.058c-0.17,0.745-0.386,1.482-0.652,2.2
								c-0.243,0.977-0.523,1.955-0.894,2.878c0.237-0.324,0.463-0.669,0.66-1.039c1.172-2.197,2.587-4.602,2.587-4.602l0.194-0.71
								C675.181,251.176,674.884,250.495,674.392,249.983z"/>
							<path style="fill:#FCCCA6;" d="M691.923,249.457c-1.367-6.791-3.225-9.657-8.358-10.016c-5.133-0.359-10.31,4.681-8.96,9.646
								c0.985,3.623,0.617,6.614,1.425,8.722c0.691,1.803,3.808,1.642,6.124,1.804c3.955,0.277,11.212,1.088,10.846-1.364
								C692.798,256.893,692.156,250.614,691.923,249.457z"/>
						</g>
					</g>
				</g>
			</g>
		</g>
	</g>
</g>
</svg>
