<?xml version="1.0" encoding="utf-8"?>
<!-- Generator: Adobe Illustrator 27.5.0, SVG Export Plug-In . SVG Version: 6.00 Build 0)  -->
<svg version="1.1" xmlns="http://www.w3.org/2000/svg" xmlns:xlink="http://www.w3.org/1999/xlink" x="0px" y="0px"
	 viewBox="0 0 750 500" style="enable-background:new 0 0 750 500;" xml:space="preserve">
<g id="BACKGROUND">
	<rect id="XMLID_85_" x="0.052" y="0.089" style="fill:#F6F6F6;" width="749.571" height="500.645"/>
</g>
<g id="OBJECTS">
	<g>
		<ellipse style="fill:#D5D5E0;" cx="374.838" cy="438.836" rx="331.281" ry="16.079"/>
		<g id="XMLID_535_">
			<path id="XMLID_609_" style="fill:#C47F69;" d="M569.309,174.908c-30.925-4.643-56.607-53.153-56.607-53.153
				s1.335-5.108,4.118-6.491c2.783-1.383,4.783-1.013,4.783-1.013s9.167,12.42,17.545,19.59c8.378,7.17,20.316,19.363,20.316,19.363
				s13.1-1.489,32.319,1.697C591.782,154.901,597.541,179.147,569.309,174.908z"/>
			<g id="XMLID_606_">
				<path id="XMLID_608_" style="fill:#C47F69;" d="M514.286,99.813l1.237,6.017c0.176,0.857,0.139,3.487-0.283,5.232l0.244,1.042
					c0.596,3.581-1.628,2.492-3.662,0.766c-0.283,0.051-0.49-0.062-0.588-0.521c-1.521-1.4-2.755-2.945-2.309-2.772
					c1.568,0.608,0.896-2.908,0.53-6.628c-0.121-1.226-0.052-2.14,0.121-2.841c0.086-1.029,0.829-1.931,1.888-2.151
					C512.751,97.69,514.022,98.526,514.286,99.813z"/>
				<path id="XMLID_607_" style="fill:#C47F69;" d="M505.64,119.539l-9.715-7.468c0,0,8.148-15.492,11.391-11.628
					c1.558,1.855,3.327,2.879,4.914,3.733l1.268-1.386l1.634,1.14c0.412,1.623,1.253,3.296,2.183,4.807
					c2.669,3.579,8.404,10.784,8.404,10.784l-8.929,4.643C512.764,124.811,508.532,122.416,505.64,119.539z"/>
			</g>
			<path id="XMLID_605_" style="fill:#BE2727;" d="M600.456,138.653c0,0,8.685-1.712,18.492,0.947
				c9.807,2.658,18.615,15.745,18.615,15.745s-21.424,12.369-52.674,18.148c0,0-11.128-4.931-12.567-21.88
				C572.321,151.612,584.934,144.246,600.456,138.653z"/>
			<path id="XMLID_603_" style="fill:#51361C;" d="M598.675,67.781c-6.998,20.86-1.578,38.851,18.239,48.407
				c19.817,9.556,38.498,4.113,48.054-15.704c9.555-19.817,2.107-40.642-17.71-50.198C627.441,40.73,605.672,46.923,598.675,67.781z
				"/>
			<g id="XMLID_579_">
				<g id="XMLID_597_">
					<g id="XMLID_599_">
						<path id="XMLID_602_" style="fill:#78D4F5;" d="M623.37,320.608c0.322,2.517,0.857,5.463,1.487,8.507l-26.988-1.299
							c-2.282-21.844-3.032-39.524-3.173-51.384c1.646-0.675,3.382-1.636,4.593-2.981c3.01-3.345,2.592-14.357,2.592-14.357
							l-2.056-3.34l13.218-3.89l1.111,6.196l8.867,0.716c-0.009,4.87-0.012,10.47-0.008,16.597l6.836,3.484v9.006l-8.236,2.059
							C621.614,289.922,621.948,309.487,623.37,320.608z"/>
						<path id="XMLID_601_" style="fill:#5A9FF2;" d="M623.37,320.608c-1.422-11.121-1.756-30.686-1.756-30.686l8.236-2.059v11.993
							c-0.304,8.641-1.438,19.98-2.525,29.378l-2.468-0.119C624.227,326.071,623.692,323.125,623.37,320.608z"/>
						<path id="XMLID_600_" style="fill:#C47F69;" d="M600.783,340.654c-0.481-3.941-1.317-11.267-1.705-14.976l25.779,3.437
							l2.468,0.119c-0.294,2.539-0.882,2.087-1.152,4.25c-0.789,6.331-4.56,13.458-4.56,13.458s4.118,14.37,4.118,26.159
							c0,11.789-4.314,48.308-4.314,48.308l0.807,1.675l-11.44,0.06l0,0l0.404,1.136c-0.216-1.781-1.472-6.257-1.721-8.305
							c-5.293-29.62-8.238-67.867-8.238-67.867C599.617,344.34,600.783,340.654,600.783,340.654z"/>
					</g>
					<path id="XMLID_598_" style="fill:#5A9FF2;" d="M599.289,273.45c-1.211,1.345-2.947,2.307-4.593,2.981
						c-0.054-4.571-0.019-8.282,0.053-11.035c-0.048-3.191-0.048-6.189,0.021-8.902l1.99,0.16l3.065-0.902l2.056,3.34
						C601.881,259.094,602.299,270.106,599.289,273.45z"/>
				</g>
				<g id="XMLID_592_">
					<g id="XMLID_594_">
						<path id="XMLID_596_" style="fill:#C47F69;" d="M663.672,341.06L663.672,341.06c0,0.001,4.556,15.236,6.438,30.285
							c1.881,15.05,0.654,52.359,0.654,52.359l-7.626-0.001c0,0-8.429-26.096-13.727-43.027c-5.298-16.932-7.94-37.718-7.94-37.718
							c-1.884-3.957-5.338-9.968-6.235-13.961l27.095-2.781C662.848,333.466,663.672,341.058,663.672,341.06z"/>
						<path id="XMLID_595_" style="fill:#78D4F5;" d="M615.677,277.149l2.479-14.088c-0.531-2.442-0.733-3.791-0.532-3.792
							l1.205-0.035l2.115-12.022l20.733,3.921l-7.02,2.836l8.11,6.856c0,0,0.836,8.947,4.682,14.967
							c2.062,3.227,7.726,3.714,12.539,3.473c0.025,0.239,0.067,0.484,0.086,0.721c0.682,8.179,2.5,33.414,3.596,48.769
							l-28.801,2.137c-7.945-21.246-11.919-32.916-11.919-32.916L615.677,277.149z"/>
					</g>
					<path id="XMLID_593_" style="fill:#5A9FF2;" d="M647.45,275.792c-3.846-6.02-4.682-14.967-4.682-14.967l-8.11-6.856l7.02-2.836
						l9.619,1.819c0,0,1.072,2.069,2.471,5.283l0.532-0.015c0,0.227,0.045,0.76,0.127,1.56c2.205,5.273,4.865,12.771,5.563,19.485
						C655.176,279.506,649.512,279.018,647.45,275.792z"/>
				</g>
				<g id="XMLID_588_">
					<path id="XMLID_591_" style="fill:#DB4B4B;" d="M658.044,425.682v-1.559c0.116-2.905,2.546-5.176,5.451-5.097l6.598,0.18
						c2.566,0.07,4.714,1.966,5.102,4.503c0.052,0.342,0.105,1.808,0.156,3.315C675.35,427.024,668.24,420.261,658.044,425.682z"/>
					<path id="XMLID_589_" style="fill:#182A48;" d="M678,434.758h-23.946c0,0-0.107-5.659,3.99-9.076
						c10.196-5.421,17.306,1.343,17.306,1.343C678.087,430.402,678,434.758,678,434.758z"/>
				</g>
				<g id="XMLID_584_">
					<path id="XMLID_587_" style="fill:#DB4B4B;" d="M603.069,426.394l2.457-3.052c1.617-2.008,4.254-2.822,6.756-2.199
						c3.524,0.878,6.592,0.72,10.886-1.315c0.824,0.004,1.49,0.673,1.489,1.497l-0.009,0.33l-0.034,0.004l0.545,13.418
						l-28.447,0.102c-0.991-5.121-2.761-7.325-2.761-7.325L603.069,426.394z"/>
					<path id="XMLID_585_" style="fill:#182A48;" d="M593.951,427.855c0,0,1.771,2.204,2.761,7.325l-13.836,0.05
						C582.137,428.376,587.814,427.855,593.951,427.855z"/>
				</g>
				<polygon id="XMLID_582_" style="fill:#182A48;" points="582.771,438.345 625.155,438.345 625.203,434.614 582.819,434.614 				
					"/>
				<polygon id="XMLID_580_" style="fill:#182A48;" points="654.071,438.502 678.017,438.502 678,434.758 654.054,434.758 				"/>
			</g>
			<path id="XMLID_578_" style="fill:#DB4B4B;" d="M589.291,172.125l8.173-6.796l57.076,3.023l5.028,20.372l-2.644,42.88
				l-1.618,21.672l-0.381,5.102c-0.068,0.917-0.691,1.701-1.57,1.97c-7.768,2.374-44.496,12.464-59.435-3.985
				c-0.358-0.394-0.549-0.906-0.562-1.438c-0.068-2.932-0.159-5.965-0.265-9.067C592.283,222.077,587.954,188.874,589.291,172.125z"
				/>
			<g id="XMLID_575_">
				<path id="XMLID_577_" style="fill:#DB4B4B;" d="M612.621,137.489c-0.331,4.907,0.925,12.024,10.916,12.297
					c15.301,0.418,16.332-11.269,16.332-11.269l-0.002-0.004c13.394,7.343,31.175,12.1,30.946,24.507c0,0-0.476,10.253-7.552,10.115
					l-35.849-0.7l-14.837-0.7c-20.309,0-20.309-11.163-20.309-11.163C592.507,148.867,599.684,144.112,612.621,137.489z"/>
				<path id="XMLID_576_" style="fill:#BE2727;" d="M623.537,149.787c-9.992-0.273-11.247-7.39-10.916-12.297
					c2.885-1.477,5.667-3.008,8.157-4.676c2.243-1.503,6.713-3.296,7.465-2.93c0.766-0.337,3.646,3.431,5.829,5.02
					c1.772,1.29,3.733,2.48,5.794,3.61l0.002,0.004C639.869,138.518,638.838,150.205,623.537,149.787z"/>
			</g>
			<path id="XMLID_574_" style="fill:#AC6051;" d="M635.269,137.939c-0.654,6.648-18.841,11.243-18.346,0.532l1.864-21.374
				l17.145-0.909C634.474,125.43,634.032,133.268,635.269,137.939z"/>
			<path id="XMLID_573_" style="fill:#AC6051;" d="M615.884,130.518c0,0-2.386-19.919-0.398-25.601l3.476-23.42
				c1.989-5.682,6.79-10.646,12.211-9.719l13.299,2.273c5.421,0.926,9.315,7.761,7.326,13.443l-12.88,32.996
				C636.931,126.172,629.839,132.773,615.884,130.518z"/>
			<path id="XMLID_572_" style="fill:#C47F69;" d="M615.704,130.503l-0.36-0.03c-7.827-1.338-11.864-10.028-10.526-17.856
				l3.764-35.577c0.342-2.002,2.26-3.36,4.263-3.018l26.548,4.537c2.002,0.342,5.809,2.695,5.467,4.698l-7.174,30.498
				C635.844,124.534,626.483,132.345,615.704,130.503z"/>
			<path id="XMLID_570_" style="fill:#182A48;" d="M609.148,96.939c-0.47,2.013,0.172,3.884,1.432,4.178
				c1.26,0.294,2.663-1.1,3.132-3.114c0.469-2.013-0.172-3.884-1.432-4.177C611.02,93.532,609.618,94.926,609.148,96.939z"/>
			<path id="XMLID_568_" style="fill:#182A48;" d="M627.181,100.795c-0.57,1.987-0.024,3.887,1.22,4.244
				c1.244,0.357,2.715-0.965,3.285-2.952c0.57-1.987,0.024-3.887-1.22-4.244C629.222,97.487,627.751,98.808,627.181,100.795z"/>
			<path id="XMLID_567_" style="fill:#AC6051;" d="M648.137,114.19c-2.453,3.435-6.214,4.954-8.401,3.391
				c-0.216-0.154-0.408-0.332-0.577-0.532c-1.545-1.824-1.152-5.421,1.059-8.518c2.453-3.435,6.214-4.954,8.401-3.391
				C650.806,106.703,650.59,110.754,648.137,114.19z"/>
			<g id="XMLID_564_">
				<path id="XMLID_566_" style="fill:#C47F69;" d="M632.444,106.025c0,0-0.409-1.916-3.565-2.921
					c-3.156-1.004-6.341,1.027-6.341,1.027l4.247,2.923L632.444,106.025z"/>
				<path id="XMLID_565_" style="fill:#C47F69;" d="M616.234,102.107c0,0-0.409-1.916-3.565-2.921
					c-3.156-1.005-6.341,1.027-6.341,1.027l4.248,2.923L616.234,102.107z"/>
			</g>
			<path id="XMLID_562_" style="fill:#51361C;" d="M639.798,86.346c0,0-12.163,0.248-21.43-1.737
				c-9.267-1.986-11.336-4.137-11.336-4.137s-1.304-13.031,1.178-21.554c0,0,9.722,2.592,21.223,4.496
				c11.501,1.903,21.831,2,25.361,10.322c3.53,8.322-4.413,26.377-9.157,34.174l-3.199-0.855
				C642.438,107.055,640.873,102.044,639.798,86.346z"/>
			<path id="XMLID_561_" style="fill:#C47F69;" d="M685.25,207.229c6.908,30.499-28.96,72.048-28.96,72.048
				s-5.244,0.611-7.543-1.479c-2.299-2.09-2.906-5.045-2.906-5.045s8.466-12.096,12.104-22.506
				c3.637-10.41,10.661-25.962,10.661-25.962s-6.146-11.664-10.159-30.728C658.446,193.558,678.944,179.386,685.25,207.229z"/>
			<path id="XMLID_560_" style="fill:#BE2727;" d="M666.495,153.379c11.776,12.464,17.374,44.246,17.374,44.246
				s-6.018,9.59-23.56,9.59c0,0-6.929-14.893-11.885-27.509C640.811,160.326,652.896,138.985,666.495,153.379z"/>
			<path id="XMLID_559_" style="fill:#DB4B4B;" d="M604.565,141.906c0,0-14.504,9.448-15.715,37.53
				c-0.764,17.72,46.295,19.963,46.295,19.963L604.565,141.906z"/>
			<path id="XMLID_558_" style="fill:#DB4B4B;" d="M612.621,137.489c0,0-4.704,0.815-10.514,0.921c0,0-1.177,5.591-6.006,13.473
				c-4.828,7.882,9.572,16.899,9.572,16.899s4.038-14.198,3.903-14.4C609.441,154.181,612.621,137.489,612.621,137.489z"/>
			<path id="XMLID_557_" style="fill:#5A9FF2;" d="M663.221,322.456c0,0,3.012,2.303,3.146,5.735
				c0.135,3.432-10.699,5.518-17.63,6.191c-6.931,0.673-15.275,0.202-15.88-2.557c-0.606-2.759,0.177-5.862,0.177-5.862
				S650.318,329.169,663.221,322.456z"/>
			<path id="XMLID_556_" style="fill:#5A9FF2;" d="M627.724,325.706c0,0,1.656,4.256,1.432,6.454
				c-0.224,2.198-9.005,2.933-19.716,2.493c-10.711-0.44-13.682-2.067-13.458-4.265c0.224-2.198,1.505-6.327,1.505-6.327
				S607.115,328.067,627.724,325.706z"/>
			<g id="XMLID_554_">
				<path id="XMLID_555_" style="fill:#AC6051;" d="M615.891,112.051l0.333-1.381c-0.878-0.214-2.439-0.837-2.88-1.599
					c-0.122-0.209-0.146-0.403-0.08-0.63c0.343-1.188,2.559-1.291,3.302-1.239l0.551,0.042l2.283-6.757l-1.346-0.455l-1.941,5.742
					c-1.136,0.017-3.639,0.286-4.214,2.273c-0.172,0.597-0.097,1.199,0.218,1.74C613.006,111.319,615.598,111.98,615.891,112.051z"
					/>
			</g>
			<g id="XMLID_552_">
				<path id="XMLID_553_" style="fill:#AC6051;" d="M615.824,120.674c2.547,0,5.242-1.354,5.378-1.423l-0.644-1.267
					c-0.033,0.018-3.551,1.781-5.878,1.127c-2.339-0.66-4.055-3.282-4.072-3.309l-1.193,0.77c0.082,0.126,2.028,3.103,4.879,3.907
					C614.784,120.617,615.301,120.674,615.824,120.674z"/>
			</g>
			<path id="XMLID_550_" style="fill:#182A48;" d="M511.812,84.351l-8.42,39.232c-0.147,0.685-0.827,1.113-1.509,0.95l-4.162-0.991
				c-0.672-0.16-1.091-0.832-0.938-1.504l8.899-39.176c0.155-0.684,0.843-1.104,1.525-0.931l3.682,0.935
				C511.545,83.033,511.954,83.69,511.812,84.351z"/>
			<g id="XMLID_548_">
				<path id="XMLID_549_" style="fill:#C47F69;" d="M502.608,98.293l-8.27,9.156c-1.056,1.169-0.825,3.004,0.487,3.875l2.816,1.869
					c1.071,0.711,2.503,0.524,3.355-0.439l7.454-8.421c0.818-0.924,0.866-2.299,0.114-3.278l-2-2.604
					C505.584,97.174,503.686,97.098,502.608,98.293z"/>
			</g>
			<circle id="XMLID_546_" style="fill:#182A48;" cx="642.938" cy="111.361" r="2.735"/>
			<g id="XMLID_544_">
				<polygon style="fill:#182B3F;" points="644.032,113.314 641.584,116.246 640.147,115.427 641.426,111.827 				"/>
			</g>
			<g id="XMLID_540_">
				<g>
					<path id="XMLID_542_" style="fill:#182A48;" d="M572.675,182.313c-8.117,0-16.469-1.172-24.407-3.636
						c-27.101-8.41-44.31-29.538-47.217-57.968l0.667-0.068c2.877,28.15,19.916,49.071,46.747,57.396
						c25.184,7.816,54.56,2.559,66.882-11.963c20.394-24.032,25.838-51.259,25.892-51.531l0.657,0.127
						c-0.052,0.274-5.527,27.667-26.038,51.838C607.274,176.624,590.548,182.313,572.675,182.313z"/>
				</g>
			</g>
			<g id="XMLID_536_">
				<g>
					<path id="XMLID_538_" style="fill:#182A48;" d="M599.239,177.464c-9.8-10.882-14.424-22.667-13.742-35.027
						c1.24-22.506,20.188-39.627,20.376-39.795l-0.106,1.001c-0.186,0.166-18.38,16.61-19.602,38.836
						c-0.67,12.173,3.896,23.793,13.571,34.536L599.239,177.464z"/>
				</g>
			</g>
		</g>
		<g id="XMLID_461_">
			<path id="XMLID_534_" style="fill:#5696D4;" d="M442.015,190.603c-12.438-20.889-31.965-49.648-43.132-45.609l0,0
				c-1.818,0.268-3.61,1.07-5.359,2.542c-10.367,8.724-1.813,22.492,3.05,31.837c6.728,12.443,16.315,28.499,25.326,39.199
				c3.133,3.378,5.043,5.662,7.366,7.824l20.281-22.513C445.79,195.983,447.586,198.052,442.015,190.603z"/>
			<g id="XMLID_531_">
				<path id="XMLID_533_" style="fill:#ECBB92;" d="M465.045,142.319l0.471,5.91c0.067,0.842,0.808,3.27,1.669,4.773l0.054,1.031
					c0.411,3.48,2.179,1.872,3.6-0.275c0.276-0.028,0.438-0.189,0.405-0.641c1.034-1.707,1.762-3.47,1.395-3.19
					c-1.29,0.985-1.613-2.455-2.273-6.002c-0.218-1.169-0.527-1.997-0.876-2.601c-0.357-0.931-1.288-1.567-2.328-1.486
					C465.897,139.938,464.944,141.054,465.045,142.319z"/>
				<path id="XMLID_532_" style="fill:#ECBB92;" d="M473.614,140.07c-0.805,0.734-1.892,1.711-2.848,2.672
					c-0.349,0.35-0.681,0.699-0.975,1.033l0.075,0.193c-0.562,0.683-1.148,1.282-1.71,1.833l-0.001,0l-1.547-0.944l-0.001,0
					l-0.055,0.068c-0.711,0.88-1.102,1.96-1.217,3.086c-0.115,1.127-0.363,2.284-0.667,3.384v0
					c-1.511,4.032-5.116,11.718-5.121,11.728l0.001,0l9.754,2.43c0,0,0,0,0,0c3.908-0.481,6.41-4.21,9.093-7.284l0,0l2.185-2.977
					l0.984-1.34c1.474-2.216,2.553-4.112,3.343-5.71c1.235-2.498,1.767-4.268,1.994-5.374c0.181-0.879-0.038-1.789-0.614-2.478
					c-0.904-1.081-2.622-2.792-5.296-4.123c-0.989-0.493-2.177-0.369-3.069,0.283C476.855,137.331,475.294,138.539,473.614,140.07z"
					/>
			</g>
			<path id="XMLID_530_" style="fill:#5696D4;" d="M418.457,199.961l10.804,26.435c2.077-1.578,4.185-3.368,6.881-6.335
				c14.669-16.141,27.742-35.35,37.671-55.107c-1.831-6.63-4.956-9.615-11.929-9.86c-8.091,9.691-18.264,18.955-26.814,27.774
				C429.031,189.095,424.014,193.873,418.457,199.961z"/>
			<g id="XMLID_504_">
				<g id="XMLID_522_">
					<g id="XMLID_525_">
						<path id="XMLID_528_" style="fill:#3D3D99;" d="M409.292,338.569c3.312-27.157,4.303-48.974,4.467-62.848
							c-1.646-0.675-3.382-1.636-4.593-2.981c-3.01-3.345-2.592-14.357-2.592-14.357l2.055-3.34l-13.218-3.89l-1.111,6.195
							l-8.867,0.716c0.009,4.87,0.012,10.47,0.007,16.597l-6.836,3.484v9.006l8.236,2.059c0,0-0.335,19.565-1.756,30.686
							c-0.575,4.5-1.821,10.356-3.101,15.733c0.789,6.331,1.401,10.659,1.401,10.659s-1.519,14.312-1.519,26.101
							c0,11.789,1.519,45.75,1.519,45.75v3.255l14.284,1.037l0.941-0.159h1.568c0.216-1.781,0.149-5.659,0.398-7.707
							c5.293-29.619,8.716-70.159,8.716-70.159C411.758,340.896,409.292,338.569,409.292,338.569z"/>
						<path id="XMLID_526_" style="fill:#2A2A80;" d="M386.842,289.211l-8.236-2.059v11.993c0.386,10.975,2.111,26.319,3.379,36.485
							c1.28-5.378,2.526-11.233,3.101-15.733C386.507,308.777,386.842,289.211,386.842,289.211z"/>
					</g>
					<path id="XMLID_523_" style="fill:#2A2A80;" d="M409.166,272.74c1.211,1.345,2.947,2.307,4.593,2.981
						c0.054-4.571,0.019-8.282-0.053-11.035c0.048-3.191,0.048-6.189-0.021-8.902l-1.99,0.16l-3.065-0.902l-2.055,3.34
						C406.574,258.383,406.156,269.395,409.166,272.74z"/>
				</g>
				<g id="XMLID_517_">
					<path id="XMLID_520_" style="fill:#3D3D99;" d="M390.299,262.35c0.531-2.442,0.733-3.791,0.532-3.792l-1.205-0.035
						l-2.116-12.022l-20.733,3.921l7.02,2.836l-8.111,6.856c0,0-0.836,8.947-4.682,14.967c-2.062,3.227-7.726,3.714-12.539,3.473
						c-0.025,0.239-0.067,0.484-0.086,0.721c-1.003,12.039-4.471,61.068-4.472,61.074v0c0,0-3.681,15.235-5.562,30.285
						c-1.881,15.05-4.59,52.359-4.59,52.359l15.829-0.001c0,0,6.791-25.895,12.089-42.826c5.298-16.932,7.358-37.919,7.358-37.919
						c10.983-28.861,16.472-44.984,16.472-44.984l7.274-20.826L390.299,262.35z"/>
					<path id="XMLID_518_" style="fill:#2A2A80;" d="M361.005,275.081c3.846-6.02,4.682-14.967,4.682-14.967l8.111-6.856
						l-7.02-2.836l-9.618,1.819c0,0-1.072,2.069-2.471,5.283l-0.532-0.015c0,0.227-0.045,0.76-0.127,1.56
						c-2.205,5.273-4.865,12.77-5.563,19.484C353.279,278.795,358.943,278.308,361.005,275.081z"/>
				</g>
				<g id="XMLID_513_">
					<path id="XMLID_516_" style="fill:#DB4B4B;" d="M350.412,424.971v-1.559c-0.116-2.905-2.546-5.177-5.452-5.097l-6.598,0.18
						c-2.566,0.07-4.714,1.966-5.101,4.503c-0.052,0.342-0.105,1.808-0.156,3.315C333.105,426.314,340.216,419.55,350.412,424.971z"
						/>
					<path id="XMLID_514_" style="fill:#FFFFFF;" d="M330.456,434.047h23.946c0,0,0.107-5.659-3.99-9.076
						c-10.196-5.421-17.306,1.343-17.306,1.343C330.369,429.691,330.456,434.047,330.456,434.047z"/>
				</g>
				<g id="XMLID_509_">
					<path id="XMLID_512_" style="fill:#DB4B4B;" d="M405.386,425.684l-2.457-3.052c-1.617-2.008-4.254-2.822-6.755-2.199
						c-3.524,0.878-7.322,0.72-11.616-1.315c-0.824,0.004-1.49,0.673-1.489,1.497l0.002,3.333l0.034,0.004l0.191,10.415
						l28.447,0.102c0.991-5.121,2.761-7.325,2.761-7.325L405.386,425.684z"/>
					<path id="XMLID_510_" style="fill:#FFFFFF;" d="M414.504,427.145c0,0-1.77,2.204-2.761,7.325l13.837,0.05
						C426.319,427.665,420.641,427.145,414.504,427.145z"/>
				</g>
				<polygon id="XMLID_507_" style="fill:#FFFFFF;" points="425.684,437.635 383.3,437.635 383.252,433.903 425.637,433.903 				"/>
				<polygon id="XMLID_505_" style="fill:#FFFFFF;" points="354.384,437.792 330.439,437.792 330.456,434.047 354.401,434.047 				
					"/>
			</g>
			<g id="XMLID_501_">
				<path id="XMLID_503_" style="fill:#5A9FF2;" d="M394.356,257.509c-17.346,2.896-33.721-2.089-41.205-4.944l0.381,5.102
					c0.068,0.917,0.691,1.701,1.57,1.97c7.768,2.374,44.496,12.465,59.435-3.985c0.358-0.394,0.549-0.906,0.562-1.438
					c0.068-2.932,0.159-5.965,0.264-9.067C411.035,250.605,404.395,255.833,394.356,257.509z"/>
				<path id="XMLID_502_" style="fill:#78D4F5;" d="M416.502,185.413l-5.51-20.794l-57.076,3.023l-5.028,20.372l2.645,42.88
					l1.618,21.672c7.484,2.855,23.859,7.839,41.205,4.944c10.039-1.676,16.679-6.904,21.007-12.361
					C416.173,221.366,417.839,202.162,416.502,185.413z"/>
			</g>
			<g id="XMLID_498_">
				<path id="XMLID_500_" style="fill:#78D4F5;" d="M395.835,136.779c0.331,4.907-0.925,12.024-10.916,12.297
					c-15.301,0.418-16.332-11.269-16.332-11.269l0.002-0.004c-13.394,7.343-31.175,12.1-30.946,24.507
					c0,0,0.476,10.253,7.552,10.115l35.848-0.7l14.837-0.7c20.309,0,20.309-11.163,20.309-11.163
					C415.949,148.156,408.771,143.401,395.835,136.779z"/>
				<path id="XMLID_499_" style="fill:#5A9FF2;" d="M384.919,149.076c9.992-0.273,11.247-7.39,10.916-12.297
					c-2.885-1.477-5.667-3.008-8.157-4.676c-2.243-1.503-6.713-3.296-7.465-2.93c-0.766-0.337-3.646,3.431-5.829,5.02
					c-1.772,1.29-3.733,2.48-5.794,3.61l-0.002,0.004C368.586,137.807,369.617,149.494,384.919,149.076z"/>
			</g>
			<g id="XMLID_495_">
				<path id="XMLID_497_" style="fill:#ECBB92;" d="M373.88,129.063c-0.081-3.926-0.559-8.533-1.357-13.586l17.145,0.909
					l1.487,17.058C383.443,134.214,377.471,131.447,373.88,129.063z"/>
				<path id="XMLID_496_" style="fill:#ECBB92;" d="M391.156,133.444l0.376,4.316c0.496,10.712-17.692,6.117-18.346-0.532
					c0.561-2.117,0.761-4.911,0.694-8.165C377.471,131.447,383.443,134.214,391.156,133.444z"/>
			</g>
			<path id="XMLID_494_" style="fill:#D5946B;" d="M392.571,129.807c0,0,2.386-19.919,0.398-25.601l-3.476-23.42
				c-1.989-5.682-6.79-10.646-12.211-9.719l-13.299,2.273c-5.421,0.926-9.315,7.761-7.327,13.443l12.88,32.996
				C371.525,125.461,378.616,132.063,392.571,129.807z"/>
			<path id="XMLID_493_" style="fill:#ECBB92;" d="M392.751,129.792l0.36-0.03c7.827-1.338,11.864-10.028,10.526-17.855
				l-3.764-35.577c-0.342-2.002-2.26-3.36-4.263-3.018l-26.548,4.537c-2.002,0.342-5.809,2.695-5.467,4.698l7.174,30.498
				C372.612,123.824,381.973,131.635,392.751,129.792z"/>
			<path id="XMLID_491_" style="fill:#182A48;" d="M399.307,96.228c0.47,2.013-0.172,3.884-1.432,4.178
				c-1.26,0.294-2.663-1.1-3.132-3.114c-0.469-2.013,0.172-3.884,1.432-4.177C397.436,92.821,398.838,94.215,399.307,96.228z"/>
			<path id="XMLID_489_" style="fill:#182A48;" d="M381.275,100.085c0.57,1.987,0.024,3.887-1.22,4.244
				c-1.244,0.357-2.715-0.965-3.285-2.952c-0.57-1.987-0.024-3.887,1.22-4.244C379.234,96.776,380.705,98.098,381.275,100.085z"/>
			<path id="XMLID_488_" style="fill:#D5946B;" d="M360.318,113.479c2.453,3.436,6.214,4.954,8.401,3.391
				c0.216-0.154,0.408-0.332,0.577-0.532c1.545-1.824,1.152-5.421-1.059-8.518c-2.453-3.435-6.214-4.954-8.401-3.391
				C357.65,105.992,357.866,110.044,360.318,113.479z"/>
			<g id="XMLID_485_">
				<path id="XMLID_487_" style="fill:#ECBB92;" d="M376.012,105.315c0,0,0.409-1.916,3.565-2.921
					c3.156-1.004,6.341,1.027,6.341,1.027l-4.247,2.923L376.012,105.315z"/>
				<path id="XMLID_486_" style="fill:#ECBB92;" d="M392.222,101.396c0,0,0.409-1.916,3.565-2.921
					c3.156-1.005,6.341,1.027,6.341,1.027l-4.248,2.923L392.222,101.396z"/>
			</g>
			<path id="XMLID_483_" style="fill:#182A48;" d="M346.841,80.871c-0.683-1.083-0.523-2.492,0.394-3.385
				c3.727-3.628,13.739-12.545,24.923-15.589c7.278-1.981,14.934-2.59,20.661-2.714c6.054-0.131,10.894,4.991,10.435,11.029
				c-0.187,2.458-0.653,5.333-1.566,8.627c-0.188,0.679-0.641,1.258-1.249,1.615c-1.352,0.795-4.334,2.154-10.351,3.443
				c-6.699,1.436-14.912,1.704-18.949,1.742c-1.403,0.013-2.556,1.107-2.664,2.506c-0.71,9.19-1.571,14.231-2.062,16.56
				c-0.211,1.002-0.966,1.791-1.955,2.055l0,0c-1.01,0.27-2.085-0.069-2.768-0.86c-3.473-4.021-5.806-7.125-8.658-15.091
				c-0.065-0.183-0.147-0.357-0.251-0.521C352.029,89.097,348.649,83.738,346.841,80.871z"/>
			<path id="XMLID_482_" style="fill:#FFFFFF;" d="M385.918,117.485c0,0,6.354-0.118,8.748-1.11c2.394-0.993,4.214-2.11,4.214-2.11
				s-1.684,5.006-4.655,5.999C391.254,121.257,385.918,117.485,385.918,117.485z"/>
			<g id="XMLID_480_">
				<path id="XMLID_481_" style="fill:#D5946B;" d="M392.13,111.341c0.293-0.071,2.884-0.732,3.775-2.265
					c0.315-0.541,0.39-1.142,0.218-1.739c-0.576-1.987-3.077-2.256-4.213-2.274l-1.942-5.742l-1.345,0.455l2.285,6.756l0.549-0.04
					c0.029-0.001,2.895-0.169,3.302,1.239c0.065,0.227,0.042,0.421-0.081,0.631c-0.499,0.858-2.292,1.455-2.88,1.597L392.13,111.341
					z"/>
			</g>
			<g id="XMLID_476_">
				<g>
					<path id="XMLID_478_" style="fill:#3D3D99;" d="M383.069,438.346h43.334l-0.057-4.45c0-2.429-0.78-4.328-2.317-5.636
						c-3.076-2.616-8.05-1.849-8.258-1.815l0.226,1.401c0.047-0.007,4.542-0.695,7.115,1.498c1.203,1.026,1.813,2.561,1.813,4.56
						l0.038,3.022h-41.895V438.346z"/>
				</g>
			</g>
			<g id="XMLID_474_">
				<path id="XMLID_475_" style="fill:#3D3D99;" d="M329.729,438.502h25.383v-4.454c0-10.26-8.959-11.53-9.049-11.542l-0.182,1.41
					c0.318,0.042,7.81,1.144,7.81,10.133v3.034h-22.542v-2.791c0-1.674,0.452-3.887,1.029-5.037l-1.271-0.638
					c-0.671,1.342-1.179,3.78-1.179,5.675V438.502z"/>
			</g>
			<g id="XMLID_472_">
				<rect id="XMLID_473_" x="340.656" y="433.338" style="fill:#3D3D99;" width="13.745" height="1.421"/>
			</g>
			<path id="XMLID_471_" style="fill:#3E91E5;" d="M350.572,150.232c0,0,25.265,16.724,40.805,44.462l-5.46,2.761L350.572,150.232z"
				/>
			<path id="XMLID_470_" style="fill:#5A9FF2;" d="M389.493,195.978c-12.438-20.889-31.965-49.648-43.132-45.609l0,0
				c-1.818,0.268-3.61,1.07-5.359,2.542c-10.367,8.724-1.813,22.492,3.05,31.837c6.728,12.443,16.315,28.5,25.326,39.199
				c3.133,3.378,5.043,5.662,7.366,7.824l20.281-22.513C393.268,201.359,395.064,203.428,389.493,195.978z"/>
			<path id="XMLID_469_" style="fill:#263DA0;" d="M426.951,176.451c0.701-1.459,2.746-4.444,4.531-3.586
				c6.279,3.016,9.252,9.146,8.196,15.727c-0.368,2.291-3.287,1.515-4.652,2.44C434.882,184.02,432.763,180.272,426.951,176.451z"/>
			<g id="XMLID_466_">
				<path id="XMLID_468_" style="fill:#D4D6D6;" d="M408.152,191.546h59.462c0.636,0,1.195-0.419,1.373-1.029l23.442-80.259
					c0.268-0.916-0.419-1.832-1.373-1.832h-59.462c-0.636,0-1.195,0.419-1.373,1.029l-23.442,80.259
					C406.511,190.63,407.198,191.546,408.152,191.546z"/>
				
					<ellipse id="XMLID_467_" transform="matrix(0.3061 -0.952 0.952 0.3061 169.188 532.0945)" style="fill:#C0C4C4;" cx="449.604" cy="149.986" rx="10.358" ry="5.558"/>
			</g>
			<g id="XMLID_463_">
				<path id="XMLID_465_" style="fill:#ECBB92;" d="M412.523,147.695l0.471,5.91c0.067,0.842,0.808,3.27,1.669,4.773l0.054,1.031
					c0.411,3.48,2.179,1.872,3.6-0.275c0.277-0.028,0.438-0.189,0.405-0.641c1.034-1.707,1.762-3.47,1.395-3.19
					c-1.29,0.985-1.613-2.455-2.273-6.002c-0.218-1.169-0.527-1.997-0.876-2.601c-0.357-0.931-1.288-1.567-2.328-1.486
					C413.375,145.314,412.423,146.43,412.523,147.695z"/>
				<path id="XMLID_464_" style="fill:#ECBB92;" d="M421.092,145.446c-0.805,0.734-1.892,1.711-2.848,2.672
					c-0.349,0.35-0.682,0.699-0.975,1.033l0.075,0.193c-0.562,0.683-1.148,1.282-1.71,1.833l-0.001,0l-1.547-0.944
					c0,0-0.001,0-0.001,0l-0.055,0.068c-0.711,0.88-1.102,1.96-1.217,3.086c-0.115,1.127-0.363,2.284-0.667,3.384v0
					c-1.511,4.032-5.116,11.718-5.121,11.729c0,0,0,0,0,0l9.754,2.43c0,0,0,0,0,0c3.908-0.481,6.41-4.21,9.093-7.284l0,0
					l2.185-2.977l0.984-1.34c1.474-2.216,2.553-4.111,3.343-5.71c1.235-2.498,1.767-4.268,1.994-5.374
					c0.181-0.879-0.038-1.789-0.613-2.478c-0.904-1.081-2.622-2.792-5.296-4.123c-0.989-0.493-2.177-0.369-3.07,0.283
					C424.333,142.706,422.773,143.914,421.092,145.446z"/>
			</g>
			<path id="XMLID_462_" style="fill:#5A9FF2;" d="M365.935,205.337l10.804,26.435c2.077-1.578,4.184-3.368,6.881-6.335
				c14.669-16.141,27.742-35.35,37.671-55.107c-1.831-6.63-4.956-9.615-11.929-9.86c-8.091,9.691-18.264,18.954-26.814,27.773
				C376.51,194.471,371.492,199.249,365.935,205.337z"/>
		</g>
		<g id="XMLID_370_">
			<path id="XMLID_459_" style="fill:#182A48;" d="M217.319,68.938c-26.818,0-34.537,12.891-29.423,38.946
				c5.114,26.055,8.132,36.458-7.238,48.55c-15.371,12.092-16.107,27.628-6.417,40.6c9.69,12.973-8.684,37.435,8.542,49.951
				c17.226,12.516,20.656-10.203,37.951-15.218c25.959-7.526,29.458-56.203,25.959-69.432
				c-3.499-13.229-16.947-19.715-11.649-36.063c5.297-16.348,11.35-22.165,10.094-34.187
				C243.499,76.391,234.001,68.938,217.319,68.938z"/>
			<path id="XMLID_458_" style="fill:#E3A17F;" d="M310.324,150.479c0,0-28.398,17.57-37.57,23.185
				c-1.881,1.151-3.89,2.522-5.899,3.963c-2.387-3.687-5.532-8.55-7.626-11.809c-3.169,3.119-6.675,5.879-10.392,8.331
				c-1.524,1.006-3.081,1.962-4.666,2.867l-0.018,0.12c0,0,1.32,1.694,3.417,4.117c3.775,4.359,10.078,11.087,15.81,14.607
				c0,0,8.274-4.637,21.829-14.774c6.758-5.054,14.827-11.475,23.844-19.376c5.876-4.621,9.743-7.648,9.743-7.648L310.324,150.479z"
				/>
			<path id="XMLID_457_" style="fill:#E3A17F;" d="M323.45,152.125c-0.967,0.974-6.454,3.768-8.418,4.752
				c-0.489,0.245-3.087,1.247-3.557,1.524l-12.152,9.448c-9.986,2.265,7.444-14.064,8.21-15.227l0.248-0.358
				c0.103-0.078,0.157-0.12,0.157-0.12s4.436-9.967,6.96-12.149c0,0,1.044,0.117,1.246,1.129c0.202,1.013-1.564,4.691-1.564,4.691
				s8.285-8.062,9.868-8.503c1.583-0.441,5.58,2.963,6.404,4.489C331.674,143.327,324.63,150.934,323.45,152.125z"/>
			<path id="XMLID_456_" style="fill:#BE2727;" d="M264.129,170.923c0,0-12.281-22.03-26.966-22.162
				c0.104,0.722,1.318,2.601,1.318,2.601l4.089,10.431l-0.881,18.622l-1.592,0.506c2.225,3.296,3.897,5.418,3.897,5.418
				S254.5,182.19,264.129,170.923z"/>
			
				<rect id="XMLID_455_" x="315.759" y="138.489" transform="matrix(0.928 0.3727 -0.3727 0.928 78.2459 -109.3168)" style="fill:#87C3ED;" width="12.251" height="18.49"/>
			<g id="XMLID_442_">
				<path id="XMLID_453_" style="fill:#9FA5A8;" d="M323.705,165.106l-12.353-4.961c-0.76-0.305-1.129-1.169-0.824-1.93
					l9.545-23.766c0.305-0.76,1.169-1.129,1.929-0.824l12.353,4.961c0.76,0.305,1.129,1.169,0.824,1.93l-9.545,23.766
					C325.329,165.043,324.466,165.411,323.705,165.106z"/>
				<path id="XMLID_451_" style="fill:#B2B7BA;" d="M322.218,164.509l-12.353-4.961c-0.76-0.305-1.129-1.169-0.824-1.93
					l9.545-23.766c0.305-0.76,1.169-1.129,1.93-0.824l12.353,4.961c0.76,0.305,1.129,1.169,0.824,1.93l-9.545,23.766
					C323.842,164.445,322.978,164.814,322.218,164.509z"/>
				<path id="XMLID_449_" style="fill:#9FA5A8;" d="M318.409,160.764l-3.204-1.287c-0.364-0.146-0.54-0.56-0.394-0.923l0,0
					c0.146-0.364,0.56-0.54,0.923-0.394l3.204,1.287c0.364,0.146,0.54,0.56,0.394,0.923l0,0
					C319.187,160.734,318.773,160.91,318.409,160.764z"/>
				<g id="XMLID_443_">
					<polygon id="XMLID_448_" style="fill:#87C3ED;" points="324.392,159.873 327.357,152.492 313.805,155.621 					"/>
					<polygon id="XMLID_447_" style="fill:#AADCF5;" points="311.5,154.696 313.805,155.621 327.357,152.492 328.755,149.01 
						312.254,152.82 					"/>
					<polygon id="XMLID_446_" style="fill:#AADCF5;" points="317.111,140.725 315.713,144.207 332.181,140.404 327.186,138.398 
											"/>
					<polygon id="XMLID_445_" style="fill:#87C3ED;" points="312.254,152.82 328.755,149.01 332.207,140.415 332.181,140.404 
						315.713,144.207 					"/>
					<polygon id="XMLID_444_" style="fill:#87C3ED;" points="319.315,135.237 317.111,140.725 327.186,138.398 					"/>
				</g>
			</g>
			<g id="XMLID_430_">
				<polygon id="XMLID_441_" style="fill:#E3A17F;" points="187.804,426.321 197.036,428.831 199.06,431.991 193.432,433.636 
					187.379,432.445 186.642,429.865 				"/>
				<polygon id="XMLID_440_" style="fill:#E3A17F;" points="245.942,426.321 255.174,428.831 257.198,431.991 251.571,433.636 
					245.517,432.445 244.78,429.865 				"/>
				<g id="XMLID_435_">
					<path id="XMLID_439_" style="fill:#E3A17F;" d="M185.156,427.634l-0.016-0.001c0,0,0.677-46.356,1.503-60.28
						c0.826-13.924,4.503-19.319,4.503-19.319s0.792-44.115,2.511-68.525c0.509-7.234,3.681-11.191,7.88-13.201l2.553-20.606
						l23.931-7.857l1.875-0.616l-1.429,7.84l-3.972,21.783c1.743,0.543,2.812,0.967,2.812,0.967s0.6,32.146-18.06,82.665
						c0,0-4.518,36.72-14.352,77.764l-0.85-0.054l-0.165,0.835l-8.865,0.587L185.156,427.634z"/>
					<path id="XMLID_438_" style="fill:#E3A17F;" d="M243.368,430.127l-0.016,0.002c0,0-7.85-45.691-9.595-59.53
						c-1.746-13.839,0.878-19.817,0.878-19.817s-7.325-43.509-10.119-67.82c-0.828-7.205,1.563-11.677,5.321-14.423l-1.276-20.724
						l22.081-12.119l1.73-0.95l0.035,7.969l0.097,22.142c1.814,0.213,2.942,0.434,2.942,0.434s6.495,31.489-2.568,84.576
						c0,0,2.304,36.925,0.177,79.077l-0.846,0.103l-0.009,0.851l-8.606,2.205L243.368,430.127z"/>
					<path id="XMLID_436_" style="fill:#3D3D99;" d="M187.044,280.646c7.227-18.419,2.947-44.124,19.502-59.656
						c1.349-1.368,2.225-1.936,2.225-1.936l0.4-4.182l7.213,0.431c2.838-0.688,6.601-1.139,11.572-0.93
						c9.121,0.382,14.328,1.679,17.02,2.637l2.341,0.14c0,0,0.582,1.115,1.468,3.11c9.073,14.6,10.436,29.502,11.291,45.988
						c0.897,17.299,9.151,49.059,9.151,49.059s-16.508,12.381-42.886,9.69c-26.377-2.691-34.632-7.716-47.731-5.921
						C178.611,319.075,178.666,301.999,187.044,280.646z"/>
				</g>
				<path id="XMLID_433_" style="fill:#3D3D99;" d="M183.665,438.502h34.706c0,0-0.09-2.968-1.298-4.573
					c-1.208-1.604-17.434-4.6-20.037-5.099c0,0-0.465,1.711-3.098,2.175c-2.633,0.464-8.204-3.054-8.204-3.054l-0.594-0.319
					L183.665,438.502"/>
				<path id="XMLID_431_" style="fill:#3D3D99;" d="M241.917,438.502h35.874c0,0-0.09-2.968-1.298-4.573
					c-1.208-1.604-18.732-4.6-21.335-5.099c0,0-0.465,1.711-3.098,2.175c-2.634,0.464-8.204-3.054-8.204-3.054l-0.869-0.319
					L241.917,438.502"/>
			</g>
			<path id="XMLID_429_" style="fill:#E3A17F;" d="M210.625,144.893c1.631-1.235,6.205-2.621,6.822-2.434
				c0.571-0.3,5.323,0.206,7.157,1.115c5.44,2.695,10.805,4.305,14.995,6.395c-0.9,2.708-1.442,5.686-2.132,8.093
				c-1.207,4.216-2.033,8.367-2.742,12.582l-14.496,1.309l-28.064,2.648c-5.54,0.523-6.426-6.567-6.426-6.567
				C184.816,158.11,200.698,152.41,210.625,144.893z"/>
			<path id="XMLID_428_" style="fill:#CA7A5A;" d="M224.308,136.113c0,0,5.974-18.549,5.132-24.336l1.034-22.977
				c-0.841-5.787-4.498-11.411-9.839-11.535l-13.103-0.302c-5.341-0.123-10.323,5.67-9.482,11.457l7.404,33.802
				C206.297,128.01,210.584,135.672,224.308,136.113z"/>
			<path id="XMLID_427_" style="fill:#E3A17F;" d="M224.483,136.132l0.349,0.038c7.712,0.178,13.914-6.235,14.092-13.947
				l2.071-26.829c0.159-6.876-5.337-12.631-12.213-12.789l-17.242-0.398c-1.973-0.045-6.039,1.491-6.085,3.464l2.167,30.453
				C207.378,126.743,213.864,135.887,224.483,136.132z"/>
			<path id="XMLID_425_" style="fill:#182A48;" d="M236.573,107.363c0.074,2.007-0.885,3.671-2.141,3.717
				c-1.256,0.046-2.334-1.543-2.408-3.55c-0.074-2.007,0.885-3.671,2.141-3.718C235.421,103.766,236.5,105.356,236.573,107.363z"/>
			<path id="XMLID_423_" style="fill:#182A48;" d="M218.664,107.691c0.174,2.001-0.699,3.711-1.952,3.82
				c-1.252,0.109-2.409-1.424-2.584-3.424c-0.175-2.001,0.699-3.711,1.952-3.82C217.332,104.157,218.489,105.691,218.664,107.691z"
				/>
			<path id="XMLID_422_" style="fill:#CA7A5A;" d="M196.588,114.555c1.701,3.731,5.005,5.877,7.38,4.794
				c0.234-0.107,0.451-0.241,0.649-0.4c1.812-1.452,2.105-4.955,0.572-8.318c-1.701-3.731-5.005-5.877-7.38-4.794
				C195.434,106.921,194.887,110.824,196.588,114.555z"/>
			<path id="XMLID_420_" style="fill:#41332C;" d="M220.469,83.132"/>
			<g id="XMLID_417_">
				<path id="XMLID_419_" style="fill:#E3A17F;" d="M212.138,111.325c0,0,0.838-1.832,4.229-2.135
					c3.391-0.303,6.134,2.447,6.134,2.447l-4.915,1.985L212.138,111.325z"/>
				<path id="XMLID_418_" style="fill:#E3A17F;" d="M229.279,111.012c0,0,0.838-1.832,4.229-2.135
					c3.391-0.303,6.134,2.447,6.134,2.447l-4.915,1.985L229.279,111.012z"/>
			</g>
			<g id="XMLID_409_">
				<g>
					<g id="XMLID_412_">
						<polygon style="fill:#182A48;" points="215.799,104.719 213.014,104.443 214.704,106.215 						"/>
					</g>
					<g id="XMLID_411_">
						<polygon style="fill:#182A48;" points="234.579,104.081 237.379,104.096 235.505,105.683 						"/>
					</g>
				</g>
			</g>
			<polygon id="XMLID_407_" style="fill:#182A48;" points="216.024,104.592 214.655,103.53 214.796,105.12 213.014,105.812 
				214.458,106.89 			"/>
			<polygon id="XMLID_405_" style="fill:#182A48;" points="234.598,104.199 235.967,103.137 235.826,104.726 237.608,105.419 
				235.92,106.139 			"/>
			<g id="XMLID_403_">
				<path id="XMLID_404_" style="fill:#CA7A5A;" d="M227.671,126.273c1.573,0,2.814-0.164,2.892-0.174l-0.176-1.312
					c-0.026,0.005-2.732,0.359-5.114,0.001c-2.231-0.334-3.672-1.877-3.686-1.893l-0.979,0.892c0.07,0.077,1.758,1.904,4.468,2.31
					C225.954,126.229,226.857,126.273,227.671,126.273z"/>
			</g>
			<g id="XMLID_401_">
				<path id="XMLID_402_" style="fill:#CA7A5A;" d="M219.566,125.087c2.507-1.045,2.913-3.421,2.928-3.522l-1.307-0.212
					c-0.012,0.071-0.322,1.759-2.131,2.513L219.566,125.087z"/>
			</g>
			<g id="XMLID_386_">
				<path id="XMLID_400_" style="fill:#E3A17F;" d="M184.391,188.391c0.672-0.125,1.317-0.377,1.934-0.701
					c2.996,0.723,7.993-2.515,10.847-1.946c-0.465,7.578-1.388,20.448-2.255,28.16c0,0,1.371,13.329,0.81,22.17
					c-0.561,8.841-2.176,24.147-2.176,24.147l-6.426,16.168c0,0-3.313-43.116-4.739-63.49c0,0-0.497-13.713-1.244-25.842
					C181.938,187.16,183.556,188.545,184.391,188.391z"/>
				<g id="XMLID_388_">
					<g id="XMLID_389_">
						<path id="XMLID_399_" style="fill:#E3A17F;" d="M219.372,152.94L219.372,152.94c4.092-0.131,7.303-3.554,7.172-7.646
							l-0.59-18.448l-14.818,0.474l0.59,18.449C211.856,149.86,215.28,153.071,219.372,152.94z"/>
						<g id="XMLID_397_">
							<path id="XMLID_398_" style="fill:#DB4B4B;" d="M250.129,194.214c6.618-8.583,2.69-16.523-0.974-21.488
								c-2.869-3.887-5.022-8.25-6.495-12.852l-5.47-10.902l-9.809,21.819l-26.607-19.26l-6.52,22.911l14.517,44.612
								c5.608,0.861,27.104,3.719,38.633-0.953C246.523,209.06,246.541,198.867,250.129,194.214z"/>
						</g>
						<path id="XMLID_396_" style="fill:#BE2727;" d="M249.088,195.538c0,0-4.029,4.193-14.161,2.425c0,0,5.587,4.565,12.635,2.576
							L249.088,195.538z"/>
						<path id="XMLID_395_" style="fill:#BE2727;" d="M226.299,197.169c0,0-13.46,4.59-20.897-1.192l3.659,5.819
							C209.061,201.796,219.598,203.059,226.299,197.169z"/>
						<g id="XMLID_392_">
							<path id="XMLID_394_" style="fill:#DB4B4B;" d="M200.714,151.226l-0.037,0.023l0.098,0.281c0,0-11.241,9.494-12.828,20.326
								c-0.887,6.048-1.482,15.35-1.836,22.389c2.45,0.955,5.782,1.588,10.573,1.394c0.057-0.224,0.115-0.447,0.172-0.673
								c1.457-5.7,2.927-11.738,4.39-18.154l2.27-15.051L200.714,151.226z"/>
							<path id="XMLID_393_" style="fill:#BE2727;" d="M200.774,151.531l-0.098-0.281l-8.917,5.609
								c-4.323,3.027-9.275,10.636-9.569,15.906c-0.325,5.836-0.803,11.408-1.388,16.716c-0.046,0.419-0.097,0.827-0.144,1.242
								c1.26,1.144,2.862,2.513,5.452,3.522c0.354-7.039,0.949-16.341,1.836-22.389
								C189.534,161.025,200.774,151.531,200.774,151.531z"/>
						</g>
						<g id="XMLID_390_">
							<path id="XMLID_391_" style="fill:#BE2727;" d="M198.348,187.022l3.218-12.593c1.827,10.109,1.255,20.334,8.27,26.968
								c0.172,0.531,0.352,1.056,0.54,1.574c1.669,4.628,1.952,11.432,2.672,16.668c-1.818-0.222-3.295-0.434-4.277-0.585
								L198.348,187.022z"/>
						</g>
					</g>
				</g>
				<path id="XMLID_387_" style="fill:#E3A17F;" d="M195.854,231.768c-0.43,23.733-2.851,37.837-2.851,37.837
					s4.108,7.994,4.214,10.737c0,0-0.608,0.607-1.359,0.211c-0.751-0.396-2.201-3.428-2.201-3.428s0.923,9.467,0.396,10.706
					c-0.527,1.24-4.747,2.031-6.144,1.767c-1.398-0.264-2.664-8.702-2.822-10.074c-0.158-1.371,1.398-8.465,1.398-8.465
					l3.349-20.833L195.854,231.768z"/>
			</g>
			<path id="XMLID_385_" style="fill:#FFFFFF;" d="M201.439,119.015c0,0.97,0.786,1.756,1.756,1.756c0.97,0,1.756-0.786,1.756-1.756
				c0-0.97-0.786-1.756-1.756-1.756C202.225,117.259,201.439,118.045,201.439,119.015z"/>
			<path id="XMLID_383_" style="fill:#182A48;" d="M217.904,92.915c0,0-1.94,5.877-7.789,8.119
				c-5.849,2.243-5.531,10.046-5.531,10.046s-2.22-6.156-6.359-5.398c0,0-9.051-15.414-3.869-25.104
				c5.181-9.69,30.482-11.333,39.432-4.284c8.949,7.049,10.571,14.648,6.474,28.587c0,0-3.685-6.337-13.006-6.673
				C219.99,97.946,217.904,92.915,217.904,92.915z"/>
			<path id="XMLID_382_" style="fill:#DB4B4B;" d="M232.706,147.051c0,0-2.866,20.084-5.961,21.161
				c-3.095,1.077-24.09-18.41-24.09-18.41s-1.064,0.701-1.979,1.447c-0.915,0.746-0.578,12.566-0.578,12.566
				s15.208,15.118,27.589,15.118c12.381,0,11.913-27.095,11.913-27.095L232.706,147.051z"/>
			<g id="XMLID_378_">
				<path id="XMLID_379_" style="fill:#FFFFFF;" d="M210.395,144.909c-0.1-0.246-0.001-0.529,0.229-0.661
					c0.23-0.133,0.523-0.074,0.687,0.136c2.085,2.696,8.092,9.801,10.797,10.295c0.308,0.054,0.609-0.024,0.916-0.246
					c1.948-1.412,3.167-7.549,3.474-9.795c0.035-0.264,0.261-0.46,0.526-0.461c0.001,0,0.001,0,0.001,0
					c0.266,0,0.491,0.196,0.527,0.459c1.004,7.208,3.965,30.776-0.072,31.415c-0.05,0.008-0.101,0.012-0.153,0.012
					C223.276,176.063,213.367,152.277,210.395,144.909z M223.649,155.295c-0.545,0.395-1.125,0.543-1.733,0.432
					c-2.475-0.452-6.589-4.86-9.174-7.899c5.875,14.117,12.628,27.532,14.57,27.17c1.892-0.298,1.289-13.629-0.379-26.909
					C226.333,150.71,225.272,154.117,223.649,155.295z"/>
			</g>
			<path id="XMLID_377_" style="fill:#FFFFFF;" d="M225.687,178.079c0.187,1.35,1.203,2.324,2.271,2.177
				c1.068-0.148,1.782-1.361,1.595-2.711c-0.187-1.35-1.203-2.324-2.271-2.177C226.214,175.515,225.5,176.729,225.687,178.079z"/>
			<path id="XMLID_375_" style="fill:#182A48;" d="M185.874,267.451l7.908,0.374c0.47,0.022,0.873-0.344,0.895-0.814l0.068-1.429
				c0.022-0.47-0.344-0.873-0.814-0.895l-7.908-0.374c-0.47-0.022-0.873,0.344-0.895,0.814l-0.068,1.429
				C185.037,267.026,185.404,267.428,185.874,267.451z"/>
			<path id="XMLID_374_" style="fill:#A8EFFA;" d="M187.576,267.175l4.536,0.215c0.433,0.02,0.803-0.317,0.824-0.749l0.04-0.855
				c0.02-0.432-0.317-0.803-0.749-0.824l-4.536-0.215c-0.433-0.021-0.803,0.317-0.824,0.749l-0.04,0.855
				C186.807,266.784,187.144,267.155,187.576,267.175z"/>
			<g id="XMLID_372_">
				<path id="XMLID_373_" style="fill:#CA7A5A;" d="M229.129,118.234c0.35-0.083,3.404-0.868,2.976-2.818
					c-0.301-1.358-1.805-1.747-2.673-1.859l-0.821-4.518l-1.398,0.254l1.025,5.632l0.585,0.008c0.541,0.008,1.769,0.217,1.895,0.789
					c0.075,0.342-0.992,0.907-1.917,1.13L229.129,118.234z"/>
			</g>
			<path id="XMLID_371_" style="fill:#DB4B4B;" d="M253.258,180.947c0,0-4.401-32.338-20.552-33.896
				c0.104,0.722,5.776,4.311,5.776,4.311l4.089,10.431l-0.881,18.622l-1.592,0.506c2.225,3.296,3.897,5.418,3.897,5.418
				S243.628,192.215,253.258,180.947z"/>
		</g>
		<g id="XMLID_2_">
			<path id="XMLID_369_" style="fill:#B37F6A;" d="M132.631,166.691c-0.627,0.019-1.253-0.083-1.869-0.252
				c-2.544,1.229-7.65-0.703-10.097,0.362c1.888,6.7,5.212,18.053,7.486,24.796c0,0,1.359,12.21,3.577,20.023
				c2.219,7.813,6.637,21.215,6.637,21.215l8.896,13.24c0,0-5.399-39.278-8.076-57.811c0,0-2.216-12.384-3.901-23.398
				C134.591,165.112,133.409,166.667,132.631,166.691z"/>
			<path id="XMLID_368_" style="fill:#DFAA51;" d="M107.207,145.814L107.207,145.814c2.829-0.603,8.046-2.329,11.645-1.629
				l0.637,0.187c4.786,1.408,9.101,4.223,12.046,8.25c1.034,1.415,1.823,2.868,2.194,4.214c1.315,4.769,2.708,9.292,4.143,13.578
				c0.113,0.339,0.228,0.666,0.342,1.002c-0.837,1.172-1.917,2.592-3.878,3.89c-1.855,1.229-4.499,2.349-8.496,3.047h0
				c-2.308-4.606-4.694-9.512-7.146-14.755l-7.113-11.035L107.207,145.814z"/>
			<path id="XMLID_367_" style="fill:#B37F6A;" d="M130.779,207.784c4.992,21.183,9.898,33.351,9.898,33.351
				s-2.13,7.961-1.692,10.439c0,0,0.663,0.425,1.259-0.075c0.596-0.5,1.307-3.499,1.307-3.499s1.01,8.662,1.724,9.671
				c0.713,1.008,4.648,0.898,5.849,0.391c1.201-0.508,0.698-8.315,0.573-9.574c-0.124-1.259-2.895-7.314-2.895-7.314l-7.045-18.018
				L130.779,207.784z"/>
			<g id="XMLID_325_">
				<polygon id="XMLID_366_" style="fill:#B37F6A;" points="70.416,426.254 79.698,428.777 81.733,431.956 76.075,433.609 
					69.988,432.412 69.247,429.818 				"/>
				<polygon id="XMLID_365_" style="fill:#B37F6A;" points="128.873,426.254 138.155,428.777 140.191,431.956 134.532,433.609 
					128.446,432.412 127.704,429.818 				"/>
				<g id="XMLID_340_">
					<path id="XMLID_364_" style="fill:#B37F6A;" d="M67.752,427.574l-0.016-0.001c0,0,0.681-46.61,1.511-60.611
						c0.83-14.001,4.528-19.425,4.528-19.425s0.797-44.357,2.525-68.902c0.512-7.274,3.701-11.253,7.923-13.273l2.567-20.719
						l24.063-7.9l1.885-0.619l-1.437,7.883l-3.994,21.903c1.753,0.546,2.828,0.972,2.828,0.972s0.604,32.323-18.159,83.12
						c0,0-4.543,36.922-14.431,78.191l-0.855-0.054l-0.166,0.84l-8.913,0.59L67.752,427.574z"/>
					<path id="XMLID_358_" style="fill:#B37F6A;" d="M126.284,430.081l-0.016,0.002c0,0-7.893-45.942-9.648-59.857
						c-1.756-13.915,0.883-19.926,0.883-19.926s-7.365-43.749-10.174-68.193c-0.833-7.244,1.571-11.741,5.35-14.503l-1.282-20.838
						l22.202-12.186l1.74-0.955l0.035,8.012l0.098,22.264c1.824,0.214,2.958,0.436,2.958,0.436s6.531,31.662-2.582,85.041
						c0,0,2.317,37.128,0.178,79.512l-0.85,0.104l-0.009,0.856l-8.653,2.217L126.284,430.081z"/>
					<path id="XMLID_344_" style="fill:#78D4F5;" d="M76.901,246.139c4.75-21.952,14.597-28.291,14.597-28.291l0.401-4.205
						l38.355,2.289c0,0,7.45,14.261,9.654,32.151c2.204,17.89,4.537,46.41,4.537,46.41s-2.099,0.34-3.881,0.846
						c-4.401,1.25-13.865,3.547-26.746,4.469c-11.234,0.805-23.776-1.221-31.675-2.874c-4.824-1.009-7.919-1.879-7.919-1.879
						S72.151,268.091,76.901,246.139z"/>
				</g>
				<path id="XMLID_337_" style="fill:#78D4F5;" d="M66.253,438.502h34.896c0,0-0.091-2.984-1.305-4.598
					c-1.215-1.613-17.53-4.625-20.147-5.127c0,0-0.467,1.721-3.115,2.187c-2.648,0.466-8.249-3.071-8.249-3.071l-0.598-0.321
					L66.253,438.502"/>
				<path id="XMLID_335_" style="fill:#78D4F5;" d="M124.826,438.502h36.071c0,0-0.091-2.984-1.305-4.598
					c-1.215-1.613-18.835-4.625-21.452-5.127c0,0-0.467,1.721-3.115,2.187c-2.648,0.466-8.249-3.071-8.249-3.071l-0.874-0.321
					L124.826,438.502"/>
			</g>
			<path id="XMLID_323_" style="fill:#B37F6A;" d="M93.362,143.28c1.64-1.242,6.239-2.636,6.86-2.447
				c0.575-0.301,5.353,0.208,7.196,1.121c5.47,2.71,10.865,4.329,15.077,6.43c-0.904,2.723-1.45,5.717-2.143,8.137
				c-1.214,4.239-2.044,8.413-2.757,12.651l-14.576,1.316l-28.218,2.663c-5.57,0.526-6.461-6.603-6.461-6.603
				C67.411,156.569,83.38,150.838,93.362,143.28z"/>
			<path id="XMLID_317_" style="fill:#9A6053;" d="M107.12,134.451c0,0,6.007-18.651,5.161-24.469l1.039-23.103
				c-0.846-5.819-4.523-11.474-9.892-11.598l-13.175-0.303c-5.37-0.124-10.38,5.701-9.534,11.52l7.445,33.987
				C89.01,126.304,93.321,134.008,107.12,134.451z"/>
			<path id="XMLID_305_" style="fill:#B37F6A;" d="M107.296,134.47l0.351,0.038c7.754,0.179,13.991-6.27,14.169-14.024l2.082-26.977
				c0.159-6.913-5.367-12.7-12.28-12.86l-17.336-0.4c-1.983-0.046-6.072,1.499-6.118,3.483l2.179,30.62
				C90.097,125.03,96.618,134.224,107.296,134.47z"/>
			<path id="XMLID_288_" style="fill:#51361C;" d="M104.423,82.327c0,0-4.913,7.919-11.884,16.61
				c-6.644,8.283-5.671,14.543-5.88,20.948c0,0-24.908-46.278,11.436-46.7L104.423,82.327z"/>
			<path id="XMLID_286_" style="fill:#9A6053;" d="M79.247,112.775c1.71,3.752,5.032,5.91,7.421,4.82
				c0.236-0.108,0.453-0.243,0.653-0.402c1.822-1.46,2.117-4.982,0.575-8.364c-1.71-3.752-5.033-5.91-7.421-4.82
				C78.087,105.099,77.537,109.024,79.247,112.775z"/>
			<path id="XMLID_280_" style="fill:#403630;" d="M103.259,81.179"/>
			<path id="XMLID_274_" style="fill:#51361C;" d="M101.4,83.68c0,0,19.92,12.9,25.015,23.416c0,0,8.832-41.794-28.32-33.911
				L101.4,83.68z"/>
			<path id="XMLID_267_" style="fill:#51361C;" d="M97.271,84.306c0,0,4.735,2.724,14.077,12.229c0,0,0.991-9.213-2.193-16.868
				c-3.184-7.655-10.434-2.61-10.434-2.61L97.271,84.306z"/>
			<g id="XMLID_211_">
				<path id="XMLID_265_" style="fill:#B37F6A;" d="M102.156,151.371L102.156,151.371c4.115-0.132,7.343-3.574,7.212-7.689
					l-0.593-18.549l-14.9,0.476l0.593,18.55C94.6,148.274,98.042,151.503,102.156,151.371z"/>
				<g id="XMLID_249_">
					<path id="XMLID_251_" style="fill:#EDC16A;" d="M133.083,192.871c6.655-8.63,2.705-16.614-0.98-21.606
						c-2.885-3.909-5.049-8.295-6.53-12.922l-4.908-13.592L110.21,169.32l-26.753-19.366l-6.556,23.037l14.597,44.858
						c5.639,0.866,27.253,3.739,38.845-0.958C129.457,207.799,129.475,197.55,133.083,192.871z"/>
				</g>
				<path id="XMLID_243_" style="fill:#DFAA51;" d="M132.036,194.203c0,0-4.051,4.216-14.239,2.439c0,0,5.618,4.59,12.704,2.59
					L132.036,194.203z"/>
				<path id="XMLID_237_" style="fill:#DFAA51;" d="M109.121,195.842c0,0-13.534,4.616-21.011-1.198l3.679,5.851
					C91.789,200.495,102.384,201.765,109.121,195.842z"/>
				<g id="XMLID_219_">
					<path id="XMLID_236_" style="fill:#DFAA51;" d="M81.017,185.64l3.236-12.662c1.837,10.165,1.262,20.446,8.316,27.117
						c0.173,0.533,0.354,1.061,0.542,1.583c1.679,4.654,1.963,11.495,2.687,16.759c-1.827-0.223-3.313-0.437-4.3-0.588
						L81.017,185.64z"/>
				</g>
				<path id="XMLID_213_" style="fill:#EDC16A;" d="M83.457,149.954c0,0,15.152,9.548,23.762,8.436
					c8.61-1.112,6.101-13.933,6.101-13.933s4.65-1.216,7.345,0.293c0,0,3.146,29.233-7.345,29.233
					C102.829,173.984,82.672,161.045,83.457,149.954z"/>
			</g>
			<path id="XMLID_209_" style="fill:#EDC16A;" d="M84.125,117.259c0,0.975,0.791,1.766,1.765,1.766c0.975,0,1.766-0.79,1.766-1.766
				c0-0.975-0.79-1.765-1.766-1.765C84.916,115.494,84.125,116.284,84.125,117.259z"/>
			<path id="XMLID_196_" style="fill:#B37F6A;" d="M132.672,171.609c0,0-10.687,11.547-16.555,18.444
				c-1.203,1.414-2.452,3.038-3.682,4.717c-2.876-2.325-6.667-5.392-9.197-7.451c-1.719,3.327-3.801,6.454-6.132,9.39
				c-0.956,1.204-1.951,2.377-2.982,3.517l0.017,0.101c0,0,1.5,1.01,3.813,2.398c4.163,2.499,10.97,6.23,16.48,7.545
				c0,0,5.406-5.879,13.597-17.543c4.084-5.816,8.858-13.068,14.003-21.754c3.492-5.238,5.793-8.674,5.793-8.674L132.672,171.609z"
				/>
			<path id="XMLID_193_" style="fill:#EDC16A;" d="M105.28,187.445c-14.988-15.298-26.949-20.05-33.542-21.501
				c-2.692-0.593-4.486-0.638-5.226-0.62c-0.128,0.272-0.253,0.544-0.369,0.815l0.205,4.792c0.173,4.055,1.204,8.004,2.996,11.561
				c1.607,3.191,3.826,6.068,6.613,8.411c0.714,0.6,1.42,1.128,2.101,1.566c5.118,3.29,10.71,6.703,15.951,9.312
				c1.565-0.758,3.976-2.77,5.918-4.838C101.766,194.983,103.637,192.063,105.28,187.445L105.28,187.445z"/>
			<path id="XMLID_191_" style="fill:#EDC16A;" d="M83.396,149.647l-0.037,0.024l-8.966,5.64c-2.86,2.003-5.987,6.002-7.88,10.012
				c0.74-0.017,2.533,0.028,5.226,0.62c3.142,0.691,7.515,2.151,12.842,5.126l1.633-10.829L83.396,149.647z"/>
			<path id="XMLID_185_" style="fill:#DFAA51;" d="M105.773,185.732c0,0-17.663-19.502-39.261-20.409l2.641,7.389l32.47,16.453
				l3.657-1.719L105.773,185.732z"/>
			<path id="XMLID_183_" style="fill:#EDC16A;" d="M105.28,187.445c-7.846-8.007-14.85-13.107-20.701-16.375
				c-5.327-2.975-9.7-4.435-12.842-5.126c-2.692-0.593-4.486-0.638-5.226-0.62c-0.128,0.272-0.253,0.544-0.369,0.815l0.205,4.792
				c0.173,4.055,1.204,8.004,2.996,11.561c1.607,3.191,3.826,6.068,6.613,8.411c0.714,0.6,1.42,1.128,2.101,1.566
				c0.497,0.32,1.003,0.641,1.508,0.962c4.697,2.984,9.711,5.995,14.442,8.35c1.565-0.758,3.976-2.77,5.918-4.838
				C101.766,194.983,103.637,192.063,105.28,187.445L105.28,187.445z"/>
			<path id="XMLID_175_" style="fill:#182A48;" d="M118.124,105.426c0,0-0.147-5.741-2.941-5.545
				c-2.794,0.197-1.936,6.329-1.936,6.329s0.363-4.644,2.125-4.767C117.133,101.321,118.124,105.426,118.124,105.426z"/>
			<path id="XMLID_171_" style="fill:#182A48;" d="M102.523,107.669c0,0-0.967-6.278-4.752-5.477
				c-3.786,0.8-1.795,7.359-1.795,7.359s-0.125-5.179,2.262-5.682C100.623,103.365,102.523,107.669,102.523,107.669z"/>
			<path id="XMLID_169_" style="fill:#FFFFFF;" d="M113.722,121.567l-8.273,1.234c0,0,2.328,3.506,5.356,3.029
				C113.834,125.353,113.722,121.567,113.722,121.567z"/>
			<g id="XMLID_165_">
				<path id="XMLID_167_" style="fill:#9A6053;" d="M109.623,116.703c0.328-0.078,3.196-0.815,2.794-2.645
					c-0.283-1.275-1.695-1.64-2.51-1.745l-0.771-4.242l-1.313,0.238l0.963,5.288l0.55,0.008c0.508,0.007,1.66,0.204,1.779,0.74
					c0.07,0.321-0.931,0.852-1.8,1.061L109.623,116.703z"/>
			</g>
			<g id="XMLID_65_">
				<path id="XMLID_113_" style="fill:#B2B7BA;" d="M143.819,165.323h12.998c0.544,0,0.984-0.441,0.984-0.984v-21.266
					c0-0.544-0.441-0.984-0.984-0.984h-12.998c-0.544,0-0.984,0.441-0.984,0.984v21.266
					C142.835,164.883,143.275,165.323,143.819,165.323z"/>
				<g id="XMLID_84_">
					<path id="XMLID_91_" style="fill:#233E60;" d="M146.166,144.185c0-0.528-0.428-0.956-0.956-0.956
						c-0.528,0-0.956,0.428-0.956,0.956c0,0.528,0.428,0.956,0.956,0.956C145.738,145.141,146.166,144.713,146.166,144.185z"/>
					<path id="XMLID_87_" style="fill:#182A48;" d="M145.891,144.185c0-0.376-0.305-0.681-0.681-0.681
						c-0.376,0-0.681,0.305-0.681,0.681c0,0.376,0.305,0.681,0.681,0.681C145.586,144.866,145.891,144.561,145.891,144.185z"/>
				</g>
				<path id="XMLID_71_" style="fill:#182A48;" d="M152.385,151.318c0-1.142-0.925-2.067-2.067-2.067
					c-1.142,0-2.067,0.925-2.067,2.067c0,1.141,0.925,2.067,2.067,2.067C151.46,153.385,152.385,152.46,152.385,151.318z"/>
				<path id="XMLID_67_" style="fill:#182A48;" d="M149.372,144.532h-2.455c-0.1,0-0.18-0.081-0.18-0.18v-0.334
					c0-0.1,0.081-0.18,0.18-0.18h2.455c0.1,0,0.18,0.081,0.18,0.18v0.334C149.552,144.452,149.471,144.532,149.372,144.532z"/>
			</g>
			<path id="XMLID_60_" style="fill:#EDC16A;" d="M120.665,144.751c0,0,7.805,8.361,10.95,25.832l-8.132,3.401L120.665,144.751z"/>
			<circle id="XMLID_57_" style="fill:#51361C;" cx="82.953" cy="76.985" r="11.327"/>
			<path id="XMLID_55_" style="fill:#B37F6A;" d="M145.09,167.057l-15.488,15.012l-16.224,11.433
				c14.872-19.173,25.483-29.243,25.483-29.243s1.527-9.06,3.118-11.371c0,0,0.87-0.124,1.242,0.659
				c0.373,0.783-0.295,4.154-0.295,4.154s5.036-8.318,6.226-9.01c1.19-0.693,5.13,1.241,6.113,2.312
				c0.983,1.071-3.143,8.756-3.852,9.976C150.704,162.199,145.09,167.057,145.09,167.057z"/>
		</g>
	</g>
</g>
</svg>
